Lunasima-Regular.ufo
<glyph name="exclam" format="2">
  <advance width="648"/>
  <unicode hex="0021"/>
  <outline>
    <contour>
      <point x="441" y="1428" type="line"/>
      <point x="209" y="1428" type="line"/>
      <point x="284" y="402" type="line"/>
      <point x="366" y="402" type="line"/>
    </contour>
    <contour>
      <point x="172" y="108" type="curve" smooth="yes"/>
      <point x="172" y="12"/>
      <point x="236" y="-28"/>
      <point x="323" y="-28" type="curve" smooth="yes"/>
      <point x="403" y="-28"/>
      <point x="476" y="12"/>
      <point x="476" y="108" type="curve" smooth="yes"/>
      <point x="476" y="206"/>
      <point x="403" y="242"/>
      <point x="323" y="242" type="curve" smooth="yes"/>
      <point x="236" y="242"/>
      <point x="172" y="206"/>
    </contour>
  </outline>
</glyph>
<glyph name="quotedbl" format="2">
  <advance width="765"/>
  <unicode hex="0022"/>
  <outline>
    <contour>
      <point x="138" y="1428" type="line"/>
      <point x="170" y="912" type="line"/>
      <point x="285" y="912" type="line"/>
      <point x="317" y="1428" type="line"/>
    </contour>
    <contour>
      <point x="448" y="1428" type="line"/>
      <point x="480" y="912" type="line"/>
      <point x="595" y="912" type="line"/>
      <point x="627" y="1428" type="line"/>
    </contour>
  </outline>
</glyph>
<glyph name="numbersign" format="2">
  <advance width="1295"/>
  <unicode hex="0023"/>
  <outline>
    <contour>
      <point x="1238" y="872" type="line"/>
      <point x="1238" y="1004" type="line"/>
      <point x="986" y="1004" type="line"/>
      <point x="1066" y="1428" type="line"/>
      <point x="928" y="1428" type="line"/>
      <point x="848" y="1004" type="line"/>
      <point x="563" y="1004" type="line"/>
      <point x="642" y="1428" type="line"/>
      <point x="499" y="1428" type="line"/>
      <point x="419" y="1004" type="line"/>
      <point x="129" y="1004" type="line"/>
      <point x="129" y="872" type="line"/>
      <point x="395" y="872" type="line"/>
      <point x="332" y="552" type="line"/>
      <point x="55" y="552" type="line"/>
      <point x="55" y="418" type="line"/>
      <point x="306" y="418" type="line"/>
      <point x="230" y="0" type="line"/>
      <point x="370" y="0" type="line"/>
      <point x="448" y="418" type="line"/>
      <point x="731" y="418" type="line"/>
      <point x="650" y="0" type="line"/>
      <point x="791" y="0" type="line"/>
      <point x="873" y="418" type="line"/>
      <point x="1171" y="418" type="line"/>
      <point x="1171" y="552" type="line"/>
      <point x="899" y="552" type="line"/>
      <point x="960" y="872" type="line"/>
    </contour>
    <contour>
      <point x="535" y="872" type="line"/>
      <point x="819" y="872" type="line"/>
      <point x="757" y="552" type="line"/>
      <point x="473" y="552" type="line"/>
    </contour>
  </outline>
</glyph>
<glyph name="percent" format="2">
  <advance width="1369"/>
  <unicode hex="0025"/>
  <outline>
    <contour>
      <point x="314" y="1448" type="curve" smooth="yes"/>
      <point x="147" y="1448"/>
      <point x="68" y="1284"/>
      <point x="68" y="1002" type="curve" smooth="yes"/>
      <point x="68" y="720"/>
      <point x="157" y="552"/>
      <point x="314" y="552" type="curve" smooth="yes"/>
      <point x="485" y="552"/>
      <point x="567" y="720"/>
      <point x="567" y="1002" type="curve" smooth="yes"/>
      <point x="567" y="1284"/>
      <point x="476" y="1448"/>
    </contour>
    <contour>
      <point x="315" y="1324" type="curve" smooth="yes"/>
      <point x="390" y="1324"/>
      <point x="424" y="1216"/>
      <point x="424" y="1002" type="curve" smooth="yes"/>
      <point x="424" y="786"/>
      <point x="390" y="678"/>
      <point x="315" y="678" type="curve" smooth="yes"/>
      <point x="241" y="678"/>
      <point x="210" y="788"/>
      <point x="210" y="1002" type="curve" smooth="yes"/>
      <point x="210" y="1216"/>
      <point x="241" y="1324"/>
    </contour>
    <contour>
      <point x="928" y="1428" type="line"/>
      <point x="294" y="0" type="line"/>
      <point x="441" y="0" type="line" name=".hr01"/>
      <point x="1074" y="1428" type="line"/>
    </contour>
    <contour>
      <point x="1050" y="876" type="curve" smooth="yes"/>
      <point x="883" y="876"/>
      <point x="804" y="712"/>
      <point x="804" y="430" type="curve" smooth="yes"/>
      <point x="804" y="148"/>
      <point x="893" y="-20"/>
      <point x="1050" y="-20" type="curve" smooth="yes"/>
      <point x="1221" y="-20" name=".hr02"/>
      <point x="1302" y="148"/>
      <point x="1302" y="430" type="curve" smooth="yes"/>
      <point x="1302" y="712"/>
      <point x="1210" y="876"/>
    </contour>
    <contour>
      <point x="1050" y="750" type="curve" smooth="yes"/>
      <point x="1125" y="750"/>
      <point x="1160" y="644"/>
      <point x="1160" y="430" type="curve" smooth="yes"/>
      <point x="1160" y="212"/>
      <point x="1125" y="106"/>
      <point x="1050" y="106" type="curve" smooth="yes"/>
      <point x="977" y="106"/>
      <point x="946" y="214"/>
      <point x="946" y="430" type="curve" smooth="yes"/>
      <point x="946" y="644"/>
      <point x="977" y="750"/>
    </contour>
  </outline>
</glyph>
<glyph name="ampersand" format="2">
  <advance width="1428"/>
  <unicode hex="0026"/>
  <outline>
    <contour>
      <point x="602" y="1450" type="curve" smooth="yes"/>
      <point x="381" y="1450"/>
      <point x="245" y="1334"/>
      <point x="245" y="1138" type="curve" smooth="yes"/>
      <point x="245" y="992"/>
      <point x="329" y="888"/>
      <point x="411" y="792" type="curve"/>
      <point x="229" y="684"/>
      <point x="116" y="576"/>
      <point x="116" y="372" type="curve" smooth="yes"/>
      <point x="116" y="120"/>
      <point x="284" y="-20"/>
      <point x="551" y="-20" type="curve" smooth="yes"/>
      <point x="765" y="-20"/>
      <point x="902" y="56"/>
      <point x="1023" y="168" type="curve"/>
      <point x="1187" y="0" type="line" name=".hr01"/>
      <point x="1424" y="0" type="line"/>
      <point x="1143" y="284" type="line"/>
      <point x="1239" y="394"/>
      <point x="1300" y="542"/>
      <point x="1340" y="714" type="curve"/>
      <point x="1162" y="714" type="line"/>
      <point x="1133" y="588"/>
      <point x="1095" y="478"/>
      <point x="1029" y="396" type="curve"/>
      <point x="664" y="768" type="line"/>
      <point x="821" y="864"/>
      <point x="938" y="974"/>
      <point x="938" y="1142" type="curve" smooth="yes"/>
      <point x="938" y="1336"/>
      <point x="810" y="1450"/>
    </contour>
    <contour>
      <point x="911" y="278" type="line"/>
      <point x="832" y="200"/>
      <point x="718" y="136"/>
      <point x="558" y="136" type="curve" smooth="yes" name=".hr02"/>
      <point x="401" y="136"/>
      <point x="300" y="232"/>
      <point x="300" y="378" type="curve" smooth="yes"/>
      <point x="300" y="522"/>
      <point x="381" y="596"/>
      <point x="517" y="682" type="curve"/>
    </contour>
    <contour>
      <point x="596" y="1306" type="curve" smooth="yes"/>
      <point x="698" y="1306"/>
      <point x="765" y="1238"/>
      <point x="765" y="1142" type="curve" smooth="yes"/>
      <point x="765" y="1034"/>
      <point x="706" y="962"/>
      <point x="557" y="872" type="curve"/>
      <point x="466" y="970"/>
      <point x="417" y="1044" name=".hr03"/>
      <point x="417" y="1140" type="curve" smooth="yes"/>
      <point x="417" y="1244"/>
      <point x="490" y="1306"/>
    </contour>
  </outline>
</glyph>
<glyph name="quotesingle" format="2">
  <advance width="469"/>
  <unicode hex="0027"/>
  <outline>
    <contour>
      <point x="143" y="1428" type="line"/>
      <point x="178" y="912" type="line"/>
      <point x="292" y="912" type="line"/>
      <point x="326" y="1428" type="line"/>
    </contour>
  </outline>
</glyph>
<glyph name="parenleft" format="2">
  <advance width="666"/>
  <unicode hex="0028"/>
  <outline>
    <contour>
      <point x="88" y="548" type="curve" smooth="yes"/>
      <point x="88" y="226"/>
      <point x="197" y="-82"/>
      <point x="429" y="-316" type="curve"/>
      <point x="598" y="-316" type="line"/>
      <point x="386" y="-66"/>
      <point x="273" y="240"/>
      <point x="273" y="550" type="curve" smooth="yes"/>
      <point x="273" y="866"/>
      <point x="386" y="1178"/>
      <point x="600" y="1428" type="curve"/>
      <point x="429" y="1428" type="line"/>
      <point x="197" y="1186"/>
      <point x="88" y="874"/>
    </contour>
  </outline>
</glyph>
<glyph name="plus" format="2">
  <advance width="1628"/>
  <unicode hex="002B"/>
  <outline>
    <contour>
      <point x="896" y="1190" type="line"/>
      <point x="730" y="1190" type="line"/>
      <point x="730" y="776" type="line"/>
      <point x="119" y="776" type="line"/>
      <point x="119" y="634" type="line"/>
      <point x="730" y="634" type="line"/>
      <point x="730" y="222" type="line"/>
      <point x="896" y="222" type="line"/>
      <point x="896" y="634" type="line"/>
      <point x="1507" y="634" type="line"/>
      <point x="1507" y="776" type="line"/>
      <point x="896" y="776" type="line"/>
    </contour>
  </outline>
</glyph>
<glyph name="hyphen" format="2">
  <advance width="1185"/>
  <unicode hex="002D"/>
  <outline>
    <contour>
      <point x="941" y="458" type="line"/>
      <point x="941" y="614" type="line"/>
      <point x="244" y="614" type="line"/>
      <point x="244" y="458" type="line"/>
    </contour>
  </outline>
</glyph>
<glyph name="slash" format="2">
  <advance width="1074"/>
  <unicode hex="002F"/>
  <outline>
    <contour>
      <point x="843" y="1428" type="line"/>
      <point x="45" y="0" type="line"/>
      <point x="232" y="0" type="line"/>
      <point x="1030" y="1428" type="line"/>
    </contour>
  </outline>
</glyph>
<glyph name="zero" format="2">
  <advance width="1295"/>
  <unicode hex="0030"/>
  <outline>
    <contour>
      <point x="1188" y="716" type="curve" smooth="yes"/>
      <point x="1188" y="1180"/>
      <point x="1009" y="1450"/>
      <point x="646" y="1450" type="curve" smooth="yes"/>
      <point x="257" y="1450"/>
      <point x="107" y="1178"/>
      <point x="107" y="716" type="curve" smooth="yes"/>
      <point x="107" y="254"/>
      <point x="279" y="-20"/>
      <point x="646" y="-20" type="curve" smooth="yes"/>
      <point x="1034" y="-20"/>
      <point x="1188" y="254"/>
    </contour>
    <contour>
      <point x="283" y="716" type="curve" smooth="yes"/>
      <point x="283" y="1106"/>
      <point x="383" y="1300"/>
      <point x="646" y="1300" type="curve" smooth="yes"/>
      <point x="906" y="1300"/>
      <point x="1010" y="1106"/>
      <point x="1010" y="716" type="curve" smooth="yes"/>
      <point x="1010" y="322"/>
      <point x="906" y="130"/>
      <point x="646" y="130" type="curve" smooth="yes"/>
      <point x="383" y="130"/>
      <point x="283" y="324"/>
    </contour>
  </outline>
</glyph>
<glyph name="two" format="2">
  <advance width="1295"/>
  <unicode hex="0032"/>
  <outline>
    <contour>
      <point x="1181" y="160" type="line"/>
      <point x="326" y="160" type="line"/>
      <point x="326" y="168" type="line"/>
      <point x="694" y="462" type="line"/>
      <point x="940" y="676"/>
      <point x="1111" y="844"/>
      <point x="1111" y="1068" type="curve" smooth="yes"/>
      <point x="1111" y="1304"/>
      <point x="922" y="1448"/>
      <point x="619" y="1448" type="curve" smooth="yes"/>
      <point x="422" y="1448"/>
      <point x="255" y="1374"/>
      <point x="128" y="1280" type="curve"/>
      <point x="221" y="1162" type="line"/>
      <point x="347" y="1248"/>
      <point x="456" y="1298"/>
      <point x="624" y="1298" type="curve" smooth="yes"/>
      <point x="807" y="1298"/>
      <point x="929" y="1214"/>
      <point x="929" y="1058" type="curve" smooth="yes"/>
      <point x="929" y="864"/>
      <point x="787" y="737"/>
      <point x="540" y="524" type="curve" smooth="yes"/>
      <point x="105" y="146" type="line"/>
      <point x="105" y="0" type="line"/>
      <point x="1181" y="0" type="line"/>
    </contour>
  </outline>
</glyph>
<glyph name="three" format="2">
  <advance width="1295"/>
  <unicode hex="0033"/>
  <outline>
    <contour>
      <point x="1120" y="1094" type="curve" smooth="yes"/>
      <point x="1120" y="1298"/>
      <point x="958" y="1448"/>
      <point x="615" y="1448" type="curve" smooth="yes"/>
      <point x="402" y="1448"/>
      <point x="225" y="1380"/>
      <point x="109" y="1300" type="curve"/>
      <point x="202" y="1180" type="line"/>
      <point x="332" y="1250"/>
      <point x="445" y="1300"/>
      <point x="625" y="1300" type="curve" smooth="yes"/>
      <point x="818" y="1300"/>
      <point x="937" y="1220"/>
      <point x="937" y="1082" type="curve" smooth="yes"/>
      <point x="937" y="920"/>
      <point x="788" y="812"/>
      <point x="517" y="812" type="curve" smooth="yes"/>
      <point x="350" y="812" type="line"/>
      <point x="350" y="662" type="line"/>
      <point x="515" y="662" type="line" smooth="yes"/>
      <point x="806" y="662"/>
      <point x="988" y="588"/>
      <point x="988" y="410" type="curve" smooth="yes"/>
      <point x="988" y="234"/>
      <point x="859" y="128"/>
      <point x="556" y="128" type="curve" smooth="yes"/>
      <point x="406" y="128"/>
      <point x="237" y="162"/>
      <point x="99" y="222" type="curve"/>
      <point x="99" y="58" type="line"/>
      <point x="235" y="0"/>
      <point x="378" y="-20"/>
      <point x="546" y="-20" type="curve" smooth="yes"/>
      <point x="976" y="-20"/>
      <point x="1170" y="156"/>
      <point x="1170" y="406" type="curve" smooth="yes"/>
      <point x="1170" y="594"/>
      <point x="1044" y="716"/>
      <point x="782" y="744" type="curve" name=".hr01"/>
      <point x="782" y="752" type="line"/>
      <point x="990" y="788"/>
      <point x="1120" y="902"/>
    </contour>
  </outline>
</glyph>
<glyph name="four" format="2">
  <advance width="1295"/>
  <unicode hex="0034"/>
  <outline>
    <contour>
      <point x="1251" y="482" type="line"/>
      <point x="1009" y="482" type="line"/>
      <point x="1009" y="1436" type="line"/>
      <point x="822" y="1436" type="line"/>
      <point x="46" y="474" type="line"/>
      <point x="46" y="324" type="line"/>
      <point x="840" y="324" type="line"/>
      <point x="840" y="0" type="line"/>
      <point x="1009" y="0" type="line"/>
      <point x="1009" y="324" type="line"/>
      <point x="1251" y="324" type="line"/>
    </contour>
    <contour>
      <point x="840" y="482" type="line"/>
      <point x="223" y="482" type="line"/>
      <point x="743" y="1092" type="line"/>
      <point x="774" y="1132"/>
      <point x="818" y="1198"/>
      <point x="842" y="1248" type="curve"/>
      <point x="851" y="1248" type="line"/>
      <point x="847" y="1160"/>
      <point x="840" y="1070"/>
      <point x="840" y="932" type="curve" smooth="yes"/>
    </contour>
  </outline>
</glyph>
<glyph name="five" format="2">
  <advance width="1295"/>
  <unicode hex="0035"/>
  <outline>
    <contour>
      <point x="610" y="876" type="curve" smooth="yes"/>
      <point x="502" y="876"/>
      <point x="403" y="862"/>
      <point x="350" y="854" type="curve"/>
      <point x="391" y="1268" type="line"/>
      <point x="1054" y="1268" type="line"/>
      <point x="1054" y="1428" type="line"/>
      <point x="241" y="1428" type="line"/>
      <point x="179" y="754" type="line"/>
      <point x="273" y="698" type="line"/>
      <point x="341" y="712"/>
      <point x="473" y="728"/>
      <point x="561" y="728" type="curve" smooth="yes"/>
      <point x="859" y="728"/>
      <point x="990" y="624"/>
      <point x="990" y="438" type="curve" smooth="yes"/>
      <point x="990" y="228"/>
      <point x="818" y="130"/>
      <point x="567" y="130" type="curve" smooth="yes"/>
      <point x="421" y="130"/>
      <point x="249" y="166"/>
      <point x="138" y="224" type="curve"/>
      <point x="138" y="58" type="line"/>
      <point x="238" y="6"/>
      <point x="392" y="-20"/>
      <point x="560" y="-20" type="curve" smooth="yes"/>
      <point x="941" y="-20"/>
      <point x="1170" y="160"/>
      <point x="1170" y="456" type="curve" smooth="yes"/>
      <point x="1170" y="722"/>
      <point x="954" y="876"/>
    </contour>
  </outline>
</glyph>
<glyph name="eight" format="2">
  <advance width="1295"/>
  <unicode hex="0038"/>
  <outline>
    <contour>
      <point x="645" y="1448" type="curve" smooth="yes"/>
      <point x="368" y="1448"/>
      <point x="161" y="1326"/>
      <point x="161" y="1108" type="curve" smooth="yes"/>
      <point x="161" y="932"/>
      <point x="289" y="826"/>
      <point x="454" y="746" type="curve"/>
      <point x="270" y="674"/>
      <point x="107" y="558"/>
      <point x="107" y="364" type="curve" smooth="yes"/>
      <point x="107" y="122"/>
      <point x="305" y="-20"/>
      <point x="653" y="-20" type="curve" smooth="yes"/>
      <point x="971" y="-20"/>
      <point x="1185" y="130"/>
      <point x="1185" y="370" type="curve" smooth="yes"/>
      <point x="1185" y="564"/>
      <point x="1023" y="670"/>
      <point x="815" y="756" type="curve"/>
      <point x="986" y="832"/>
      <point x="1132" y="934"/>
      <point x="1132" y="1106" type="curve" smooth="yes"/>
      <point x="1132" y="1328"/>
      <point x="929" y="1448"/>
    </contour>
    <contour>
      <point x="282" y="362" type="curve" smooth="yes"/>
      <point x="282" y="508"/>
      <point x="393" y="598"/>
      <point x="608" y="674" type="curve"/>
      <point x="645" y="662" type="line" smooth="yes"/>
      <point x="872" y="592"/>
      <point x="1011" y="506"/>
      <point x="1011" y="368" type="curve" smooth="yes"/>
      <point x="1011" y="222"/>
      <point x="882" y="120"/>
      <point x="648" y="120" type="curve" smooth="yes"/>
      <point x="397" y="120"/>
      <point x="282" y="224"/>
    </contour>
    <contour>
      <point x="643" y="1306" type="curve" smooth="yes"/>
      <point x="832" y="1306"/>
      <point x="956" y="1232"/>
      <point x="956" y="1100" type="curve" smooth="yes"/>
      <point x="956" y="956"/>
      <point x="826" y="882"/>
      <point x="656" y="824" type="curve"/>
      <point x="477" y="886"/>
      <point x="335" y="952"/>
      <point x="335" y="1100" type="curve" smooth="yes"/>
      <point x="335" y="1232"/>
      <point x="461" y="1306"/>
    </contour>
  </outline>
</glyph>
<glyph name="nine" format="2">
  <advance width="1295"/>
  <unicode hex="0039"/>
  <outline>
    <contour>
      <point x="1181" y="818" type="curve" smooth="yes"/>
      <point x="1181" y="1244"/>
      <point x="940" y="1448"/>
      <point x="630" y="1448" type="curve" smooth="yes"/>
      <point x="317" y="1448"/>
      <point x="110" y="1264"/>
      <point x="110" y="966" type="curve" smooth="yes"/>
      <point x="110" y="690"/>
      <point x="301" y="534"/>
      <point x="586" y="534" type="curve" smooth="yes"/>
      <point x="788" y="534"/>
      <point x="914" y="608"/>
      <point x="985" y="700" type="curve"/>
      <point x="999" y="700" type="line"/>
      <point x="985" y="388"/>
      <point x="870" y="124"/>
      <point x="434" y="124" type="curve" smooth="yes"/>
      <point x="366" y="124"/>
      <point x="286" y="134"/>
      <point x="231" y="150" type="curve"/>
      <point x="231" y="0" type="line"/>
      <point x="281" y="-14"/>
      <point x="375" y="-20"/>
      <point x="437" y="-20" type="curve" smooth="yes"/>
      <point x="1061" y="-20"/>
      <point x="1181" y="408"/>
    </contour>
    <contour>
      <point x="629" y="1300" type="curve" smooth="yes"/>
      <point x="878" y="1300"/>
      <point x="1003" y="1106"/>
      <point x="1003" y="934" type="curve" smooth="yes"/>
      <point x="1003" y="806"/>
      <point x="854" y="672"/>
      <point x="619" y="672" type="curve" smooth="yes"/>
      <point x="392" y="672"/>
      <point x="285" y="784"/>
      <point x="285" y="968" type="curve" smooth="yes"/>
      <point x="285" y="1192"/>
      <point x="427" y="1300"/>
    </contour>
  </outline>
</glyph>
<glyph name="colon" format="2">
  <advance width="648"/>
  <unicode hex="003A"/>
  <outline>
    <contour>
      <point x="172" y="108" type="curve" smooth="yes"/>
      <point x="172" y="12"/>
      <point x="236" y="-28"/>
      <point x="318" y="-28" type="curve" smooth="yes"/>
      <point x="403" y="-28"/>
      <point x="476" y="12"/>
      <point x="476" y="108" type="curve" smooth="yes"/>
      <point x="476" y="206"/>
      <point x="403" y="242"/>
      <point x="318" y="242" type="curve" smooth="yes"/>
      <point x="236" y="242"/>
      <point x="172" y="206"/>
    </contour>
    <contour>
      <point x="172" y="964" type="curve" smooth="yes"/>
      <point x="172" y="868"/>
      <point x="236" y="828"/>
      <point x="318" y="828" type="curve" smooth="yes"/>
      <point x="403" y="828"/>
      <point x="476" y="868"/>
      <point x="476" y="964" type="curve" smooth="yes"/>
      <point x="476" y="1064"/>
      <point x="403" y="1100"/>
      <point x="318" y="1100" type="curve" smooth="yes"/>
      <point x="236" y="1100"/>
      <point x="172" y="1064"/>
    </contour>
  </outline>
</glyph>
<glyph name="semicolon" format="2">
  <advance width="648"/>
  <unicode hex="003B"/>
  <outline>
    <contour>
      <point x="427" y="232" type="line"/>
      <point x="214" y="232" type="line"/>
      <point x="185" y="92"/>
      <point x="122" y="-108"/>
      <point x="68" y="-258" type="curve"/>
      <point x="205" y="-258" type="line"/>
      <point x="294" y="-116"/>
      <point x="396" y="70"/>
      <point x="447" y="210" type="curve"/>
    </contour>
    <contour>
      <point x="193" y="964" type="curve" smooth="yes"/>
      <point x="193" y="868"/>
      <point x="256" y="828"/>
      <point x="335" y="828" type="curve" smooth="yes"/>
      <point x="421" y="828"/>
      <point x="486" y="868"/>
      <point x="486" y="964" type="curve" smooth="yes"/>
      <point x="486" y="1064"/>
      <point x="421" y="1100"/>
      <point x="335" y="1100" type="curve" smooth="yes"/>
      <point x="256" y="1100"/>
      <point x="193" y="1064"/>
    </contour>
  </outline>
</glyph>
<glyph name="less" format="2">
  <advance width="1628"/>
  <unicode hex="003C"/>
  <outline>
    <contour>
      <point x="1510" y="388" type="line"/>
      <point x="316" y="704" type="line"/>
      <point x="1510" y="1060" type="line"/>
      <point x="1510" y="1216" type="line"/>
      <point x="117" y="746" type="line"/>
      <point x="117" y="646" type="line"/>
      <point x="1510" y="232" type="line"/>
    </contour>
  </outline>
</glyph>
<glyph name="equal" format="2">
  <advance width="1628"/>
  <unicode hex="003D"/>
  <outline>
    <contour>
      <point x="1483" y="832" type="line"/>
      <point x="1483" y="974" type="line"/>
      <point x="142" y="974" type="line"/>
      <point x="142" y="832" type="line"/>
    </contour>
    <contour>
      <point x="1483" y="434" type="line"/>
      <point x="1483" y="576" type="line"/>
      <point x="142" y="576" type="line"/>
      <point x="142" y="434" type="line"/>
    </contour>
  </outline>
</glyph>
<glyph name="greater" format="2">
  <advance width="1628"/>
  <unicode hex="003E"/>
  <outline>
    <contour>
      <point x="117" y="232" type="line"/>
      <point x="1510" y="646" type="line"/>
      <point x="1510" y="746" type="line"/>
      <point x="117" y="1216" type="line"/>
      <point x="117" y="1060" type="line"/>
      <point x="1311" y="702" type="line"/>
      <point x="117" y="388" type="line"/>
    </contour>
  </outline>
</glyph>
<glyph name="question" format="2">
  <advance width="864"/>
  <unicode hex="003F"/>
  <outline>
    <contour>
      <point x="279" y="402" type="line"/>
      <point x="418" y="402" type="line"/>
      <point x="418" y="436" type="line" smooth="yes"/>
      <point x="418" y="550"/>
      <point x="443" y="603"/>
      <point x="576" y="716" type="curve"/>
      <point x="717" y="837"/>
      <point x="807" y="918"/>
      <point x="807" y="1098" type="curve" smooth="yes"/>
      <point x="807" y="1314"/>
      <point x="666" y="1448"/>
      <point x="415" y="1448" type="curve" smooth="yes"/>
      <point x="258" y="1448"/>
      <point x="131" y="1406"/>
      <point x="26" y="1350" type="curve"/>
      <point x="88" y="1210" type="line"/>
      <point x="179" y="1254"/>
      <point x="274" y="1294"/>
      <point x="403" y="1294" type="curve" smooth="yes"/>
      <point x="556" y="1294"/>
      <point x="640" y="1222"/>
      <point x="640" y="1094" type="curve" smooth="yes"/>
      <point x="640" y="974"/>
      <point x="595" y="926"/>
      <point x="444" y="796" type="curve" smooth="yes"/>
      <point x="316" y="686"/>
      <point x="279" y="606"/>
      <point x="279" y="456" type="curve" smooth="yes"/>
    </contour>
    <contour>
      <point x="233" y="108" type="curve" smooth="yes"/>
      <point x="233" y="12"/>
      <point x="285" y="-28"/>
      <point x="356" y="-28" type="curve" smooth="yes"/>
      <point x="422" y="-28"/>
      <point x="478" y="12"/>
      <point x="478" y="108" type="curve" smooth="yes"/>
      <point x="478" y="206"/>
      <point x="422" y="242"/>
      <point x="356" y="242" type="curve" smooth="yes"/>
      <point x="285" y="242"/>
      <point x="233" y="206"/>
    </contour>
  </outline>
</glyph>
<glyph name="C" format="2">
  <advance width="1417"/>
  <unicode hex="0043"/>
  <anchor x="834" y="0" name="bottom"/>
  <anchor x="857" y="1428" name="top"/>
  <anchor x="1374" y="1428" name="topright"/>
  <outline>
    <contour>
      <point x="907" y="1290" type="curve" smooth="yes"/>
      <point x="1053" y="1290"/>
      <point x="1176" y="1252"/>
      <point x="1273" y="1212" type="curve"/>
      <point x="1349" y="1364" type="line"/>
      <point x="1232" y="1418"/>
      <point x="1075" y="1448"/>
      <point x="910" y="1448" type="curve" smooth="yes"/>
      <point x="410" y="1448"/>
      <point x="134" y="1148"/>
      <point x="134" y="716" type="curve" smooth="yes"/>
      <point x="134" y="266"/>
      <point x="383" y="-20"/>
      <point x="875" y="-20" type="curve" smooth="yes"/>
      <point x="1055" y="-20"/>
      <point x="1169" y="-2"/>
      <point x="1287" y="38" type="curve"/>
      <point x="1287" y="194" type="line"/>
      <point x="1166" y="162"/>
      <point x="1042" y="138"/>
      <point x="902" y="138" type="curve" smooth="yes"/>
      <point x="519" y="138"/>
      <point x="326" y="360"/>
      <point x="326" y="714" type="curve" smooth="yes"/>
      <point x="326" y="1072"/>
      <point x="547" y="1290"/>
    </contour>
  </outline>
</glyph>
<glyph name="D" format="2">
  <advance width="1534"/>
  <unicode hex="0044"/>
  <anchor x="720" y="0" name="bottom"/>
  <anchor x="769" y="714" name="center"/>
  <anchor x="761" y="1428" name="top"/>
  <anchor x="1486" y="1428" name="topright"/>
  <outline>
    <contour>
      <point x="1400" y="728" type="curve" smooth="yes"/>
      <point x="1400" y="1186"/>
      <point x="1115" y="1428"/>
      <point x="669" y="1428" type="curve" smooth="yes"/>
      <point x="213" y="1428" type="line"/>
      <point x="213" y="0" type="line"/>
      <point x="625" y="0" type="line" smooth="yes"/>
      <point x="1114" y="0"/>
      <point x="1400" y="246"/>
    </contour>
    <contour>
      <point x="1210" y="722" type="curve" smooth="yes"/>
      <point x="1210" y="346"/>
      <point x="1005" y="154"/>
      <point x="599" y="154" type="curve" smooth="yes"/>
      <point x="394" y="154" type="line"/>
      <point x="394" y="1274" type="line"/>
      <point x="641" y="1274" type="line" smooth="yes"/>
      <point x="1003" y="1274"/>
      <point x="1210" y="1102"/>
    </contour>
  </outline>
</glyph>
<glyph name="L" format="2">
  <advance width="1092"/>
  <unicode hex="004C"/>
  <anchor x="630" y="0" name="bottom"/>
  <anchor x="551" y="714" name="center"/>
  <anchor x="299" y="1428" name="top"/>
  <anchor x="762" y="1428" name="topright"/>
  <outline>
    <contour>
      <point x="1037" y="0" type="line"/>
      <point x="1037" y="160" type="line"/>
      <point x="394" y="160" type="line"/>
      <point x="394" y="1428" type="line"/>
      <point x="213" y="1428" type="line"/>
      <point x="213" y="0" type="line"/>
    </contour>
  </outline>
</glyph>
<glyph name="O" format="2">
  <advance width="1591"/>
  <unicode hex="004F"/>
  <anchor x="799" y="0" name="bottom"/>
  <anchor x="797" y="714" name="center"/>
  <anchor x="797" y="1428" name="top"/>
  <anchor x="1540" y="1428" name="topright"/>
  <outline>
    <contour>
      <point x="1457" y="716" type="curve" smooth="yes"/>
      <point x="1457" y="1160"/>
      <point x="1229" y="1450"/>
      <point x="799" y="1450" type="curve" smooth="yes"/>
      <point x="349" y="1450"/>
      <point x="134" y="1156"/>
      <point x="134" y="718" type="curve" smooth="yes"/>
      <point x="134" y="276"/>
      <point x="349" y="-20"/>
      <point x="797" y="-20" type="curve" smooth="yes"/>
      <point x="1229" y="-20"/>
      <point x="1457" y="274"/>
    </contour>
    <contour>
      <point x="325" y="716" type="curve" smooth="yes"/>
      <point x="325" y="1076"/>
      <point x="473" y="1292"/>
      <point x="799" y="1292" type="curve" smooth="yes"/>
      <point x="1123" y="1292"/>
      <point x="1267" y="1076"/>
      <point x="1267" y="716" type="curve" smooth="yes"/>
      <point x="1267" y="356"/>
      <point x="1123" y="136"/>
      <point x="797" y="136" type="curve" smooth="yes"/>
      <point x="473" y="136"/>
      <point x="325" y="356"/>
    </contour>
  </outline>
</glyph>
<glyph name="P" format="2">
  <advance width="1132"/>
  <unicode hex="0050"/>
  <anchor x="579" y="0" name="bottom"/>
  <anchor x="601" y="1428" name="top"/>
  <anchor x="1071" y="1428" name="topright"/>
  <outline>
    <contour>
      <point x="213" y="1428" type="line"/>
      <point x="213" y="0" type="line"/>
      <point x="393" y="0" type="line"/>
      <point x="393" y="556" type="line"/>
      <point x="529" y="556" type="line" smooth="yes"/>
      <point x="898" y="556"/>
      <point x="1020" y="772"/>
      <point x="1020" y="1008" type="curve" smooth="yes"/>
      <point x="1020" y="1274"/>
      <point x="878" y="1428"/>
      <point x="555" y="1428" type="curve" smooth="yes"/>
    </contour>
    <contour>
      <point x="542" y="1274" type="line" smooth="yes"/>
      <point x="744" y="1274"/>
      <point x="836" y="1184"/>
      <point x="836" y="1000" type="curve" smooth="yes"/>
      <point x="836" y="790"/>
      <point x="727" y="710"/>
      <point x="510" y="710" type="curve" smooth="yes"/>
      <point x="393" y="710" type="line"/>
      <point x="393" y="1274" type="line"/>
    </contour>
  </outline>
</glyph>
<glyph name="R" format="2">
  <advance width="1295"/>
  <unicode hex="0052"/>
  <anchor x="689" y="0" name="bottom"/>
  <anchor x="653" y="1428" name="top"/>
  <anchor x="1254" y="1428" name="topright"/>
  <outline>
    <contour>
      <point x="213" y="1428" type="line"/>
      <point x="213" y="0" type="line"/>
      <point x="394" y="0" type="line"/>
      <point x="394" y="590" type="line"/>
      <point x="693" y="590" type="line"/>
      <point x="1052" y="0" type="line"/>
      <point x="1262" y="0" type="line"/>
      <point x="858" y="640" type="line"/>
      <point x="1006" y="690"/>
      <point x="1155" y="794"/>
      <point x="1155" y="1022" type="curve" smooth="yes"/>
      <point x="1155" y="1294"/>
      <point x="984" y="1428"/>
      <point x="619" y="1428" type="curve" smooth="yes"/>
    </contour>
    <contour>
      <point x="608" y="1272" type="line" smooth="yes"/>
      <point x="853" y="1272"/>
      <point x="969" y="1200"/>
      <point x="969" y="1014" type="curve" smooth="yes"/>
      <point x="969" y="834"/>
      <point x="862" y="742"/>
      <point x="619" y="742" type="curve" smooth="yes"/>
      <point x="394" y="742" type="line"/>
      <point x="394" y="1272" type="line"/>
    </contour>
  </outline>
</glyph>
<glyph name="U" format="2">
  <advance width="1419"/>
  <unicode hex="0055"/>
  <anchor x="707" y="0" name="bottom"/>
  <anchor x="711" y="1428" name="top"/>
  <anchor x="1348" y="1428" name="topright"/>
  <outline>
    <contour>
      <point x="1219" y="1428" type="line"/>
      <point x="1041" y="1428" type="line"/>
      <point x="1041" y="504" type="line" smooth="yes"/>
      <point x="1041" y="288"/>
      <point x="943" y="136"/>
      <point x="712" y="136" type="curve" smooth="yes"/>
      <point x="489" y="136"/>
      <point x="378" y="270"/>
      <point x="378" y="502" type="curve" smooth="yes"/>
      <point x="378" y="1428" type="line"/>
      <point x="198" y="1428" type="line"/>
      <point x="198" y="508" type="line" smooth="yes"/>
      <point x="198" y="190"/>
      <point x="373" y="-20"/>
      <point x="704" y="-20" type="curve" smooth="yes"/>
      <point x="1054" y="-20"/>
      <point x="1219" y="208"/>
      <point x="1219" y="504" type="curve" smooth="yes"/>
    </contour>
  </outline>
</glyph>
<glyph name="V" format="2">
  <advance width="1339"/>
  <unicode hex="0056"/>
  <anchor x="668" y="0" name="bottom"/>
  <anchor x="677" y="1428" name="top"/>
  <anchor x="1294" y="1428" name="topright"/>
  <outline>
    <contour>
      <point x="1152" y="1428" type="line"/>
      <point x="775" y="516" type="line" smooth="yes"/>
      <point x="726" y="396"/>
      <point x="692" y="294"/>
      <point x="670" y="200" type="curve"/>
      <point x="646" y="294"/>
      <point x="615" y="392"/>
      <point x="565" y="512" type="curve" smooth="yes"/>
      <point x="185" y="1428" type="line"/>
      <point x="0" y="1428" type="line"/>
      <point x="584" y="0" type="line"/>
      <point x="756" y="0" type="line"/>
      <point x="1339" y="1428" type="line"/>
    </contour>
  </outline>
</glyph>
<glyph name="W" format="2">
  <advance width="1752"/>
  <unicode hex="0057"/>
  <anchor x="864" y="0" name="bottom"/>
  <anchor x="876" y="1428" name="top"/>
  <anchor x="1712" y="1428" name="topright"/>
  <outline>
    <contour>
      <point x="1538" y="1428" type="line"/>
      <point x="1337" y="558" type="line" smooth="yes"/>
      <point x="1308" y="432"/>
      <point x="1283" y="314"/>
      <point x="1272" y="216" type="curve"/>
      <point x="1259" y="308"/>
      <point x="1231" y="436"/>
      <point x="1198" y="560" type="curve" smooth="yes"/>
      <point x="962" y="1428" type="line"/>
      <point x="779" y="1428" type="line"/>
      <point x="551" y="566" type="line" smooth="yes"/>
      <point x="520" y="448"/>
      <point x="492" y="320"/>
      <point x="479" y="216" type="curve"/>
      <point x="466" y="316"/>
      <point x="444" y="432"/>
      <point x="415" y="556" type="curve" smooth="yes"/>
      <point x="212" y="1428" type="line"/>
      <point x="26" y="1428" type="line"/>
      <point x="377" y="0" type="line"/>
      <point x="563" y="0" type="line"/>
      <point x="806" y="930" type="line" smooth="yes"/>
      <point x="838" y="1052"/>
      <point x="866" y="1182"/>
      <point x="870" y="1218" type="curve"/>
      <point x="875" y="1182"/>
      <point x="905" y="1050"/>
      <point x="936" y="936" type="curve" smooth="yes"/>
      <point x="1187" y="0" type="line"/>
      <point x="1372" y="0" type="line"/>
      <point x="1724" y="1428" type="line"/>
    </contour>
  </outline>
</glyph>
<glyph name="Y" format="2">
  <advance width="1276"/>
  <unicode hex="0059"/>
  <anchor x="638" y="0" name="bottom"/>
  <anchor x="638" y="1428" name="top"/>
  <anchor x="1231" y="1428" name="topright"/>
  <outline>
    <contour>
      <point x="197" y="1428" type="line"/>
      <point x="0" y="1428" type="line"/>
      <point x="548" y="546" type="line"/>
      <point x="548" y="0" type="line"/>
      <point x="728" y="0" type="line"/>
      <point x="728" y="554" type="line"/>
      <point x="1276" y="1428" type="line"/>
      <point x="1082" y="1428" type="line"/>
      <point x="638" y="726" type="line"/>
    </contour>
  </outline>
</glyph>
<glyph name="Z" format="2">
  <advance width="1238"/>
  <unicode hex="005A"/>
  <anchor x="644" y="0" name="bottom"/>
  <anchor x="628" y="1428" name="top"/>
  <anchor x="1197" y="1428" name="topright"/>
  <outline>
    <contour>
      <point x="1153" y="160" type="line"/>
      <point x="301" y="160" type="line"/>
      <point x="1131" y="1292" type="line"/>
      <point x="1131" y="1428" type="line"/>
      <point x="111" y="1428" type="line"/>
      <point x="111" y="1268" type="line"/>
      <point x="914" y="1268" type="line"/>
      <point x="83" y="136" type="line"/>
      <point x="83" y="0" type="line"/>
      <point x="1153" y="0" type="line"/>
    </contour>
  </outline>
</glyph>
<glyph name="bracketleft" format="2">
  <advance width="666"/>
  <unicode hex="005B"/>
  <outline>
    <contour>
      <point x="611" y="-172" type="line"/>
      <point x="347" y="-172" type="line"/>
      <point x="347" y="1284" type="line"/>
      <point x="611" y="1284" type="line"/>
      <point x="611" y="1428" type="line"/>
      <point x="176" y="1428" type="line"/>
      <point x="176" y="-316" type="line"/>
      <point x="611" y="-316" type="line"/>
    </contour>
  </outline>
</glyph>
<glyph name="backslash" format="2">
  <advance width="1074"/>
  <unicode hex="005C"/>
  <outline>
    <contour>
      <point x="44" y="1428" type="line"/>
      <point x="842" y="0" type="line"/>
      <point x="1033" y="0" type="line"/>
      <point x="232" y="1428" type="line"/>
    </contour>
  </outline>
</glyph>
<glyph name="bracketright" format="2">
  <advance width="666"/>
  <unicode hex="005D"/>
  <outline>
    <contour>
      <point x="55" y="-316" type="line"/>
      <point x="490" y="-316" type="line"/>
      <point x="490" y="1428" type="line"/>
      <point x="55" y="1428" type="line"/>
      <point x="55" y="1284" type="line"/>
      <point x="320" y="1284" type="line"/>
      <point x="320" y="-172" type="line"/>
      <point x="55" y="-172" type="line"/>
    </contour>
  </outline>
</glyph>
<glyph name="asciicircum" format="2">
  <advance width="1295"/>
  <unicode hex="005E"/>
  <outline>
    <contour>
      <point x="247" y="534" type="line"/>
      <point x="625" y="1252" type="line"/>
      <point x="1050" y="534" type="line"/>
      <point x="1212" y="534" type="line"/>
      <point x="677" y="1438" type="line"/>
      <point x="571" y="1438" type="line"/>
      <point x="83" y="534" type="line"/>
    </contour>
  </outline>
</glyph>
<glyph name="underscore" format="2">
  <advance width="1024"/>
  <unicode hex="005F"/>
  <outline>
    <contour>
      <point x="1029" y="-180" type="line"/>
      <point x="-5" y="-180" type="line"/>
      <point x="-5" y="-308" type="line"/>
      <point x="1029" y="-308" type="line"/>
    </contour>
  </outline>
</glyph>
<glyph name="grave" format="2">
  <advance width="1258"/>
  <unicode hex="0060"/>
  <outline>
    <contour>
      <point x="386" y="1532" type="line"/>
      <point x="386" y="1512" type="line"/>
      <point x="434" y="1438"/>
      <point x="622" y="1284"/>
      <point x="754" y="1212" type="curve"/>
      <point x="872" y="1212" type="line"/>
      <point x="872" y="1236" type="line"/>
      <point x="781" y="1310"/>
      <point x="668" y="1442"/>
      <point x="612" y="1532" type="curve"/>
    </contour>
  </outline>
</glyph>
<glyph name="b" format="2">
  <advance width="1289"/>
  <unicode hex="0062"/>
  <anchor x="677" y="0" name="bottom"/>
  <anchor x="711" y="1520" name="top"/>
  <anchor x="1073" y="1520" name="topright"/>
  <outline>
    <contour>
      <point x="363" y="1520" type="line"/>
      <point x="187" y="1520" type="line"/>
      <point x="187" y="0" type="line"/>
      <point x="313" y="0" type="line"/>
      <point x="349" y="136" type="line"/>
      <point x="363" y="136" type="line"/>
      <point x="426" y="50"/>
      <point x="535" y="-20" name=".hr01"/>
      <point x="709" y="-20" type="curve" smooth="yes"/>
      <point x="984" y="-20"/>
      <point x="1168" y="168"/>
      <point x="1168" y="536" type="curve" smooth="yes"/>
      <point x="1168" y="904"/>
      <point x="986" y="1090"/>
      <point x="709" y="1090" type="curve" smooth="yes"/>
      <point x="534" y="1090"/>
      <point x="426" y="1020"/>
      <point x="363" y="930" type="curve"/>
      <point x="353" y="930" type="line"/>
      <point x="357" y="974"/>
      <point x="363" y="1060"/>
      <point x="363" y="1150" type="curve" smooth="yes"/>
    </contour>
    <contour>
      <point x="681" y="944" type="curve" smooth="yes"/>
      <point x="887" y="944"/>
      <point x="986" y="808"/>
      <point x="986" y="538" type="curve" smooth="yes"/>
      <point x="986" y="272"/>
      <point x="888" y="126"/>
      <point x="685" y="126" type="curve" smooth="yes"/>
      <point x="437" y="126"/>
      <point x="363" y="270"/>
      <point x="363" y="534" type="curve" smooth="yes"/>
      <point x="363" y="542" type="line" smooth="yes"/>
      <point x="363" y="816"/>
      <point x="441" y="944"/>
    </contour>
  </outline>
</glyph>
<glyph name="c" format="2">
  <advance width="1049"/>
  <unicode hex="0063"/>
  <anchor x="615" y="0" name="bottom"/>
  <anchor x="626" y="1072" name="top"/>
  <anchor x="1009" y="1072" name="topright"/>
  <outline>
    <contour>
      <point x="660" y="-20" type="curve" smooth="yes"/>
      <point x="793" y="-20"/>
      <point x="881" y="0"/>
      <point x="959" y="38" type="curve"/>
      <point x="959" y="194" type="line"/>
      <point x="879" y="160"/>
      <point x="784" y="132"/>
      <point x="655" y="132" type="curve" smooth="yes"/>
      <point x="422" y="132"/>
      <point x="304" y="274"/>
      <point x="304" y="532" type="curve" smooth="yes"/>
      <point x="304" y="800"/>
      <point x="420" y="938"/>
      <point x="667" y="938" type="curve" smooth="yes"/>
      <point x="748" y="938"/>
      <point x="855" y="912"/>
      <point x="923" y="888" type="curve"/>
      <point x="977" y="1034" type="line"/>
      <point x="910" y="1066"/>
      <point x="789" y="1092"/>
      <point x="672" y="1092" type="curve" smooth="yes"/>
      <point x="356" y="1092"/>
      <point x="121" y="926"/>
      <point x="121" y="530" type="curve" smooth="yes"/>
      <point x="121" y="150"/>
      <point x="347" y="-20"/>
    </contour>
  </outline>
</glyph>
<glyph name="e" format="2">
  <advance width="1141"/>
  <unicode hex="0065"/>
  <anchor x="609" y="0" name="bottom"/>
  <anchor x="577" y="1072" name="top"/>
  <anchor x="1091" y="1072" name="topright"/>
  <outline>
    <contour>
      <point x="591" y="1092" type="curve" smooth="yes"/>
      <point x="310" y="1092"/>
      <point x="121" y="880"/>
      <point x="121" y="528" type="curve" smooth="yes"/>
      <point x="121" y="170"/>
      <point x="330" y="-20"/>
      <point x="633" y="-20" type="curve" smooth="yes"/>
      <point x="778" y="-20"/>
      <point x="873" y="2"/>
      <point x="982" y="50" type="curve"/>
      <point x="982" y="204" type="line"/>
      <point x="871" y="156"/>
      <point x="776" y="130"/>
      <point x="641" y="130" type="curve" smooth="yes"/>
      <point x="430" y="130"/>
      <point x="309" y="260"/>
      <point x="303" y="502" type="curve"/>
      <point x="1029" y="502" type="line"/>
      <point x="1029" y="608" type="line" smooth="yes"/>
      <point x="1029" y="900"/>
      <point x="863" y="1092"/>
    </contour>
    <contour>
      <point x="589" y="948" type="curve" smooth="yes"/>
      <point x="765" y="948"/>
      <point x="844" y="824"/>
      <point x="846" y="642" type="curve"/>
      <point x="307" y="642" type="line"/>
      <point x="325" y="834"/>
      <point x="424" y="948"/>
    </contour>
  </outline>
</glyph>
<glyph name="g" format="2">
  <advance width="1277"/>
  <unicode hex="0067"/>
  <anchor x="618" y="-480" name="bottom"/>
  <anchor x="615" y="1072" name="top"/>
  <anchor x="1142" y="1072" name="topright"/>
  <outline>
    <contour>
      <point x="572" y="1092" type="curve" smooth="yes"/>
      <point x="289" y="1092"/>
      <point x="121" y="876"/>
      <point x="121" y="534" type="curve" smooth="yes"/>
      <point x="121" y="184"/>
      <point x="289" y="-20"/>
      <point x="574" y="-20" type="curve" smooth="yes"/>
      <point x="723" y="-20"/>
      <point x="838" y="32"/>
      <point x="914" y="142" type="curve"/>
      <point x="923" y="142" type="line"/>
      <point x="921" y="118"/>
      <point x="917" y="42"/>
      <point x="917" y="10" type="curve" smooth="yes"/>
      <point x="917" y="-32" type="line" smooth="yes"/>
      <point x="917" y="-220"/>
      <point x="801" y="-334"/>
      <point x="613" y="-334" type="curve" smooth="yes"/>
      <point x="456" y="-334"/>
      <point x="312" y="-304"/>
      <point x="208" y="-250" type="curve"/>
      <point x="208" y="-412" type="line"/>
      <point x="312" y="-458"/>
      <point x="443" y="-480"/>
      <point x="602" y="-480" type="curve" smooth="yes"/>
      <point x="936" y="-480"/>
      <point x="1090" y="-324"/>
      <point x="1090" y="-18" type="curve" smooth="yes"/>
      <point x="1090" y="1072" type="line"/>
      <point x="951" y="1072" type="line"/>
      <point x="927" y="930" type="line"/>
      <point x="916" y="930" type="line"/>
      <point x="834" y="1040"/>
      <point x="715" y="1092"/>
    </contour>
    <contour>
      <point x="594" y="944" type="curve" smooth="yes"/>
      <point x="817" y="944"/>
      <point x="918" y="826"/>
      <point x="918" y="534" type="curve" smooth="yes"/>
      <point x="918" y="492" type="line" smooth="yes"/>
      <point x="918" y="234"/>
      <point x="821" y="124"/>
      <point x="598" y="124" type="curve" smooth="yes"/>
      <point x="405" y="124"/>
      <point x="304" y="268"/>
      <point x="304" y="532" type="curve" smooth="yes"/>
      <point x="304" y="796"/>
      <point x="409" y="944"/>
    </contour>
  </outline>
</glyph>
<glyph name="h" format="2">
  <advance width="1271"/>
  <unicode hex="0068"/>
  <anchor x="638" y="0" name="bottom"/>
  <anchor x="636" y="536" name="center"/>
  <anchor x="277" y="1520" name="top"/>
  <anchor x="1089" y="1520" name="topright"/>
  <outline>
    <contour>
      <point x="363" y="1520" type="line"/>
      <point x="187" y="1520" type="line"/>
      <point x="187" y="0" type="line"/>
      <point x="363" y="0" type="line"/>
      <point x="363" y="554" type="line" smooth="yes"/>
      <point x="363" y="804"/>
      <point x="438" y="944"/>
      <point x="679" y="944" type="curve" smooth="yes"/>
      <point x="843" y="944"/>
      <point x="920" y="858"/>
      <point x="920" y="686" type="curve" smooth="yes"/>
      <point x="920" y="0" type="line"/>
      <point x="1093" y="0" type="line"/>
      <point x="1093" y="698" type="line" smooth="yes"/>
      <point x="1093" y="972"/>
      <point x="961" y="1090"/>
      <point x="700" y="1090" type="curve" smooth="yes"/>
      <point x="562" y="1090"/>
      <point x="434" y="1034"/>
      <point x="366" y="924" type="curve"/>
      <point x="353" y="924" type="line"/>
      <point x="359" y="966"/>
      <point x="363" y="1022"/>
      <point x="363" y="1074" type="curve" smooth="yes"/>
    </contour>
  </outline>
</glyph>
<glyph name="i" format="2">
  <advance width="592"/>
  <unicode hex="0069"/>
  <anchor x="301" y="0" name="bottom"/>
  <anchor x="295" y="1474" name="top"/>
  <anchor x="594" y="1474" name="topright"/>
  <outline>
    <contour>
      <point x="208" y="1072" type="line"/>
      <point x="208" y="0" type="line"/>
      <point x="384" y="0" type="line"/>
      <point x="384" y="1072" type="line"/>
    </contour>
    <contour>
      <point x="299" y="1474" type="curve" smooth="yes"/>
      <point x="235" y="1474"/>
      <point x="185" y="1440"/>
      <point x="185" y="1362" type="curve" smooth="yes"/>
      <point x="185" y="1286"/>
      <point x="235" y="1250"/>
      <point x="299" y="1250" type="curve" smooth="yes"/>
      <point x="356" y="1250"/>
      <point x="409" y="1286"/>
      <point x="409" y="1362" type="curve" smooth="yes"/>
      <point x="409" y="1440"/>
      <point x="356" y="1474"/>
    </contour>
  </outline>
</glyph>
<glyph name="k" format="2">
  <advance width="1197"/>
  <unicode hex="006B"/>
  <anchor x="592" y="0" name="bottom"/>
  <anchor x="275" y="1520" name="top"/>
  <anchor x="827" y="1680" name="topright"/>
  <outline>
    <contour>
      <point x="360" y="1520" type="line"/>
      <point x="187" y="1520" type="line"/>
      <point x="187" y="0" type="line"/>
      <point x="360" y="0" type="line"/>
      <point x="360" y="394" type="line"/>
      <point x="504" y="500" type="line"/>
      <point x="963" y="0" type="line"/>
      <point x="1178" y="0" type="line"/>
      <point x="623" y="614" type="line"/>
      <point x="1142" y="1072" type="line"/>
      <point x="933" y="1072" type="line"/>
      <point x="515" y="710" type="line"/>
      <point x="472" y="670"/>
      <point x="390" y="584"/>
      <point x="363" y="552" type="curve"/>
      <point x="353" y="552" type="line"/>
      <point x="354" y="602"/>
      <point x="360" y="684"/>
      <point x="360" y="726" type="curve" smooth="yes"/>
    </contour>
  </outline>
</glyph>
<glyph name="l" format="2">
  <advance width="592"/>
  <unicode hex="006C"/>
  <anchor x="295" y="0" name="bottom"/>
  <anchor x="295" y="536" name="center"/>
  <anchor x="295" y="1520" name="top"/>
  <anchor x="478" y="1520" name="topright"/>
  <outline>
    <contour>
      <point x="384" y="1520" type="line"/>
      <point x="208" y="1520" type="line"/>
      <point x="208" y="0" type="line"/>
      <point x="384" y="0" type="line"/>
    </contour>
  </outline>
</glyph>
<glyph name="m" format="2">
  <advance width="1912"/>
  <unicode hex="006D"/>
  <anchor x="964" y="0" name="bottom"/>
  <anchor x="980" y="1072" name="top"/>
  <anchor x="1797" y="1072" name="topright"/>
  <outline>
    <contour>
      <point x="1370" y="1092" type="curve" smooth="yes"/>
      <point x="1229" y="1092"/>
      <point x="1096" y="1034"/>
      <point x="1024" y="912" type="curve"/>
      <point x="1014" y="912" type="line"/>
      <point x="962" y="1034"/>
      <point x="849" y="1092"/>
      <point x="684" y="1092" type="curve" smooth="yes"/>
      <point x="555" y="1092"/>
      <point x="432" y="1038"/>
      <point x="366" y="926" type="curve"/>
      <point x="356" y="926" type="line"/>
      <point x="330" y="1072" type="line"/>
      <point x="187" y="1072" type="line"/>
      <point x="187" y="0" type="line"/>
      <point x="363" y="0" type="line"/>
      <point x="363" y="556" type="line" smooth="yes"/>
      <point x="363" y="806"/>
      <point x="434" y="944"/>
      <point x="652" y="944" type="curve" smooth="yes"/>
      <point x="803" y="944"/>
      <point x="874" y="858"/>
      <point x="874" y="690" type="curve" smooth="yes"/>
      <point x="874" y="0" type="line"/>
      <point x="1048" y="0" type="line"/>
      <point x="1048" y="592" type="line" smooth="yes"/>
      <point x="1048" y="820"/>
      <point x="1131" y="944"/>
      <point x="1341" y="944" type="curve" smooth="yes"/>
      <point x="1490" y="944"/>
      <point x="1561" y="858"/>
      <point x="1561" y="690" type="curve" smooth="yes"/>
      <point x="1561" y="0" type="line"/>
      <point x="1734" y="0" type="line"/>
      <point x="1734" y="698" type="line" smooth="yes"/>
      <point x="1734" y="974"/>
      <point x="1614" y="1092"/>
    </contour>
  </outline>
</glyph>
<glyph name="n" format="2">
  <advance width="1271"/>
  <unicode hex="006E"/>
  <anchor x="636" y="0" name="bottom"/>
  <anchor x="636" y="1072" name="top"/>
  <anchor x="1144" y="1072" name="topright"/>
  <outline>
    <contour>
      <point x="704" y="1092" type="curve" smooth="yes"/>
      <point x="568" y="1092"/>
      <point x="436" y="1038"/>
      <point x="366" y="926" type="curve"/>
      <point x="356" y="926" type="line"/>
      <point x="330" y="1072" type="line"/>
      <point x="187" y="1072" type="line"/>
      <point x="187" y="0" type="line"/>
      <point x="363" y="0" type="line"/>
      <point x="363" y="556" type="line" smooth="yes"/>
      <point x="363" y="806"/>
      <point x="440" y="944"/>
      <point x="679" y="944" type="curve" smooth="yes"/>
      <point x="843" y="944"/>
      <point x="920" y="858"/>
      <point x="920" y="686" type="curve" smooth="yes"/>
      <point x="920" y="0" type="line"/>
      <point x="1093" y="0" type="line"/>
      <point x="1093" y="698" type="line" smooth="yes"/>
      <point x="1093" y="974"/>
      <point x="961" y="1092"/>
    </contour>
  </outline>
</glyph>
<glyph name="q" format="2">
  <advance width="1289"/>
  <unicode hex="0071"/>
  <anchor x="1015" y="-480" name="bottom"/>
  <anchor x="644" y="1072" name="top"/>
  <anchor x="1154" y="1072" name="topright"/>
  <outline>
    <contour>
      <point x="926" y="-480" type="line"/>
      <point x="1102" y="-480" type="line"/>
      <point x="1102" y="1072" type="line"/>
      <point x="963" y="1072" type="line"/>
      <point x="936" y="926" type="line"/>
      <point x="928" y="926" type="line"/>
      <point x="862" y="1018"/>
      <point x="756" y="1092"/>
      <point x="581" y="1092" type="curve" smooth="yes"/>
      <point x="309" y="1092"/>
      <point x="121" y="902"/>
      <point x="121" y="534" type="curve" smooth="yes"/>
      <point x="121" y="166"/>
      <point x="304" y="-20"/>
      <point x="575" y="-20" type="curve" smooth="yes"/>
      <point x="751" y="-20"/>
      <point x="860" y="52"/>
      <point x="924" y="144" type="curve"/>
      <point x="937" y="144" type="line"/>
      <point x="928" y="98"/>
      <point x="926" y="26"/>
      <point x="926" y="-22" type="curve" smooth="yes"/>
    </contour>
    <contour>
      <point x="606" y="126" type="curve" smooth="yes"/>
      <point x="400" y="126"/>
      <point x="304" y="276"/>
      <point x="304" y="530" type="curve" smooth="yes"/>
      <point x="304" y="784"/>
      <point x="400" y="946"/>
      <point x="602" y="946" type="curve" smooth="yes"/>
      <point x="846" y="946"/>
      <point x="928" y="804"/>
      <point x="928" y="532" type="curve" smooth="yes"/>
      <point x="928" y="496" type="line"/>
      <point x="927" y="246"/>
      <point x="837" y="126"/>
    </contour>
  </outline>
</glyph>
<glyph name="t" format="2">
  <advance width="766"/>
  <unicode hex="0074"/>
  <anchor x="455" y="0" name="bottom"/>
  <anchor x="385" y="536" name="center"/>
  <anchor x="325" y="1318" name="top"/>
  <anchor x="473" y="1680" name="topright"/>
  <outline>
    <contour>
      <point x="560" y="124" type="curve" smooth="yes"/>
      <point x="453" y="124"/>
      <point x="376" y="186"/>
      <point x="376" y="316" type="curve" smooth="yes"/>
      <point x="376" y="936" type="line"/>
      <point x="710" y="936" type="line"/>
      <point x="710" y="1072" type="line"/>
      <point x="376" y="1072" type="line"/>
      <point x="376" y="1318" type="line"/>
      <point x="273" y="1318" type="line"/>
      <point x="200" y="1090" type="line"/>
      <point x="35" y="1020" type="line"/>
      <point x="35" y="936" type="line"/>
      <point x="200" y="936" type="line"/>
      <point x="200" y="312" type="line" smooth="yes"/>
      <point x="200" y="52"/>
      <point x="356" y="-20"/>
      <point x="533" y="-20" type="curve" smooth="yes"/>
      <point x="597" y="-20"/>
      <point x="680" y="-6"/>
      <point x="718" y="12" type="curve"/>
      <point x="718" y="146" type="line"/>
      <point x="684" y="134"/>
      <point x="614" y="124"/>
    </contour>
  </outline>
</glyph>
<glyph name="u" format="2">
  <advance width="1271"/>
  <unicode hex="0075"/>
  <anchor x="605" y="0" name="bottom"/>
  <anchor x="635" y="1072" name="top"/>
  <anchor x="1143" y="1072" name="topright"/>
  <outline>
    <contour>
      <point x="908" y="1072" type="line"/>
      <point x="908" y="514" type="line" smooth="yes"/>
      <point x="908" y="264"/>
      <point x="830" y="126"/>
      <point x="591" y="126" type="curve" smooth="yes"/>
      <point x="428" y="126"/>
      <point x="352" y="210"/>
      <point x="352" y="382" type="curve" smooth="yes"/>
      <point x="352" y="1072" type="line"/>
      <point x="173" y="1072" type="line"/>
      <point x="173" y="370" type="line" smooth="yes"/>
      <point x="173" y="98"/>
      <point x="306" y="-20"/>
      <point x="565" y="-20" type="curve" smooth="yes"/>
      <point x="704" y="-20"/>
      <point x="836" y="30"/>
      <point x="906" y="142" type="curve"/>
      <point x="914" y="142" type="line"/>
      <point x="940" y="0" type="line" name=".hr01"/>
      <point x="1084" y="0" type="line"/>
      <point x="1084" y="1072" type="line"/>
    </contour>
  </outline>
</glyph>
<glyph name="v" format="2">
  <advance width="1060"/>
  <unicode hex="0076"/>
  <anchor x="526" y="0" name="bottom"/>
  <anchor x="526" y="1072" name="top"/>
  <anchor x="1018" y="1072" name="topright"/>
  <outline>
    <contour>
      <point x="632" y="0" type="line"/>
      <point x="1060" y="1072" type="line"/>
      <point x="872" y="1072" type="line"/>
      <point x="631" y="440" type="line" smooth="yes"/>
      <point x="598" y="354"/>
      <point x="548" y="222"/>
      <point x="533" y="156" type="curve"/>
      <point x="524" y="156" type="line"/>
      <point x="511" y="222"/>
      <point x="466" y="352"/>
      <point x="431" y="440" type="curve" smooth="yes"/>
      <point x="189" y="1072" type="line"/>
      <point x="0" y="1072" type="line"/>
      <point x="427" y="0" type="line"/>
    </contour>
  </outline>
</glyph>
<glyph name="w" format="2">
  <advance width="1578"/>
  <unicode hex="0077"/>
  <anchor x="785" y="0" name="bottom"/>
  <anchor x="790" y="1072" name="top"/>
  <anchor x="1536" y="1072" name="topright"/>
  <outline>
    <contour>
      <point x="1050" y="2" type="line"/>
      <point x="1256" y="2" type="line"/>
      <point x="1554" y="1074" type="line"/>
      <point x="1374" y="1074" type="line"/>
      <point x="1224" y="502" type="line" smooth="yes"/>
      <point x="1192" y="380"/>
      <point x="1160" y="250"/>
      <point x="1152" y="184" type="curve"/>
      <point x="1144" y="184" type="line"/>
      <point x="1134" y="260"/>
      <point x="1100" y="378"/>
      <point x="1072" y="470" type="curve" smooth="yes"/>
      <point x="887" y="1074" type="line"/>
      <point x="696" y="1074" type="line"/>
      <point x="505" y="470" type="line" smooth="yes"/>
      <point x="477" y="382"/>
      <point x="447" y="248"/>
      <point x="433" y="182" type="curve"/>
      <point x="425" y="182" type="line"/>
      <point x="415" y="258"/>
      <point x="385" y="386"/>
      <point x="355" y="502" type="curve" smooth="yes"/>
      <point x="207" y="1074" type="line"/>
      <point x="24" y="1074" type="line"/>
      <point x="319" y="2" type="line"/>
      <point x="519" y="2" type="line"/>
      <point x="711" y="604" type="line" smooth="yes"/>
      <point x="747" y="715"/>
      <point x="773" y="830"/>
      <point x="783" y="890" type="curve"/>
      <point x="792" y="890" type="line"/>
      <point x="804" y="830"/>
      <point x="832" y="716"/>
      <point x="866" y="606" type="curve" smooth="yes"/>
    </contour>
  </outline>
</glyph>
<glyph name="y" format="2">
  <advance width="1070"/>
  <unicode hex="0079"/>
  <anchor x="195" y="-480" name="bottom"/>
  <anchor x="536" y="1072" name="top"/>
  <anchor x="1028" y="1072" name="topright"/>
  <outline>
    <contour>
      <point x="460" y="-4" type="line"/>
      <point x="398" y="-146" type="line"/>
      <point x="350" y="-262"/>
      <point x="274" y="-336"/>
      <point x="145" y="-336" type="curve" smooth="yes"/>
      <point x="96" y="-336"/>
      <point x="50" y="-330"/>
      <point x="20" y="-324" type="curve"/>
      <point x="20" y="-464" type="line"/>
      <point x="56" y="-472"/>
      <point x="107" y="-480"/>
      <point x="174" y="-480" type="curve" smooth="yes"/>
      <point x="390" y="-480"/>
      <point x="501" y="-350"/>
      <point x="580" y="-148" type="curve" smooth="yes"/>
      <point x="1070" y="1072" type="line"/>
      <point x="879" y="1072" type="line"/>
      <point x="647" y="464" type="line"/>
      <point x="605" y="354"/>
      <point x="564" y="236"/>
      <point x="546" y="170" type="curve"/>
      <point x="538" y="170" type="line"/>
      <point x="520" y="258"/>
      <point x="484" y="354"/>
      <point x="439" y="462" type="curve"/>
      <point x="191" y="1072" type="line"/>
      <point x="3" y="1072" type="line"/>
    </contour>
  </outline>
</glyph>
<glyph name="z" format="2">
  <advance width="1174"/>
  <unicode hex="007A"/>
  <anchor x="609" y="0" name="bottom"/>
  <anchor x="587" y="1072" name="top"/>
  <anchor x="1089" y="1072" name="topright"/>
  <outline>
    <contour>
      <point x="1089" y="136" type="line"/>
      <point x="283" y="136" type="line"/>
      <point x="1073" y="940" type="line"/>
      <point x="1073" y="1072" type="line"/>
      <point x="133" y="1072" type="line"/>
      <point x="133" y="936" type="line"/>
      <point x="883" y="936" type="line"/>
      <point x="85" y="116" type="line"/>
      <point x="85" y="0" type="line"/>
      <point x="1089" y="0" type="line"/>
    </contour>
  </outline>
</glyph>
<glyph name="braceright" format="2">
  <advance width="666"/>
  <unicode hex="007D"/>
  <outline>
    <contour>
      <point x="70" y="-316" type="line"/>
      <point x="288" y="-316"/>
      <point x="409" y="-212"/>
      <point x="409" y="0" type="curve" smooth="yes"/>
      <point x="409" y="298" type="line" smooth="yes"/>
      <point x="409" y="432"/>
      <point x="483" y="482"/>
      <point x="605" y="484" type="curve"/>
      <point x="605" y="630" type="line"/>
      <point x="483" y="630"/>
      <point x="409" y="682"/>
      <point x="409" y="818" type="curve" smooth="yes"/>
      <point x="409" y="1110" type="line" smooth="yes"/>
      <point x="409" y="1324"/>
      <point x="298" y="1426"/>
      <point x="70" y="1428" type="curve"/>
      <point x="70" y="1284" type="line"/>
      <point x="176" y="1282"/>
      <point x="244" y="1228"/>
      <point x="244" y="1098" type="curve" smooth="yes"/>
      <point x="244" y="806" type="line" smooth="yes"/>
      <point x="244" y="670"/>
      <point x="304" y="588"/>
      <point x="423" y="562" type="curve"/>
      <point x="423" y="550" type="line"/>
      <point x="304" y="524"/>
      <point x="244" y="442"/>
      <point x="244" y="306" type="curve" smooth="yes"/>
      <point x="244" y="16" type="line" smooth="yes"/>
      <point x="244" y="-114"/>
      <point x="173" y="-168"/>
      <point x="70" y="-172" type="curve"/>
    </contour>
  </outline>
</glyph>
<glyph name="asciitilde" format="2">
  <advance width="1295"/>
  <unicode hex="007E"/>
  <outline>
    <contour>
      <point x="610" y="638" type="curve" smooth="yes"/>
      <point x="746" y="586"/>
      <point x="824" y="574"/>
      <point x="911" y="574" type="curve" smooth="yes"/>
      <point x="1020" y="574"/>
      <point x="1111" y="612"/>
      <point x="1183" y="682" type="curve"/>
      <point x="1183" y="836" type="line" name=".hr01"/>
      <point x="1111" y="770"/>
      <point x="1009" y="718" name=".hr02"/>
      <point x="920" y="718" type="curve" smooth="yes"/>
      <point x="856" y="718"/>
      <point x="794" y="730"/>
      <point x="684" y="772" type="curve" smooth="yes"/>
      <point x="545" y="824"/>
      <point x="470" y="836" name=".hr03"/>
      <point x="383" y="836" type="curve" smooth="yes"/>
      <point x="275" y="836"/>
      <point x="183" y="800"/>
      <point x="110" y="730" type="curve"/>
      <point x="110" y="574" type="line" name=".hr04"/>
      <point x="183" y="640"/>
      <point x="287" y="692" name=".hr05"/>
      <point x="372" y="692" type="curve" smooth="yes"/>
      <point x="438" y="692"/>
      <point x="500" y="680"/>
    </contour>
  </outline>
</glyph>
<glyph name="exclamdown" format="2">
  <advance width="648"/>
  <unicode hex="00A1"/>
  <outline>
    <contour>
      <point x="203" y="-364" type="line"/>
      <point x="439" y="-364" type="line"/>
      <point x="364" y="660" type="line"/>
      <point x="278" y="660" type="line"/>
    </contour>
    <contour>
      <point x="475" y="956" type="curve" smooth="yes"/>
      <point x="475" y="1052"/>
      <point x="407" y="1092"/>
      <point x="324" y="1092" type="curve" smooth="yes"/>
      <point x="240" y="1092"/>
      <point x="172" y="1052"/>
      <point x="172" y="956" type="curve" smooth="yes"/>
      <point x="172" y="856"/>
      <point x="240" y="822"/>
      <point x="324" y="822" type="curve" smooth="yes"/>
      <point x="407" y="822"/>
      <point x="475" y="856"/>
    </contour>
  </outline>
</glyph>
<glyph name="cent" format="2">
  <advance width="1295"/>
  <unicode hex="00A2"/>
  <outline>
    <contour>
      <point x="802" y="1448" type="line" name=".hr02"/>
      <point x="651" y="1448" type="line"/>
      <point x="651" y="1280" type="line"/>
      <point x="379" y="1244"/>
      <point x="200" y="1088"/>
      <point x="200" y="724" type="curve" smooth="yes"/>
      <point x="200" y="366"/>
      <point x="378" y="216"/>
      <point x="651" y="180" type="curve"/>
      <point x="651" y="-20" type="line"/>
      <point x="799" y="-20" type="line"/>
      <point x="799" y="174" type="line" name=".hr01"/>
      <point x="920" y="178"/>
      <point x="1002" y="198"/>
      <point x="1086" y="234" type="curve"/>
      <point x="1086" y="388" type="line"/>
      <point x="992" y="354"/>
      <point x="901" y="328"/>
      <point x="763" y="328" type="curve" smooth="yes"/>
      <point x="510" y="328"/>
      <point x="381" y="448"/>
      <point x="381" y="726" type="curve" smooth="yes"/>
      <point x="381" y="1002"/>
      <point x="502" y="1136"/>
      <point x="774" y="1136" type="curve" smooth="yes"/>
      <point x="857" y="1136"/>
      <point x="973" y="1110"/>
      <point x="1052" y="1084" type="curve"/>
      <point x="1104" y="1230" type="line"/>
      <point x="1031" y="1260"/>
      <point x="917" y="1284"/>
      <point x="802" y="1288" type="curve"/>
    </contour>
  </outline>
</glyph>
<glyph name="sterling" format="2">
  <advance width="1295"/>
  <unicode hex="00A3"/>
  <outline>
    <contour>
      <point x="760" y="1446" type="curve" smooth="yes"/>
      <point x="481" y="1446"/>
      <point x="301" y="1306"/>
      <point x="301" y="1068" type="curve" smooth="yes"/>
      <point x="301" y="772" type="line"/>
      <point x="78" y="772" type="line"/>
      <point x="78" y="640" type="line"/>
      <point x="301" y="640" type="line"/>
      <point x="301" y="430" type="line" smooth="yes"/>
      <point x="301" y="254"/>
      <point x="202" y="176"/>
      <point x="70" y="148" type="curve"/>
      <point x="70" y="0" type="line"/>
      <point x="1214" y="0" type="line"/>
      <point x="1214" y="160" type="line"/>
      <point x="325" y="160" type="line"/>
      <point x="405" y="202"/>
      <point x="478" y="270"/>
      <point x="478" y="432" type="curve" smooth="yes"/>
      <point x="478" y="640" type="line"/>
      <point x="952" y="640" type="line"/>
      <point x="952" y="772" type="line"/>
      <point x="478" y="772" type="line"/>
      <point x="478" y="1050" type="line" smooth="yes"/>
      <point x="478" y="1226"/>
      <point x="576" y="1300"/>
      <point x="760" y="1300" type="curve" smooth="yes"/>
      <point x="889" y="1300"/>
      <point x="1005" y="1262"/>
      <point x="1093" y="1224" type="curve"/>
      <point x="1158" y="1364" type="line"/>
      <point x="1056" y="1410"/>
      <point x="927" y="1446"/>
    </contour>
  </outline>
</glyph>
<glyph name="currency" format="2">
  <advance width="1296"/>
  <unicode hex="00A4"/>
  <outline>
    <contour>
      <point x="198" y="706" type="curve" smooth="yes"/>
      <point x="198" y="624"/>
      <point x="232" y="546"/>
      <point x="282" y="484" type="curve"/>
      <point x="132" y="352" type="line"/>
      <point x="232" y="258" type="line"/>
      <point x="385" y="386" type="line"/>
      <point x="455" y="342"/>
      <point x="550" y="316"/>
      <point x="649" y="316" type="curve" smooth="yes"/>
      <point x="745" y="316"/>
      <point x="835" y="342"/>
      <point x="907" y="384" type="curve"/>
      <point x="1063" y="256" type="line"/>
      <point x="1161" y="350" type="line"/>
      <point x="1015" y="482" type="line"/>
      <point x="1068" y="544"/>
      <point x="1099" y="624"/>
      <point x="1099" y="706" type="curve" smooth="yes"/>
      <point x="1099" y="788"/>
      <point x="1063" y="866"/>
      <point x="1015" y="928" type="curve"/>
      <point x="1162" y="1062" type="line"/>
      <point x="1063" y="1156" type="line"/>
      <point x="907" y="1028" type="line"/>
      <point x="833" y="1072"/>
      <point x="745" y="1098"/>
      <point x="649" y="1098" type="curve" smooth="yes"/>
      <point x="549" y="1098"/>
      <point x="458" y="1072"/>
      <point x="385" y="1028" type="curve"/>
      <point x="232" y="1156" type="line"/>
      <point x="129" y="1062" type="line"/>
      <point x="282" y="926" type="line"/>
      <point x="232" y="864"/>
      <point x="198" y="786"/>
    </contour>
    <contour>
      <point x="337" y="706" type="curve" smooth="yes"/>
      <point x="337" y="852"/>
      <point x="475" y="968"/>
      <point x="649" y="968" type="curve" smooth="yes"/>
      <point x="825" y="968"/>
      <point x="963" y="852"/>
      <point x="963" y="706" type="curve" smooth="yes"/>
      <point x="963" y="562"/>
      <point x="825" y="448"/>
      <point x="649" y="448" type="curve" smooth="yes"/>
      <point x="475" y="448"/>
      <point x="337" y="562"/>
    </contour>
  </outline>
</glyph>
<glyph name="yen" format="2">
  <advance width="1295"/>
  <unicode hex="00A5"/>
  <outline>
    <contour>
      <point x="218" y="1428" type="line"/>
      <point x="30" y="1428" type="line"/>
      <point x="492" y="678" type="line"/>
      <point x="206" y="678" type="line"/>
      <point x="206" y="550" type="line"/>
      <point x="558" y="550" type="line"/>
      <point x="558" y="386" type="line"/>
      <point x="206" y="386" type="line"/>
      <point x="206" y="258" type="line"/>
      <point x="558" y="258" type="line"/>
      <point x="558" y="0" type="line"/>
      <point x="732" y="0" type="line"/>
      <point x="732" y="258" type="line"/>
      <point x="1086" y="258" type="line"/>
      <point x="1086" y="386" type="line"/>
      <point x="732" y="386" type="line"/>
      <point x="732" y="550" type="line"/>
      <point x="1086" y="550" type="line"/>
      <point x="1086" y="678" type="line"/>
      <point x="795" y="678" type="line"/>
      <point x="1260" y="1428" type="line"/>
      <point x="1075" y="1428" type="line"/>
      <point x="646" y="730" type="line"/>
    </contour>
  </outline>
</glyph>
<glyph name="section" format="2">
  <advance width="1295"/>
  <unicode hex="00A7"/>
  <outline>
    <contour>
      <point x="158" y="790" type="curve" smooth="yes"/>
      <point x="158" y="614"/>
      <point x="314" y="538"/>
      <point x="597" y="462" type="curve"/>
      <point x="904" y="378"/>
      <point x="961" y="340"/>
      <point x="961" y="266" type="curve" smooth="yes"/>
      <point x="961" y="190"/>
      <point x="872" y="124"/>
      <point x="585" y="124" type="curve" smooth="yes"/>
      <point x="410" y="124"/>
      <point x="235" y="166"/>
      <point x="129" y="206" type="curve"/>
      <point x="129" y="56" type="line"/>
      <point x="237" y="14"/>
      <point x="375" y="-10"/>
      <point x="573" y="-10" type="curve" smooth="yes"/>
      <point x="931" y="-10"/>
      <point x="1150" y="96"/>
      <point x="1150" y="280" type="curve" smooth="yes"/>
      <point x="1150" y="382"/>
      <point x="1077" y="450"/>
      <point x="948" y="500" type="curve"/>
      <point x="1052" y="546"/>
      <point x="1147" y="630"/>
      <point x="1147" y="766" type="curve" smooth="yes"/>
      <point x="1147" y="926"/>
      <point x="982" y="1010"/>
      <point x="717" y="1086" type="curve"/>
      <point x="430" y="1160"/>
      <point x="344" y="1202"/>
      <point x="344" y="1276" type="curve" smooth="yes"/>
      <point x="344" y="1350"/>
      <point x="425" y="1394"/>
      <point x="661" y="1394" type="curve" smooth="yes"/>
      <point x="842" y="1394"/>
      <point x="942" y="1364"/>
      <point x="1065" y="1328" type="curve"/>
      <point x="1124" y="1462" type="line"/>
      <point x="993" y="1502"/>
      <point x="881" y="1530"/>
      <point x="680" y="1530" type="curve" smooth="yes"/>
      <point x="345" y="1530"/>
      <point x="161" y="1432"/>
      <point x="161" y="1272" type="curve" smooth="yes"/>
      <point x="161" y="1164"/>
      <point x="237" y="1094"/>
      <point x="365" y="1042" type="curve"/>
      <point x="256" y="1002"/>
      <point x="158" y="922"/>
    </contour>
    <contour>
      <point x="319" y="810" type="curve" smooth="yes"/>
      <point x="319" y="898"/>
      <point x="422" y="962"/>
      <point x="533" y="982" type="curve"/>
      <point x="886" y="904"/>
      <point x="983" y="840"/>
      <point x="983" y="740" type="curve" smooth="yes"/>
      <point x="983" y="650"/>
      <point x="884" y="594"/>
      <point x="790" y="558" type="curve"/>
      <point x="727" y="574" type="line" smooth="yes"/>
      <point x="419" y="652" name=".hr01"/>
      <point x="319" y="712"/>
    </contour>
  </outline>
</glyph>
<glyph name="dieresis" format="2">
  <advance width="1258"/>
  <unicode hex="00A8"/>
  <outline>
    <contour>
      <point x="327" y="1362" type="curve" smooth="yes"/>
      <point x="327" y="1294"/>
      <point x="371" y="1262"/>
      <point x="425" y="1262" type="curve" smooth="yes"/>
      <point x="477" y="1262"/>
      <point x="522" y="1294"/>
      <point x="522" y="1362" type="curve" smooth="yes"/>
      <point x="522" y="1432"/>
      <point x="477" y="1460"/>
      <point x="425" y="1460" type="curve" smooth="yes"/>
      <point x="371" y="1460"/>
      <point x="327" y="1432"/>
    </contour>
    <contour>
      <point x="736" y="1362" type="curve" smooth="yes"/>
      <point x="736" y="1294"/>
      <point x="780" y="1262"/>
      <point x="831" y="1262" type="curve" smooth="yes"/>
      <point x="883" y="1262"/>
      <point x="928" y="1294"/>
      <point x="928" y="1362" type="curve" smooth="yes"/>
      <point x="928" y="1432"/>
      <point x="883" y="1460"/>
      <point x="831" y="1460" type="curve" smooth="yes"/>
      <point x="780" y="1460"/>
      <point x="736" y="1432"/>
    </contour>
  </outline>
</glyph>
<glyph name="guillemetleft" format="2">
  <advance width="1073"/>
  <unicode hex="00AB"/>
  <outline>
    <contour>
      <point x="88" y="514" type="line"/>
      <point x="446" y="112" type="line"/>
      <point x="572" y="186" type="line"/>
      <point x="271" y="528" type="line"/>
      <point x="572" y="870" type="line"/>
      <point x="446" y="942" type="line"/>
      <point x="88" y="540" type="line"/>
    </contour>
    <contour>
      <point x="503" y="514" type="line"/>
      <point x="865" y="112" type="line"/>
      <point x="988" y="186" type="line"/>
      <point x="688" y="528" type="line"/>
      <point x="988" y="870" type="line"/>
      <point x="865" y="942" type="line"/>
      <point x="503" y="540" type="line"/>
    </contour>
  </outline>
</glyph>
<glyph name="registered" format="2">
  <advance width="1752"/>
  <unicode hex="00AE"/>
  <outline>
    <contour>
      <point x="746" y="276" type="line"/>
      <point x="746" y="622" type="line"/>
      <point x="880" y="622" type="line"/>
      <point x="1091" y="276" type="line"/>
      <point x="1268" y="276" type="line"/>
      <point x="1023" y="664" type="line"/>
      <point x="1107" y="696"/>
      <point x="1187" y="766"/>
      <point x="1187" y="892" type="curve" smooth="yes"/>
      <point x="1187" y="1064"/>
      <point x="1085" y="1150"/>
      <point x="859" y="1150" type="curve" smooth="yes"/>
      <point x="591" y="1150" type="line"/>
      <point x="591" y="276" type="line"/>
    </contour>
    <contour>
      <point x="746" y="746" type="line"/>
      <point x="746" y="1022" type="line"/>
      <point x="852" y="1022" type="line" smooth="yes"/>
      <point x="975" y="1022"/>
      <point x="1030" y="982"/>
      <point x="1030" y="888" type="curve" smooth="yes"/>
      <point x="1030" y="804"/>
      <point x="965" y="746"/>
      <point x="854" y="746" type="curve" smooth="yes"/>
    </contour>
    <contour>
      <point x="876" y="-20" type="curve" smooth="yes"/>
      <point x="1323" y="-20"/>
      <point x="1645" y="288"/>
      <point x="1645" y="714" type="curve" smooth="yes"/>
      <point x="1645" y="1140"/>
      <point x="1301" y="1448"/>
      <point x="876" y="1448" type="curve" smooth="yes"/>
      <point x="430" y="1448"/>
      <point x="107" y="1140"/>
      <point x="107" y="714" type="curve" smooth="yes"/>
      <point x="107" y="288"/>
      <point x="430" y="-20"/>
    </contour>
    <contour>
      <point x="876" y="86" type="curve" smooth="yes"/>
      <point x="496" y="86"/>
      <point x="222" y="368"/>
      <point x="222" y="714" type="curve" smooth="yes"/>
      <point x="222" y="1080"/>
      <point x="496" y="1342"/>
      <point x="876" y="1342" type="curve" smooth="yes"/>
      <point x="1257" y="1342"/>
      <point x="1529" y="1060"/>
      <point x="1529" y="714" type="curve" smooth="yes"/>
      <point x="1529" y="348"/>
      <point x="1235" y="86"/>
    </contour>
  </outline>
</glyph>
<glyph name="degree" format="2">
  <advance width="888"/>
  <unicode hex="00B0"/>
  <outline>
    <contour>
      <point x="444" y="834" type="curve" smooth="yes"/>
      <point x="636" y="834"/>
      <point x="767" y="958"/>
      <point x="767" y="1140" type="curve" smooth="yes"/>
      <point x="767" y="1322"/>
      <point x="636" y="1448"/>
      <point x="444" y="1448" type="curve" smooth="yes"/>
      <point x="245" y="1448"/>
      <point x="121" y="1322"/>
      <point x="121" y="1140" type="curve" smooth="yes"/>
      <point x="121" y="958"/>
      <point x="249" y="834"/>
    </contour>
    <contour>
      <point x="447" y="952" type="curve" smooth="yes"/>
      <point x="311" y="952"/>
      <point x="252" y="1028"/>
      <point x="252" y="1140" type="curve" smooth="yes"/>
      <point x="252" y="1256"/>
      <point x="313" y="1332"/>
      <point x="447" y="1332" type="curve" smooth="yes"/>
      <point x="571" y="1332"/>
      <point x="637" y="1256"/>
      <point x="637" y="1140" type="curve" smooth="yes"/>
      <point x="637" y="1028"/>
      <point x="578" y="952"/>
    </contour>
  </outline>
</glyph>
<glyph name="plusminus" format="2">
  <advance width="1628"/>
  <unicode hex="00B1"/>
  <outline>
    <contour>
      <point x="1510" y="0" type="line"/>
      <point x="1510" y="142" type="line"/>
      <point x="118" y="142" type="line"/>
      <point x="118" y="0" type="line"/>
    </contour>
    <contour>
      <point x="895" y="1196" type="line"/>
      <point x="729" y="1196" type="line"/>
      <point x="729" y="782" type="line"/>
      <point x="118" y="782" type="line"/>
      <point x="118" y="640" type="line"/>
      <point x="729" y="640" type="line"/>
      <point x="729" y="228" type="line"/>
      <point x="895" y="228" type="line"/>
      <point x="895" y="640" type="line"/>
      <point x="1506" y="640" type="line"/>
      <point x="1506" y="782" type="line"/>
      <point x="895" y="782" type="line"/>
    </contour>
  </outline>
</glyph>
<glyph name="twosuperior" format="2">
  <advance width="864"/>
  <unicode hex="00B2"/>
  <outline>
    <contour>
      <point x="762" y="956" type="line"/>
      <point x="242" y="956" type="line"/>
      <point x="477" y="1110" type="line"/>
      <point x="674" y="1250"/>
      <point x="770" y="1338"/>
      <point x="770" y="1470" type="curve" smooth="yes"/>
      <point x="770" y="1616"/>
      <point x="633" y="1706"/>
      <point x="418" y="1706" type="curve" smooth="yes"/>
      <point x="285" y="1706"/>
      <point x="171" y="1662"/>
      <point x="72" y="1596" type="curve"/>
      <point x="146" y="1504" type="line"/>
      <point x="232" y="1556"/>
      <point x="316" y="1590"/>
      <point x="430" y="1590" type="curve" smooth="yes"/>
      <point x="544" y="1590"/>
      <point x="621" y="1546"/>
      <point x="621" y="1462" type="curve" smooth="yes"/>
      <point x="621" y="1372"/>
      <point x="580" y="1320"/>
      <point x="357" y="1164" type="curve" smooth="yes"/>
      <point x="52" y="940" type="line"/>
      <point x="52" y="832" type="line"/>
      <point x="762" y="832" type="line"/>
    </contour>
  </outline>
</glyph>
<glyph name="threesuperior" format="2">
  <advance width="864"/>
  <unicode hex="00B3"/>
  <outline>
    <contour>
      <point x="409" y="1706" type="curve" smooth="yes"/>
      <point x="254" y="1706"/>
      <point x="150" y="1668"/>
      <point x="45" y="1608" type="curve"/>
      <point x="127" y="1516" type="line"/>
      <point x="220" y="1562"/>
      <point x="311" y="1592"/>
      <point x="420" y="1592" type="curve" smooth="yes"/>
      <point x="523" y="1592"/>
      <point x="611" y="1554"/>
      <point x="611" y="1470" type="curve" smooth="yes"/>
      <point x="611" y="1386"/>
      <point x="527" y="1330"/>
      <point x="349" y="1330" type="curve" smooth="yes"/>
      <point x="194" y="1330" type="line"/>
      <point x="194" y="1220" type="line"/>
      <point x="343" y="1220" type="line" smooth="yes"/>
      <point x="525" y="1220"/>
      <point x="646" y="1178"/>
      <point x="646" y="1082" type="curve" smooth="yes"/>
      <point x="646" y="988"/>
      <point x="563" y="930"/>
      <point x="369" y="930" type="curve" smooth="yes"/>
      <point x="273" y="930"/>
      <point x="154" y="954"/>
      <point x="37" y="998" type="curve"/>
      <point x="37" y="872" type="line"/>
      <point x="140" y="832"/>
      <point x="242" y="816"/>
      <point x="363" y="816" type="curve" smooth="yes"/>
      <point x="667" y="816"/>
      <point x="801" y="924"/>
      <point x="801" y="1078" type="curve" smooth="yes"/>
      <point x="801" y="1186"/>
      <point x="713" y="1256"/>
      <point x="585" y="1276" type="curve"/>
      <point x="585" y="1282" type="line"/>
      <point x="679" y="1308"/>
      <point x="769" y="1378"/>
      <point x="769" y="1486" type="curve" smooth="yes"/>
      <point x="769" y="1614"/>
      <point x="650" y="1706"/>
    </contour>
  </outline>
</glyph>
<glyph name="acute" format="2">
  <advance width="1258"/>
  <unicode hex="00B4"/>
  <outline>
    <contour>
      <point x="872" y="1532" type="line"/>
      <point x="642" y="1532" type="line"/>
      <point x="582" y="1442"/>
      <point x="469" y="1310"/>
      <point x="386" y="1236" type="curve"/>
      <point x="386" y="1212" type="line"/>
      <point x="502" y="1212" type="line"/>
      <point x="637" y="1284"/>
      <point x="816" y="1438"/>
      <point x="872" y="1512" type="curve"/>
    </contour>
  </outline>
</glyph>
<glyph name="micro" format="2">
  <advance width="1283"/>
  <unicode hex="00B5"/>
  <unicode hex="03BC"/>
  <outline>
    <contour>
      <point x="921" y="1072" type="line"/>
      <point x="921" y="514" type="line" smooth="yes"/>
      <point x="921" y="264"/>
      <point x="844" y="126"/>
      <point x="605" y="126" type="curve" smooth="yes"/>
      <point x="444" y="126"/>
      <point x="363" y="214"/>
      <point x="363" y="380" type="curve" smooth="yes"/>
      <point x="363" y="1072" type="line"/>
      <point x="187" y="1072" type="line"/>
      <point x="187" y="-480" type="line"/>
      <point x="363" y="-480" type="line"/>
      <point x="363" y="-168" type="line" smooth="yes"/>
      <point x="363" y="-60"/>
      <point x="359" y="22"/>
      <point x="353" y="70" type="curve"/>
      <point x="362" y="70" type="line"/>
      <point x="414" y="16"/>
      <point x="488" y="-20"/>
      <point x="593" y="-20" type="curve" smooth="yes"/>
      <point x="744" y="-20"/>
      <point x="848" y="38"/>
      <point x="916" y="144" type="curve"/>
      <point x="926" y="144" type="line"/>
      <point x="954" y="0" type="line" name=".hr01"/>
      <point x="1096" y="0" type="line"/>
      <point x="1096" y="1072" type="line"/>
    </contour>
  </outline>
</glyph>
<glyph name="paragraph" format="2">
  <advance width="1295"/>
  <unicode hex="00B6"/>
  <outline>
    <contour>
      <point x="1062" y="1520" type="line"/>
      <point x="539" y="1520" type="line" smooth="yes"/>
      <point x="290" y="1520"/>
      <point x="121" y="1400"/>
      <point x="121" y="1018" type="curve" smooth="yes"/>
      <point x="121" y="652"/>
      <point x="275" y="528"/>
      <point x="511" y="528" type="curve" smooth="yes"/>
      <point x="555" y="528"/>
      <point x="607" y="534"/>
      <point x="645" y="546" type="curve"/>
      <point x="645" y="-254" type="line"/>
      <point x="758" y="-254" type="line"/>
      <point x="758" y="1408" type="line"/>
      <point x="949" y="1408" type="line"/>
      <point x="949" y="-254" type="line"/>
      <point x="1062" y="-254" type="line"/>
    </contour>
  </outline>
</glyph>
<glyph name="periodcentered" format="2">
  <advance width="648"/>
  <unicode hex="00B7"/>
  <outline>
    <contour>
      <point x="496" y="706" type="curve" smooth="yes"/>
      <point x="496" y="610"/>
      <point x="560" y="570"/>
      <point x="642" y="570" type="curve" smooth="yes"/>
      <point x="727" y="570"/>
      <point x="800" y="610"/>
      <point x="800" y="706" type="curve" smooth="yes"/>
      <point x="800" y="804"/>
      <point x="727" y="840"/>
      <point x="642" y="840" type="curve" smooth="yes"/>
      <point x="560" y="840"/>
      <point x="496" y="804"/>
    </contour>
  </outline>
</glyph>
<glyph name="cedilla" format="2">
  <advance width="1258"/>
  <unicode hex="00B8"/>
  <outline>
    <contour>
      <point x="908" y="-278" type="curve" smooth="yes"/>
      <point x="908" y="-176"/>
      <point x="802" y="-128"/>
      <point x="651" y="-106" type="curve"/>
      <point x="744" y="0" type="line"/>
      <point x="601" y="0" type="line"/>
      <point x="461" y="-172" type="line"/>
      <point x="614" y="-186"/>
      <point x="751" y="-212"/>
      <point x="751" y="-282" type="curve" smooth="yes"/>
      <point x="751" y="-348"/>
      <point x="664" y="-370"/>
      <point x="500" y="-370" type="curve" smooth="yes"/>
      <point x="446" y="-370"/>
      <point x="379" y="-366"/>
      <point x="352" y="-360" type="curve"/>
      <point x="352" y="-470" type="line"/>
      <point x="374" y="-476"/>
      <point x="414" y="-480"/>
      <point x="452" y="-480" type="curve" smooth="yes"/>
      <point x="761" y="-480"/>
      <point x="908" y="-406"/>
    </contour>
  </outline>
</glyph>
<glyph name="onesuperior" format="2">
  <advance width="864"/>
  <unicode hex="00B9"/>
  <outline>
    <contour>
      <point x="435" y="1688" type="line"/>
      <point x="81" y="1504" type="line"/>
      <point x="155" y="1406" type="line"/>
      <point x="327" y="1484" type="line" smooth="yes"/>
      <point x="381" y="1509"/>
      <point x="435" y="1538"/>
      <point x="479" y="1562" type="curve"/>
      <point x="473" y="1506"/>
      <point x="468" y="1452"/>
      <point x="468" y="1384" type="curve" smooth="yes"/>
      <point x="468" y="832" type="line"/>
      <point x="622" y="832" type="line"/>
      <point x="622" y="1688" type="line"/>
    </contour>
  </outline>
</glyph>
<glyph name="guillemetright" format="2">
  <advance width="1073"/>
  <unicode hex="00BB"/>
  <outline>
    <contour>
      <point x="985" y="540" type="line"/>
      <point x="623" y="942" type="line"/>
      <point x="500" y="870" type="line"/>
      <point x="801" y="528" type="line"/>
      <point x="500" y="186" type="line"/>
      <point x="623" y="112" type="line"/>
      <point x="985" y="514" type="line"/>
    </contour>
    <contour>
      <point x="569" y="540" type="line"/>
      <point x="209" y="942" type="line"/>
      <point x="85" y="870" type="line"/>
      <point x="387" y="528" type="line"/>
      <point x="85" y="186" type="line"/>
      <point x="209" y="112" type="line"/>
      <point x="569" y="514" type="line"/>
    </contour>
  </outline>
</glyph>
<glyph name="onequarter" format="2">
  <advance width="1641"/>
  <unicode hex="00BC"/>
  <outline>
    <contour>
      <point x="416" y="0" type="line"/>
      <point x="1419" y="1428" type="line"/>
      <point x="1265" y="1428" type="line"/>
      <point x="263" y="0" type="line"/>
    </contour>
    <contour>
      <point x="373" y="572" type="line"/>
      <point x="518" y="572" type="line"/>
      <point x="518" y="1428" type="line"/>
      <point x="361" y="1428" type="line"/>
      <point x="74" y="1244" type="line"/>
      <point x="146" y="1146" type="line"/>
      <point x="271" y="1224" type="line" smooth="yes"/>
      <point x="310" y="1248"/>
      <point x="350" y="1278"/>
      <point x="381" y="1302" type="curve"/>
      <point x="377" y="1246"/>
      <point x="373" y="1192"/>
      <point x="373" y="1124" type="curve" smooth="yes"/>
    </contour>
    <contour>
      <point x="1484" y="0" type="line"/>
      <point x="1484" y="192" type="line"/>
      <point x="1622" y="192" type="line"/>
      <point x="1622" y="312" type="line"/>
      <point x="1484" y="312" type="line"/>
      <point x="1484" y="862" type="line"/>
      <point x="1335" y="862" type="line"/>
      <point x="883" y="296" type="line"/>
      <point x="883" y="192" type="line"/>
      <point x="1328" y="192" type="line"/>
      <point x="1328" y="0" type="line"/>
    </contour>
    <contour>
      <point x="1222" y="546" type="line" smooth="yes"/>
      <point x="1258" y="591"/>
      <point x="1320" y="670"/>
      <point x="1335" y="700" type="curve"/>
      <point x="1330" y="636"/>
      <point x="1328" y="554"/>
      <point x="1328" y="498" type="curve" smooth="yes"/>
      <point x="1328" y="312" type="line"/>
      <point x="1034" y="312" type="line"/>
    </contour>
  </outline>
</glyph>
<glyph name="onehalf" format="2">
  <advance width="1641"/>
  <unicode hex="00BD"/>
  <outline>
    <contour>
      <point x="344" y="0" type="line"/>
      <point x="1295" y="1428" type="line"/>
      <point x="1143" y="1428" type="line"/>
      <point x="192" y="0" type="line"/>
    </contour>
    <contour>
      <point x="333" y="572" type="line"/>
      <point x="477" y="572" type="line"/>
      <point x="477" y="1428" type="line"/>
      <point x="324" y="1428" type="line"/>
      <point x="48" y="1244" type="line"/>
      <point x="119" y="1146" type="line"/>
      <point x="238" y="1224" type="line" smooth="yes"/>
      <point x="275" y="1248"/>
      <point x="312" y="1278"/>
      <point x="342" y="1302" type="curve"/>
      <point x="337" y="1246"/>
      <point x="333" y="1192"/>
      <point x="333" y="1124" type="curve" smooth="yes"/>
    </contour>
    <contour>
      <point x="1544" y="0" type="line"/>
      <point x="1544" y="124" type="line"/>
      <point x="1119" y="124" type="line"/>
      <point x="1292" y="278" type="line"/>
      <point x="1457" y="418"/>
      <point x="1547" y="506"/>
      <point x="1547" y="638" type="curve" smooth="yes"/>
      <point x="1547" y="784"/>
      <point x="1435" y="874"/>
      <point x="1253" y="874" type="curve" smooth="yes"/>
      <point x="1132" y="874"/>
      <point x="1036" y="830"/>
      <point x="954" y="764" type="curve"/>
      <point x="1025" y="672" type="line"/>
      <point x="1099" y="724"/>
      <point x="1166" y="758"/>
      <point x="1254" y="758" type="curve" smooth="yes"/>
      <point x="1343" y="758"/>
      <point x="1404" y="714"/>
      <point x="1404" y="630" type="curve" smooth="yes"/>
      <point x="1404" y="540"/>
      <point x="1369" y="488"/>
      <point x="1191" y="332" type="curve" smooth="yes"/>
      <point x="942" y="108" type="line"/>
      <point x="942" y="0" type="line"/>
    </contour>
  </outline>
</glyph>
<glyph name="threequarters" format="2">
  <advance width="1641"/>
  <unicode hex="00BE"/>
  <outline>
    <contour>
      <point x="510" y="0" type="line"/>
      <point x="1438" y="1428" type="line"/>
      <point x="1286" y="1428" type="line"/>
      <point x="358" y="0" type="line"/>
    </contour>
    <contour>
      <point x="308" y="556" type="curve" smooth="yes"/>
      <point x="558" y="556"/>
      <point x="673" y="664"/>
      <point x="673" y="818" type="curve" smooth="yes"/>
      <point x="673" y="926"/>
      <point x="601" y="996"/>
      <point x="492" y="1016" type="curve"/>
      <point x="492" y="1022" type="line"/>
      <point x="575" y="1048"/>
      <point x="646" y="1118"/>
      <point x="646" y="1226" type="curve" smooth="yes"/>
      <point x="646" y="1354"/>
      <point x="545" y="1446" name=".hr01"/>
      <point x="345" y="1446" type="curve" smooth="yes"/>
      <point x="214" y="1446"/>
      <point x="124" y="1408"/>
      <point x="38" y="1348" type="curve"/>
      <point x="112" y="1256" type="line"/>
      <point x="188" y="1302"/>
      <point x="261" y="1332"/>
      <point x="349" y="1332" type="curve" smooth="yes"/>
      <point x="432" y="1332"/>
      <point x="499" y="1294"/>
      <point x="499" y="1210" type="curve" smooth="yes"/>
      <point x="499" y="1126"/>
      <point x="435" y="1070"/>
      <point x="291" y="1070" type="curve" smooth="yes"/>
      <point x="169" y="1070" type="line"/>
      <point x="169" y="960" type="line"/>
      <point x="290" y="960" type="line" smooth="yes"/>
      <point x="438" y="960"/>
      <point x="527" y="918"/>
      <point x="527" y="822" type="curve" smooth="yes"/>
      <point x="527" y="728"/>
      <point x="460" y="670"/>
      <point x="311" y="670" type="curve" smooth="yes"/>
      <point x="229" y="670"/>
      <point x="129" y="694"/>
      <point x="33" y="738" type="curve"/>
      <point x="33" y="612" type="line"/>
      <point x="118" y="572"/>
      <point x="206" y="556"/>
    </contour>
    <contour>
      <point x="1494" y="0" type="line"/>
      <point x="1494" y="192" type="line"/>
      <point x="1622" y="192" type="line"/>
      <point x="1622" y="312" type="line"/>
      <point x="1494" y="312" type="line"/>
      <point x="1494" y="862" type="line"/>
      <point x="1346" y="862" type="line"/>
      <point x="927" y="296" type="line"/>
      <point x="927" y="192" type="line"/>
      <point x="1341" y="192" type="line"/>
      <point x="1341" y="0" type="line"/>
    </contour>
    <contour>
      <point x="1244" y="546" type="line" smooth="yes"/>
      <point x="1276" y="591"/>
      <point x="1333" y="670"/>
      <point x="1347" y="700" type="curve"/>
      <point x="1343" y="636"/>
      <point x="1341" y="554"/>
      <point x="1341" y="498" type="curve" smooth="yes"/>
      <point x="1341" y="312" type="line"/>
      <point x="1072" y="312" type="line"/>
    </contour>
  </outline>
</glyph>
<glyph name="questiondown" format="2">
  <advance width="864"/>
  <unicode hex="00BF"/>
  <outline>
    <contour>
      <point x="582" y="662" type="line"/>
      <point x="442" y="662" type="line"/>
      <point x="442" y="628" type="line" smooth="yes"/>
      <point x="442" y="514"/>
      <point x="417" y="461"/>
      <point x="285" y="348" type="curve"/>
      <point x="144" y="227"/>
      <point x="52" y="146"/>
      <point x="52" y="-34" type="curve" smooth="yes"/>
      <point x="52" y="-250"/>
      <point x="195" y="-384"/>
      <point x="445" y="-384" type="curve" smooth="yes"/>
      <point x="603" y="-384"/>
      <point x="730" y="-342"/>
      <point x="834" y="-286" type="curve"/>
      <point x="772" y="-146" type="line"/>
      <point x="681" y="-190"/>
      <point x="587" y="-230"/>
      <point x="457" y="-230" type="curve" smooth="yes"/>
      <point x="305" y="-230"/>
      <point x="220" y="-158"/>
      <point x="220" y="-30" type="curve" smooth="yes"/>
      <point x="220" y="90"/>
      <point x="265" y="138"/>
      <point x="417" y="268" type="curve" smooth="yes"/>
      <point x="545" y="378"/>
      <point x="582" y="458"/>
      <point x="582" y="608" type="curve" smooth="yes"/>
    </contour>
    <contour>
      <point x="627" y="956" type="curve" smooth="yes"/>
      <point x="627" y="1052"/>
      <point x="576" y="1092"/>
      <point x="504" y="1092" type="curve" smooth="yes"/>
      <point x="439" y="1092"/>
      <point x="383" y="1052"/>
      <point x="383" y="956" type="curve" smooth="yes"/>
      <point x="383" y="858"/>
      <point x="439" y="822"/>
      <point x="504" y="822" type="curve" smooth="yes"/>
      <point x="576" y="822"/>
      <point x="627" y="858"/>
    </contour>
  </outline>
</glyph>
<glyph name="Ccedilla" format="2">
  <advance width="1417"/>
  <unicode hex="00C7"/>
  <anchor x="834" y="-480" name="bottom"/>
  <anchor x="857" y="1428" name="top"/>
  <outline>
    <contour>
      <point x="907" y="1290" type="curve" smooth="yes"/>
      <point x="1053" y="1290"/>
      <point x="1176" y="1252"/>
      <point x="1273" y="1212" type="curve"/>
      <point x="1349" y="1364" type="line"/>
      <point x="1232" y="1418"/>
      <point x="1075" y="1448"/>
      <point x="910" y="1448" type="curve" smooth="yes"/>
      <point x="410" y="1448"/>
      <point x="134" y="1148"/>
      <point x="134" y="716" type="curve" smooth="yes"/>
      <point x="134" y="266"/>
      <point x="383" y="-20"/>
      <point x="875" y="-20" type="curve" smooth="yes"/>
      <point x="1055" y="-20"/>
      <point x="1169" y="-2"/>
      <point x="1287" y="38" type="curve"/>
      <point x="1287" y="194" type="line"/>
      <point x="1166" y="162"/>
      <point x="1042" y="138"/>
      <point x="902" y="138" type="curve" smooth="yes"/>
      <point x="519" y="138"/>
      <point x="326" y="360"/>
      <point x="326" y="714" type="curve" smooth="yes"/>
      <point x="326" y="1072"/>
      <point x="547" y="1290"/>
    </contour>
    <contour>
      <point x="1059" y="-278" type="curve" smooth="yes"/>
      <point x="1059" y="-176"/>
      <point x="974" y="-128"/>
      <point x="864" y="-106" type="curve"/>
      <point x="926" y="0" type="line"/>
      <point x="803" y="0" type="line"/>
      <point x="703" y="-172" type="line"/>
      <point x="818" y="-186"/>
      <point x="913" y="-212"/>
      <point x="913" y="-282" type="curve" smooth="yes"/>
      <point x="913" y="-348"/>
      <point x="852" y="-370"/>
      <point x="738" y="-370" type="curve" smooth="yes"/>
      <point x="696" y="-370"/>
      <point x="646" y="-366"/>
      <point x="621" y="-360" type="curve"/>
      <point x="621" y="-470" type="line"/>
      <point x="643" y="-476"/>
      <point x="682" y="-480"/>
      <point x="721" y="-480" type="curve" smooth="yes"/>
      <point x="947" y="-480"/>
      <point x="1059" y="-406"/>
    </contour>
  </outline>
</glyph>
<glyph name="Eth" format="2">
  <advance width="1534"/>
  <unicode hex="00D0"/>
  <anchor x="766" y="0" name="bottom"/>
  <anchor x="766" y="1428" name="top"/>
  <outline>
    <contour>
      <point x="222" y="1428" type="line"/>
      <point x="222" y="784" type="line"/>
      <point x="66" y="784" type="line"/>
      <point x="66" y="628" type="line"/>
      <point x="222" y="628" type="line"/>
      <point x="222" y="0" type="line"/>
      <point x="618" y="0" type="line" smooth="yes"/>
      <point x="1113" y="0"/>
      <point x="1400" y="246"/>
      <point x="1400" y="728" type="curve" smooth="yes"/>
      <point x="1400" y="1186"/>
      <point x="1111" y="1428"/>
      <point x="665" y="1428" type="curve" smooth="yes"/>
    </contour>
    <contour>
      <point x="637" y="1274" type="line" smooth="yes"/>
      <point x="999" y="1274"/>
      <point x="1210" y="1102"/>
      <point x="1210" y="722" type="curve" smooth="yes"/>
      <point x="1210" y="346"/>
      <point x="1006" y="154"/>
      <point x="594" y="154" type="curve" smooth="yes"/>
      <point x="402" y="154" type="line"/>
      <point x="402" y="628" type="line"/>
      <point x="781" y="628" type="line"/>
      <point x="781" y="784" type="line"/>
      <point x="402" y="784" type="line"/>
      <point x="402" y="1274" type="line"/>
    </contour>
  </outline>
</glyph>
<glyph name="multiply" format="2">
  <advance width="1628"/>
  <unicode hex="00D7"/>
  <outline>
    <contour>
      <point x="814" y="806" type="line"/>
      <point x="276" y="1148" type="line"/>
      <point x="151" y="1044" type="line"/>
      <point x="695" y="706" type="line"/>
      <point x="154" y="366" type="line"/>
      <point x="279" y="264" type="line"/>
      <point x="810" y="602" type="line"/>
      <point x="1355" y="264" type="line"/>
      <point x="1471" y="366" type="line"/>
      <point x="932" y="706" type="line"/>
      <point x="1473" y="1046" type="line"/>
      <point x="1359" y="1148" type="line"/>
    </contour>
  </outline>
</glyph>
<glyph name="Oslash" format="2">
  <advance width="1591"/>
  <unicode hex="00D8"/>
  <anchor x="797" y="0" name="bottom"/>
  <anchor x="799" y="1428" name="top"/>
  <outline>
    <contour>
      <point x="1457" y="716" type="curve" smooth="yes"/>
      <point x="1457" y="950"/>
      <point x="1391" y="1140"/>
      <point x="1269" y="1268" type="curve"/>
      <point x="1371" y="1410" type="line"/>
      <point x="1249" y="1492" type="line"/>
      <point x="1157" y="1360" type="line"/>
      <point x="1058" y="1416"/>
      <point x="938" y="1450"/>
      <point x="799" y="1450" type="curve" smooth="yes"/>
      <point x="349" y="1450"/>
      <point x="134" y="1156"/>
      <point x="134" y="718" type="curve" smooth="yes"/>
      <point x="134" y="486"/>
      <point x="193" y="296"/>
      <point x="311" y="166" type="curve"/>
      <point x="207" y="18" type="line"/>
      <point x="329" y="-62" type="line"/>
      <point x="425" y="74" type="line"/>
      <point x="522" y="12"/>
      <point x="646" y="-20"/>
      <point x="797" y="-20" type="curve" smooth="yes"/>
      <point x="1229" y="-20"/>
      <point x="1457" y="274"/>
    </contour>
    <contour>
      <point x="1267" y="716" type="curve" smooth="yes"/>
      <point x="1267" y="356"/>
      <point x="1123" y="136"/>
      <point x="797" y="136" type="curve" smooth="yes"/>
      <point x="684" y="136"/>
      <point x="592" y="164"/>
      <point x="521" y="212" type="curve"/>
      <point x="1165" y="1120" type="line"/>
      <point x="1233" y="1022"/>
      <point x="1267" y="884"/>
    </contour>
    <contour>
      <point x="325" y="716" type="curve" smooth="yes"/>
      <point x="325" y="1076"/>
      <point x="473" y="1292"/>
      <point x="799" y="1292" type="curve" smooth="yes"/>
      <point x="906" y="1292"/>
      <point x="992" y="1268"/>
      <point x="1060" y="1222" type="curve"/>
      <point x="419" y="320" type="line"/>
      <point x="355" y="418"/>
      <point x="325" y="552"/>
    </contour>
  </outline>
</glyph>
<glyph name="eth" format="2">
  <advance width="1234"/>
  <unicode hex="00F0"/>
  <anchor x="619" y="0" name="bottom"/>
  <anchor x="619" y="1530" name="top"/>
  <outline>
    <contour>
      <point x="372" y="1410" type="line"/>
      <point x="435" y="1378"/>
      <point x="497" y="1342"/>
      <point x="553" y="1304" type="curve"/>
      <point x="328" y="1176" type="line"/>
      <point x="404" y="1066" type="line"/>
      <point x="665" y="1216" type="line"/>
      <point x="778" y="1114"/>
      <point x="872" y="986"/>
      <point x="914" y="834" type="curve"/>
      <point x="906" y="830" type="line"/>
      <point x="842" y="910"/>
      <point x="734" y="946"/>
      <point x="593" y="946" type="curve" smooth="yes"/>
      <point x="304" y="946"/>
      <point x="121" y="764"/>
      <point x="121" y="466" type="curve" smooth="yes"/>
      <point x="121" y="166"/>
      <point x="326" y="-20"/>
      <point x="615" y="-20" type="curve" smooth="yes"/>
      <point x="926" y="-20"/>
      <point x="1116" y="170"/>
      <point x="1116" y="550" type="curve" smooth="yes"/>
      <point x="1116" y="874"/>
      <point x="988" y="1128"/>
      <point x="805" y="1298" type="curve"/>
      <point x="1004" y="1412" type="line"/>
      <point x="928" y="1520" type="line"/>
      <point x="697" y="1386" type="line"/>
      <point x="619" y="1442"/>
      <point x="531" y="1490"/>
      <point x="444" y="1530" type="curve"/>
    </contour>
    <contour>
      <point x="619" y="804" type="curve" smooth="yes"/>
      <point x="836" y="804"/>
      <point x="939" y="668"/>
      <point x="939" y="502" type="curve" smooth="yes"/>
      <point x="939" y="256"/>
      <point x="840" y="124"/>
      <point x="619" y="124" type="curve" smooth="yes"/>
      <point x="396" y="124"/>
      <point x="299" y="264"/>
      <point x="299" y="460" type="curve" smooth="yes"/>
      <point x="299" y="682"/>
      <point x="394" y="804"/>
    </contour>
  </outline>
</glyph>
<glyph name="divide" format="2">
  <advance width="1628"/>
  <unicode hex="00F7"/>
  <outline>
    <contour>
      <point x="1510" y="634" type="line"/>
      <point x="1510" y="776" type="line"/>
      <point x="118" y="776" type="line"/>
      <point x="118" y="634" type="line"/>
    </contour>
    <contour>
      <point x="813" y="242" type="curve" smooth="yes"/>
      <point x="894" y="242"/>
      <point x="959" y="278"/>
      <point x="959" y="364" type="curve" smooth="yes"/>
      <point x="959" y="454"/>
      <point x="894" y="484"/>
      <point x="813" y="484" type="curve" smooth="yes"/>
      <point x="728" y="484"/>
      <point x="662" y="454"/>
      <point x="662" y="364" type="curve" smooth="yes"/>
      <point x="662" y="278"/>
      <point x="728" y="242"/>
    </contour>
    <contour>
      <point x="813" y="924" type="curve" smooth="yes"/>
      <point x="894" y="924"/>
      <point x="959" y="960"/>
      <point x="959" y="1046" type="curve" smooth="yes"/>
      <point x="959" y="1136"/>
      <point x="894" y="1166"/>
      <point x="813" y="1166" type="curve" smooth="yes"/>
      <point x="728" y="1166"/>
      <point x="662" y="1136"/>
      <point x="662" y="1046" type="curve" smooth="yes"/>
      <point x="662" y="960"/>
      <point x="728" y="924"/>
    </contour>
  </outline>
</glyph>
<glyph name="oslash" format="2">
  <advance width="1258"/>
  <unicode hex="00F8"/>
  <anchor x="631" y="0" name="bottom"/>
  <anchor x="631" y="1072" name="top"/>
  <outline>
    <contour>
      <point x="1140" y="538" type="curve" smooth="yes"/>
      <point x="1140" y="704"/>
      <point x="1091" y="836"/>
      <point x="1012" y="930" type="curve"/>
      <point x="1105" y="1056" type="line"/>
      <point x="985" y="1132" type="line"/>
      <point x="904" y="1020" type="line"/>
      <point x="828" y="1066"/>
      <point x="735" y="1092"/>
      <point x="633" y="1092" type="curve" smooth="yes"/>
      <point x="317" y="1092"/>
      <point x="121" y="892"/>
      <point x="121" y="538" type="curve" smooth="yes"/>
      <point x="121" y="366"/>
      <point x="168" y="232"/>
      <point x="252" y="136" type="curve"/>
      <point x="159" y="12" type="line"/>
      <point x="277" y="-66" type="line"/>
      <point x="360" y="46" type="line"/>
      <point x="436" y="2"/>
      <point x="525" y="-20"/>
      <point x="627" y="-20" type="curve" smooth="yes"/>
      <point x="941" y="-20"/>
      <point x="1140" y="182"/>
    </contour>
    <contour>
      <point x="304" y="538" type="curve" smooth="yes"/>
      <point x="304" y="792"/>
      <point x="402" y="944"/>
      <point x="629" y="944" type="curve" smooth="yes"/>
      <point x="702" y="944"/>
      <point x="765" y="926"/>
      <point x="813" y="894" type="curve"/>
      <point x="355" y="282" type="line"/>
      <point x="319" y="348"/>
      <point x="304" y="436"/>
    </contour>
    <contour>
      <point x="958" y="538" type="curve" smooth="yes"/>
      <point x="958" y="284"/>
      <point x="855" y="126"/>
      <point x="631" y="126" type="curve" smooth="yes"/>
      <point x="560" y="126"/>
      <point x="497" y="142"/>
      <point x="451" y="172" type="curve"/>
      <point x="909" y="784" type="line"/>
      <point x="941" y="720"/>
      <point x="958" y="636"/>
    </contour>
  </outline>
</glyph>
<glyph name="thorn" format="2">
  <advance width="1289"/>
  <unicode hex="00FE"/>
  <anchor x="648" y="-480" name="bottom"/>
  <anchor x="648" y="1520" name="top"/>
  <outline>
    <contour>
      <point x="1168" y="538" type="curve" smooth="yes"/>
      <point x="1168" y="902"/>
      <point x="986" y="1092"/>
      <point x="711" y="1092" type="curve" smooth="yes"/>
      <point x="532" y="1092"/>
      <point x="432" y="1018"/>
      <point x="366" y="928" type="curve"/>
      <point x="358" y="928" type="line"/>
      <point x="359" y="962"/>
      <point x="363" y="1034"/>
      <point x="363" y="1072" type="curve" smooth="yes"/>
      <point x="363" y="1520" type="line"/>
      <point x="187" y="1520" type="line"/>
      <point x="187" y="-480" type="line"/>
      <point x="363" y="-480" type="line"/>
      <point x="363" y="-32" type="line" smooth="yes"/>
      <point x="363" y="10"/>
      <point x="355" y="106"/>
      <point x="351" y="136" type="curve"/>
      <point x="363" y="136" type="line"/>
      <point x="430" y="50"/>
      <point x="536" y="-20"/>
      <point x="711" y="-20" type="curve" smooth="yes"/>
      <point x="986" y="-20"/>
      <point x="1168" y="172"/>
    </contour>
    <contour>
      <point x="986" y="540" type="curve" smooth="yes"/>
      <point x="986" y="274"/>
      <point x="891" y="126"/>
      <point x="685" y="126" type="curve" smooth="yes"/>
      <point x="439" y="126"/>
      <point x="363" y="274"/>
      <point x="363" y="538" type="curve" smooth="yes"/>
      <point x="363" y="576" type="line" smooth="yes"/>
      <point x="363" y="822"/>
      <point x="452" y="944"/>
      <point x="683" y="944" type="curve" smooth="yes"/>
      <point x="891" y="944"/>
      <point x="986" y="810"/>
    </contour>
  </outline>
</glyph>
<glyph name="Aogonek" format="2">
  <advance width="1413"/>
  <unicode hex="0104"/>
  <anchor x="717" y="-440" name="bottom"/>
  <anchor x="702" y="1434" name="top"/>
  <outline>
    <contour>
      <point x="1408" y="0" type="line"/>
      <point x="779" y="1434" type="line"/>
      <point x="633" y="1434" type="line"/>
      <point x="0" y="0" type="line"/>
      <point x="179" y="0" type="line"/>
      <point x="379" y="442" type="line"/>
      <point x="1022" y="442" type="line"/>
      <point x="1224" y="0" type="line"/>
    </contour>
    <contour>
      <point x="964" y="602" type="line"/>
      <point x="444" y="602" type="line"/>
      <point x="635" y="1034" type="line"/>
      <point x="653" y="1080"/>
      <point x="679" y="1166"/>
      <point x="702" y="1248" type="curve"/>
      <point x="717" y="1198"/>
      <point x="763" y="1066"/>
      <point x="775" y="1034" type="curve"/>
    </contour>
    <contour>
      <point x="1204" y="-232" type="curve" smooth="yes"/>
      <point x="1204" y="-150"/>
      <point x="1256" y="-86"/>
      <point x="1357" y="0" type="curve"/>
      <point x="1255" y="30" type="line"/>
      <point x="1176" y="-26"/>
      <point x="1054" y="-138"/>
      <point x="1054" y="-252" type="curve" smooth="yes"/>
      <point x="1054" y="-370"/>
      <point x="1120" y="-440"/>
      <point x="1278" y="-440" type="curve" smooth="yes"/>
      <point x="1334" y="-440"/>
      <point x="1370" y="-432"/>
      <point x="1411" y="-422" type="curve"/>
      <point x="1411" y="-310" type="line"/>
      <point x="1388" y="-314"/>
      <point x="1356" y="-322"/>
      <point x="1306" y="-322" type="curve" smooth="yes"/>
      <point x="1243" y="-322"/>
      <point x="1204" y="-292"/>
    </contour>
  </outline>
</glyph>
<glyph name="dcaron" format="2">
  <advance width="1462"/>
  <unicode hex="010F"/>
  <anchor x="621" y="0" name="bottom"/>
  <anchor x="591" y="1520" name="top"/>
  <outline>
    <contour>
      <point x="591" y="-20" type="curve" smooth="yes"/>
      <point x="770" y="-20"/>
      <point x="879" y="52"/>
      <point x="947" y="144" type="curve"/>
      <point x="956" y="144" type="line"/>
      <point x="980" y="0" type="line" name=".hr01"/>
      <point x="1123" y="0" type="line"/>
      <point x="1123" y="1520" type="line"/>
      <point x="947" y="1520" type="line"/>
      <point x="947" y="1092" type="line" smooth="yes"/>
      <point x="947" y="1052"/>
      <point x="956" y="968"/>
      <point x="960" y="934" type="curve"/>
      <point x="947" y="934" type="line"/>
      <point x="877" y="1022"/>
      <point x="770" y="1092"/>
      <point x="592" y="1092" type="curve" smooth="yes"/>
      <point x="309" y="1092"/>
      <point x="121" y="902"/>
      <point x="121" y="534" type="curve" smooth="yes"/>
      <point x="121" y="166"/>
      <point x="307" y="-20" name=".hr02"/>
    </contour>
    <contour>
      <point x="614" y="126" type="curve" smooth="yes"/>
      <point x="405" y="126"/>
      <point x="304" y="274"/>
      <point x="304" y="530" type="curve" smooth="yes"/>
      <point x="304" y="784"/>
      <point x="405" y="946"/>
      <point x="612" y="946" type="curve" smooth="yes"/>
      <point x="870" y="946"/>
      <point x="948" y="798"/>
      <point x="948" y="532" type="curve" smooth="yes"/>
      <point x="948" y="500" type="line" smooth="yes"/>
      <point x="948" y="250"/>
      <point x="859" y="126"/>
    </contour>
    <contour>
      <point x="1450" y="1520" type="line"/>
      <point x="1275" y="1520" type="line"/>
      <point x="1264" y="1434"/>
      <point x="1232" y="1300"/>
      <point x="1204" y="1224" type="curve"/>
      <point x="1204" y="1200" type="line"/>
      <point x="1299" y="1200" type="line"/>
      <point x="1362" y="1288"/>
      <point x="1433" y="1430"/>
      <point x="1450" y="1502" type="curve"/>
    </contour>
  </outline>
</glyph>
<glyph name="dcroat" format="2">
  <advance width="1289"/>
  <unicode hex="0111"/>
  <anchor x="648" y="0" name="bottom"/>
  <anchor x="648" y="1520" name="top"/>
  <outline>
    <contour>
      <point x="582" y="-20" type="curve" smooth="yes"/>
      <point x="756" y="-20"/>
      <point x="863" y="52"/>
      <point x="930" y="144" type="curve"/>
      <point x="938" y="144" type="line"/>
      <point x="963" y="0" type="line" name=".hr01"/>
      <point x="1107" y="0" type="line"/>
      <point x="1107" y="1210" type="line"/>
      <point x="1265" y="1210" type="line"/>
      <point x="1265" y="1342" type="line"/>
      <point x="1107" y="1342" type="line"/>
      <point x="1107" y="1520" type="line"/>
      <point x="931" y="1520" type="line"/>
      <point x="931" y="1342" type="line"/>
      <point x="480" y="1342" type="line"/>
      <point x="480" y="1210" type="line"/>
      <point x="931" y="1210" type="line"/>
      <point x="931" y="1088" type="line" smooth="yes"/>
      <point x="931" y="1046"/>
      <point x="937" y="962"/>
      <point x="943" y="928" type="curve"/>
      <point x="930" y="928" type="line"/>
      <point x="861" y="1016"/>
      <point x="757" y="1086"/>
      <point x="581" y="1086" type="curve" smooth="yes"/>
      <point x="305" y="1086"/>
      <point x="121" y="904"/>
      <point x="121" y="530" type="curve" smooth="yes"/>
      <point x="121" y="166"/>
      <point x="301" y="-20" name=".hr02"/>
    </contour>
    <contour>
      <point x="608" y="126" type="curve" smooth="yes"/>
      <point x="402" y="126"/>
      <point x="305" y="272"/>
      <point x="305" y="528" type="curve" smooth="yes"/>
      <point x="305" y="784"/>
      <point x="402" y="940"/>
      <point x="604" y="940" type="curve" smooth="yes"/>
      <point x="857" y="940"/>
      <point x="932" y="798"/>
      <point x="932" y="530" type="curve" smooth="yes"/>
      <point x="932" y="496" type="line" smooth="yes"/>
      <point x="932" y="248"/>
      <point x="845" y="126"/>
    </contour>
  </outline>
</glyph>
<glyph name="Eogonek" format="2">
  <advance width="1110"/>
  <unicode hex="0118"/>
  <anchor x="603" y="-440" name="bottom"/>
  <anchor x="612" y="1428" name="top"/>
  <outline>
    <contour>
      <point x="978" y="158" type="line"/>
      <point x="393" y="158" type="line"/>
      <point x="393" y="668" type="line"/>
      <point x="944" y="668" type="line"/>
      <point x="944" y="824" type="line"/>
      <point x="393" y="824" type="line"/>
      <point x="393" y="1270" type="line"/>
      <point x="978" y="1270" type="line"/>
      <point x="978" y="1428" type="line"/>
      <point x="213" y="1428" type="line"/>
      <point x="213" y="0" type="line"/>
      <point x="978" y="0" type="line"/>
    </contour>
    <contour>
      <point x="791" y="-232" type="curve" smooth="yes"/>
      <point x="791" y="-150"/>
      <point x="835" y="-86"/>
      <point x="921" y="0" type="curve"/>
      <point x="827" y="30" type="line"/>
      <point x="747" y="-26"/>
      <point x="650" y="-138"/>
      <point x="650" y="-252" type="curve" smooth="yes"/>
      <point x="650" y="-370"/>
      <point x="713" y="-440"/>
      <point x="849" y="-440" type="curve" smooth="yes"/>
      <point x="900" y="-440"/>
      <point x="933" y="-432"/>
      <point x="969" y="-422" type="curve"/>
      <point x="969" y="-310" type="line"/>
      <point x="948" y="-314"/>
      <point x="918" y="-322"/>
      <point x="877" y="-322" type="curve" smooth="yes"/>
      <point x="824" y="-322"/>
      <point x="791" y="-292"/>
    </contour>
  </outline>
</glyph>
<glyph name="eogonek" format="2">
  <advance width="1141"/>
  <unicode hex="0119"/>
  <anchor x="609" y="-440" name="bottom"/>
  <anchor x="577" y="1072" name="top"/>
  <outline>
    <contour>
      <point x="784" y="-232" type="curve" smooth="yes"/>
      <point x="784" y="-150"/>
      <point x="821" y="-78"/>
      <point x="982" y="50" type="curve"/>
      <point x="823" y="30" type="line"/>
      <point x="743" y="-26"/>
      <point x="641" y="-138"/>
      <point x="641" y="-252" type="curve" smooth="yes"/>
      <point x="641" y="-370"/>
      <point x="704" y="-440"/>
      <point x="845" y="-440" type="curve" smooth="yes"/>
      <point x="897" y="-440"/>
      <point x="930" y="-432"/>
      <point x="968" y="-422" type="curve"/>
      <point x="968" y="-310" type="line"/>
      <point x="946" y="-314"/>
      <point x="916" y="-322"/>
      <point x="873" y="-322" type="curve" smooth="yes"/>
      <point x="818" y="-322"/>
      <point x="784" y="-292"/>
    </contour>
    <contour>
      <point x="591" y="1092" type="curve" smooth="yes"/>
      <point x="310" y="1092"/>
      <point x="121" y="880"/>
      <point x="121" y="528" type="curve" smooth="yes"/>
      <point x="121" y="170"/>
      <point x="330" y="-20"/>
      <point x="633" y="-20" type="curve" smooth="yes"/>
      <point x="778" y="-20"/>
      <point x="873" y="2"/>
      <point x="982" y="50" type="curve"/>
      <point x="982" y="204" type="line"/>
      <point x="871" y="156"/>
      <point x="776" y="130"/>
      <point x="641" y="130" type="curve" smooth="yes"/>
      <point x="430" y="130"/>
      <point x="309" y="260"/>
      <point x="303" y="502" type="curve"/>
      <point x="1029" y="502" type="line"/>
      <point x="1029" y="608" type="line" smooth="yes"/>
      <point x="1029" y="900"/>
      <point x="863" y="1092"/>
    </contour>
    <contour>
      <point x="589" y="948" type="curve" smooth="yes"/>
      <point x="765" y="948"/>
      <point x="844" y="824"/>
      <point x="846" y="642" type="curve"/>
      <point x="307" y="642" type="line"/>
      <point x="325" y="834"/>
      <point x="424" y="948"/>
    </contour>
  </outline>
</glyph>
<glyph name="Hbar" format="2">
  <advance width="1617"/>
  <unicode hex="0126"/>
  <anchor x="810" y="0" name="bottom"/>
  <anchor x="810" y="1428" name="top"/>
  <outline>
    <contour>
      <point x="395" y="0" type="line"/>
      <point x="395" y="666" type="line"/>
      <point x="1221" y="666" type="line"/>
      <point x="1221" y="0" type="line"/>
      <point x="1401" y="0" type="line"/>
      <point x="1401" y="1046" type="line"/>
      <point x="1615" y="1046" type="line"/>
      <point x="1615" y="1190" type="line"/>
      <point x="1401" y="1190" type="line"/>
      <point x="1401" y="1428" type="line"/>
      <point x="1221" y="1428" type="line"/>
      <point x="1221" y="1190" type="line"/>
      <point x="395" y="1190" type="line"/>
      <point x="395" y="1428" type="line"/>
      <point x="215" y="1428" type="line"/>
      <point x="215" y="1190" type="line"/>
      <point x="0" y="1190" type="line"/>
      <point x="0" y="1046" type="line"/>
      <point x="215" y="1046" type="line"/>
      <point x="215" y="0" type="line"/>
    </contour>
    <contour>
      <point x="395" y="1046" type="line"/>
      <point x="1221" y="1046" type="line"/>
      <point x="1221" y="824" type="line"/>
      <point x="395" y="824" type="line"/>
    </contour>
  </outline>
</glyph>
<glyph name="hbar" format="2">
  <advance width="1271"/>
  <unicode hex="0127"/>
  <anchor x="630" y="0" name="bottom"/>
  <anchor x="265" y="1520" name="top"/>
  <outline>
    <contour>
      <point x="175" y="1520" type="line"/>
      <point x="175" y="1340" type="line"/>
      <point x="19" y="1340" type="line"/>
      <point x="19" y="1208" type="line"/>
      <point x="175" y="1208" type="line"/>
      <point x="175" y="0" type="line"/>
      <point x="351" y="0" type="line"/>
      <point x="351" y="516" type="line" smooth="yes"/>
      <point x="351" y="766"/>
      <point x="427" y="904"/>
      <point x="673" y="904" type="curve" smooth="yes"/>
      <point x="842" y="904"/>
      <point x="920" y="818"/>
      <point x="920" y="646" type="curve" smooth="yes"/>
      <point x="920" y="0" type="line"/>
      <point x="1093" y="0" type="line"/>
      <point x="1093" y="658" type="line" smooth="yes"/>
      <point x="1093" y="932"/>
      <point x="960" y="1052"/>
      <point x="696" y="1052" type="curve" smooth="yes"/>
      <point x="553" y="1052"/>
      <point x="422" y="996"/>
      <point x="352" y="886" type="curve"/>
      <point x="340" y="886" type="line"/>
      <point x="347" y="928"/>
      <point x="351" y="982"/>
      <point x="351" y="1034" type="curve" smooth="yes"/>
      <point x="351" y="1208" type="line"/>
      <point x="786" y="1208" type="line"/>
      <point x="786" y="1340" type="line"/>
      <point x="351" y="1340" type="line"/>
      <point x="351" y="1520" type="line"/>
    </contour>
  </outline>
</glyph>
<glyph name="Iogonek" format="2">
  <advance width="590"/>
  <unicode hex="012E"/>
  <anchor x="295" y="-440" name="bottom"/>
  <anchor x="295" y="1428" name="top"/>
  <outline>
    <contour>
      <point x="520" y="104" type="line"/>
      <point x="384" y="142" type="line"/>
      <point x="384" y="1284" type="line"/>
      <point x="520" y="1324" type="line"/>
      <point x="520" y="1428" type="line"/>
      <point x="67" y="1428" type="line"/>
      <point x="67" y="1324" type="line"/>
      <point x="204" y="1284" type="line"/>
      <point x="204" y="142" type="line"/>
      <point x="67" y="104" type="line"/>
      <point x="67" y="0" type="line"/>
      <point x="520" y="0" type="line"/>
    </contour>
    <contour>
      <point x="372" y="-232" type="curve" smooth="yes"/>
      <point x="372" y="-150"/>
      <point x="408" y="-86"/>
      <point x="480" y="0" type="curve"/>
      <point x="394" y="30" type="line"/>
      <point x="313" y="-26"/>
      <point x="239" y="-138"/>
      <point x="239" y="-252" type="curve" smooth="yes"/>
      <point x="239" y="-370"/>
      <point x="299" y="-440"/>
      <point x="415" y="-440" type="curve" smooth="yes"/>
      <point x="460" y="-440"/>
      <point x="490" y="-432"/>
      <point x="522" y="-422" type="curve"/>
      <point x="522" y="-310" type="line"/>
      <point x="503" y="-314"/>
      <point x="475" y="-322"/>
      <point x="442" y="-322" type="curve" smooth="yes" name=".hr01"/>
      <point x="399" y="-322"/>
      <point x="372" y="-292"/>
    </contour>
  </outline>
</glyph>
<glyph name="iogonek" format="2">
  <advance width="592"/>
  <unicode hex="012F"/>
  <anchor x="314" y="-440" name="bottom"/>
  <anchor x="309" y="1474" name="top"/>
  <outline>
    <contour>
      <point x="221" y="1072" type="line"/>
      <point x="221" y="0" type="line"/>
      <point x="397" y="0" type="line"/>
      <point x="397" y="1072" type="line"/>
    </contour>
    <contour>
      <point x="312" y="1474" type="curve" smooth="yes"/>
      <point x="251" y="1474"/>
      <point x="203" y="1440"/>
      <point x="203" y="1362" type="curve" smooth="yes"/>
      <point x="203" y="1286"/>
      <point x="251" y="1250"/>
      <point x="312" y="1250" type="curve" smooth="yes"/>
      <point x="367" y="1250"/>
      <point x="418" y="1286"/>
      <point x="418" y="1362" type="curve" smooth="yes"/>
      <point x="418" y="1440"/>
      <point x="367" y="1474"/>
    </contour>
    <contour>
      <point x="217" y="-232" type="curve" smooth="yes"/>
      <point x="217" y="-150"/>
      <point x="276" y="-86"/>
      <point x="388" y="0" type="curve"/>
      <point x="279" y="30" type="line"/>
      <point x="200" y="-26"/>
      <point x="59" y="-138"/>
      <point x="59" y="-252" type="curve" smooth="yes"/>
      <point x="59" y="-370"/>
      <point x="128" y="-440"/>
      <point x="303" y="-440" type="curve" smooth="yes"/>
      <point x="363" y="-440"/>
      <point x="401" y="-432"/>
      <point x="447" y="-422" type="curve"/>
      <point x="447" y="-310" type="line"/>
      <point x="421" y="-314"/>
      <point x="389" y="-322"/>
      <point x="332" y="-322" type="curve" smooth="yes"/>
      <point x="260" y="-322"/>
      <point x="217" y="-292"/>
    </contour>
  </outline>
</glyph>
<glyph name="idotless" format="2">
  <advance width="592"/>
  <unicode hex="0131"/>
  <anchor x="312" y="0" name="bottom"/>
  <anchor x="295" y="1072" name="top"/>
  <outline>
    <contour>
      <point x="384" y="1072" type="line"/>
      <point x="208" y="1072" type="line"/>
      <point x="208" y="0" type="line"/>
      <point x="384" y="0" type="line"/>
    </contour>
  </outline>
</glyph>
<glyph name="ij" format="2">
  <advance width="1185"/>
  <unicode hex="0133"/>
  <anchor x="635" y="-480" name="bottom"/>
  <anchor x="907" y="1474" name="top"/>
  <outline>
    <contour>
      <point x="191" y="1072" type="line"/>
      <point x="191" y="0" type="line"/>
      <point x="367" y="0" type="line"/>
      <point x="367" y="1072" type="line"/>
    </contour>
    <contour>
      <point x="281" y="1474" type="curve" smooth="yes"/>
      <point x="220" y="1474"/>
      <point x="171" y="1440"/>
      <point x="171" y="1362" type="curve" smooth="yes"/>
      <point x="171" y="1286"/>
      <point x="220" y="1250"/>
      <point x="281" y="1250" type="curve" smooth="yes"/>
      <point x="337" y="1250"/>
      <point x="388" y="1286"/>
      <point x="388" y="1362" type="curve" smooth="yes"/>
      <point x="388" y="1440"/>
      <point x="337" y="1474"/>
    </contour>
    <contour>
      <point x="635" y="-480" type="curve" smooth="yes"/>
      <point x="881" y="-480"/>
      <point x="995" y="-360"/>
      <point x="995" y="-160" type="curve" smooth="yes"/>
      <point x="995" y="1072" type="line"/>
      <point x="819" y="1072" type="line"/>
      <point x="819" y="-166" type="line" smooth="yes"/>
      <point x="819" y="-296"/>
      <point x="738" y="-334"/>
      <point x="623" y="-334" type="curve" smooth="yes"/>
      <point x="554" y="-334"/>
      <point x="501" y="-326"/>
      <point x="450" y="-314" type="curve"/>
      <point x="450" y="-456" type="line"/>
      <point x="492" y="-470"/>
      <point x="546" y="-480"/>
    </contour>
    <contour>
      <point x="801" y="1362" type="curve" smooth="yes"/>
      <point x="801" y="1286"/>
      <point x="849" y="1250"/>
      <point x="911" y="1250" type="curve" smooth="yes"/>
      <point x="966" y="1250"/>
      <point x="1016" y="1286"/>
      <point x="1016" y="1362" type="curve" smooth="yes"/>
      <point x="1016" y="1440"/>
      <point x="966" y="1474"/>
      <point x="911" y="1474" type="curve" smooth="yes"/>
      <point x="849" y="1474"/>
      <point x="801" y="1440"/>
    </contour>
  </outline>
</glyph>
<glyph name="kgreenlandic" format="2">
  <advance width="1197"/>
  <unicode hex="0138"/>
  <anchor x="592" y="0" name="bottom"/>
  <anchor x="592" y="1072" name="top"/>
  <outline>
    <contour>
      <point x="922" y="1072" type="line"/>
      <point x="452" y="624" type="line"/>
      <point x="428" y="594"/>
      <point x="395" y="556"/>
      <point x="366" y="522" type="curve"/>
      <point x="362" y="522" type="line"/>
      <point x="369" y="576"/>
      <point x="376" y="688"/>
      <point x="376" y="794" type="curve" smooth="yes"/>
      <point x="376" y="1072" type="line"/>
      <point x="187" y="1072" type="line"/>
      <point x="187" y="0" type="line"/>
      <point x="376" y="0" type="line"/>
      <point x="376" y="376" type="line"/>
      <point x="533" y="484" type="line"/>
      <point x="965" y="0" type="line"/>
      <point x="1178" y="0" type="line"/>
      <point x="658" y="598" type="line"/>
      <point x="1139" y="1072" type="line"/>
    </contour>
  </outline>
</glyph>
<glyph name="lcaron" format="2">
  <advance width="765"/>
  <unicode hex="013E"/>
  <anchor x="275" y="0" name="bottom"/>
  <anchor x="275" y="1520" name="top"/>
  <outline>
    <contour>
      <point x="363" y="1520" type="line"/>
      <point x="187" y="1520" type="line"/>
      <point x="187" y="0" type="line"/>
      <point x="363" y="0" type="line"/>
    </contour>
    <contour>
      <point x="766" y="1520" type="line"/>
      <point x="583" y="1520" type="line"/>
      <point x="569" y="1434"/>
      <point x="527" y="1300"/>
      <point x="490" y="1224" type="curve"/>
      <point x="490" y="1200" type="line"/>
      <point x="580" y="1200" type="line"/>
      <point x="657" y="1288"/>
      <point x="753" y="1430"/>
      <point x="766" y="1502" type="curve"/>
    </contour>
  </outline>
</glyph>
<glyph name="ldot" format="2">
  <advance width="790"/>
  <unicode hex="0140"/>
  <anchor x="356" y="0" name="bottom"/>
  <anchor x="356" y="1520" name="top"/>
  <outline>
    <contour>
      <point x="445" y="1520" type="line"/>
      <point x="269" y="1520" type="line"/>
      <point x="269" y="0" type="line"/>
      <point x="445" y="0" type="line"/>
    </contour>
    <contour>
      <point x="689" y="870" type="curve" smooth="yes"/>
      <point x="625" y="870"/>
      <point x="575" y="836"/>
      <point x="575" y="758" type="curve" smooth="yes"/>
      <point x="575" y="682"/>
      <point x="625" y="646"/>
      <point x="689" y="646" type="curve" smooth="yes"/>
      <point x="746" y="646"/>
      <point x="799" y="682"/>
      <point x="799" y="758" type="curve" smooth="yes"/>
      <point x="799" y="836"/>
      <point x="746" y="870"/>
    </contour>
  </outline>
</glyph>
<glyph name="Lslash" format="2">
  <advance width="1123"/>
  <unicode hex="0141"/>
  <anchor x="646" y="0" name="bottom"/>
  <anchor x="296" y="1428" name="top"/>
  <outline>
    <contour>
      <point x="1068" y="0" type="line"/>
      <point x="1068" y="160" type="line"/>
      <point x="386" y="160" type="line"/>
      <point x="386" y="600" type="line"/>
      <point x="761" y="800" type="line"/>
      <point x="688" y="926" type="line"/>
      <point x="386" y="764" type="line"/>
      <point x="386" y="1428" type="line"/>
      <point x="206" y="1428" type="line"/>
      <point x="206" y="658" type="line"/>
      <point x="28" y="558" type="line"/>
      <point x="99" y="438" type="line"/>
      <point x="206" y="494" type="line"/>
      <point x="206" y="0" type="line"/>
    </contour>
  </outline>
</glyph>
<glyph name="napostrophe" format="2">
  <advance width="1419"/>
  <unicode hex="0149"/>
  <anchor x="774" y="0" name="bottom"/>
  <anchor x="774" y="1072" name="top"/>
  <outline>
    <contour>
      <point x="842" y="1092" type="curve" smooth="yes"/>
      <point x="703" y="1092"/>
      <point x="567" y="1038"/>
      <point x="495" y="926" type="curve"/>
      <point x="484" y="926" type="line"/>
      <point x="458" y="1072" type="line"/>
      <point x="316" y="1072" type="line"/>
      <point x="316" y="0" type="line"/>
      <point x="492" y="0" type="line"/>
      <point x="492" y="556" type="line" smooth="yes"/>
      <point x="492" y="806"/>
      <point x="571" y="944"/>
      <point x="818" y="944" type="curve" smooth="yes"/>
      <point x="989" y="944"/>
      <point x="1068" y="858"/>
      <point x="1068" y="686" type="curve" smooth="yes"/>
      <point x="1068" y="0" type="line"/>
      <point x="1241" y="0" type="line"/>
      <point x="1241" y="698" type="line" smooth="yes"/>
      <point x="1241" y="974"/>
      <point x="1106" y="1092"/>
    </contour>
    <contour>
      <point x="295" y="1428" type="line"/>
      <point x="105" y="1428" type="line"/>
      <point x="85" y="1288"/>
      <point x="42" y="1088"/>
      <point x="2" y="938" type="curve"/>
      <point x="133" y="938" type="line"/>
      <point x="199" y="1080"/>
      <point x="273" y="1266"/>
      <point x="310" y="1406" type="curve"/>
    </contour>
  </outline>
</glyph>
<glyph name="Eng" format="2">
  <advance width="1513"/>
  <unicode hex="014A"/>
  <anchor x="757" y="-380" name="bottom"/>
  <anchor x="757" y="1428" name="top"/>
  <outline>
    <contour>
      <point x="937" y="-380" type="curve" smooth="yes"/>
      <point x="1159" y="-380"/>
      <point x="1300" y="-256"/>
      <point x="1300" y="12" type="curve" smooth="yes"/>
      <point x="1300" y="1428" type="line"/>
      <point x="1133" y="1428" type="line"/>
      <point x="1133" y="684" type="line" smooth="yes"/>
      <point x="1133" y="536"/>
      <point x="1139" y="370"/>
      <point x="1147" y="284" type="curve"/>
      <point x="1139" y="284" type="line"/>
      <point x="422" y="1428" type="line"/>
      <point x="213" y="1428" type="line"/>
      <point x="213" y="0" type="line"/>
      <point x="379" y="0" type="line"/>
      <point x="379" y="774" type="line" smooth="yes"/>
      <point x="379" y="920"/>
      <point x="369" y="1108"/>
      <point x="363" y="1186" type="curve"/>
      <point x="371" y="1186" type="line"/>
      <point x="1134" y="0" type="line"/>
      <point x="1132" y="-174"/>
      <point x="1034" y="-222"/>
      <point x="935" y="-222" type="curve" smooth="yes"/>
      <point x="879" y="-222"/>
      <point x="830" y="-214"/>
      <point x="790" y="-202" type="curve"/>
      <point x="790" y="-354" type="line"/>
      <point x="824" y="-370"/>
      <point x="873" y="-380"/>
    </contour>
  </outline>
</glyph>
<glyph name="eng" format="2">
  <advance width="1271"/>
  <unicode hex="014B"/>
  <anchor x="636" y="-480" name="bottom"/>
  <anchor x="636" y="1072" name="top"/>
  <anchor x="1144" y="1072" name="topright"/>
  <outline>
    <contour>
      <point x="807" y="-480" type="curve" smooth="yes"/>
      <point x="1005" y="-480"/>
      <point x="1095" y="-360"/>
      <point x="1095" y="-160" type="curve" smooth="yes"/>
      <point x="1095" y="700" type="line" smooth="yes"/>
      <point x="1095" y="974"/>
      <point x="965" y="1092"/>
      <point x="702" y="1092" type="curve" smooth="yes"/>
      <point x="564" y="1092"/>
      <point x="438" y="1038"/>
      <point x="368" y="926" type="curve"/>
      <point x="358" y="926" type="line"/>
      <point x="330" y="1072" type="line"/>
      <point x="187" y="1072" type="line"/>
      <point x="187" y="0" type="line"/>
      <point x="363" y="0" type="line"/>
      <point x="363" y="558" type="line" smooth="yes"/>
      <point x="363" y="808"/>
      <point x="442" y="944"/>
      <point x="681" y="944" type="curve" smooth="yes"/>
      <point x="843" y="944"/>
      <point x="920" y="860"/>
      <point x="920" y="688" type="curve" smooth="yes"/>
      <point x="920" y="-166" type="line" smooth="yes"/>
      <point x="920" y="-296"/>
      <point x="861" y="-334"/>
      <point x="785" y="-334" type="curve" smooth="yes"/>
      <point x="737" y="-334"/>
      <point x="701" y="-326"/>
      <point x="665" y="-314" type="curve"/>
      <point x="665" y="-456" type="line"/>
      <point x="699" y="-470"/>
      <point x="743" y="-480"/>
    </contour>
  </outline>
</glyph>
<glyph name="Tcedilla" format="2">
  <advance width="1295"/>
  <unicode hex="0162"/>
  <anchor x="557" y="-480" name="bottom"/>
  <anchor x="557" y="1428" name="top"/>
  <outline>
    <contour>
      <point x="657" y="1278" type="line"/>
      <point x="1092" y="1278" type="line"/>
      <point x="1092" y="1428" type="line"/>
      <point x="20" y="1428" type="line"/>
      <point x="20" y="1278" type="line"/>
      <point x="457" y="1278" type="line"/>
      <point x="457" y="0" type="line"/>
      <point x="657" y="0" type="line"/>
    </contour>
    <contour>
      <point x="762" y="-278" type="curve" smooth="yes"/>
      <point x="762" y="-177"/>
      <point x="681" y="-128"/>
      <point x="587" y="-107" type="curve"/>
      <point x="635" y="0" type="line"/>
      <point x="512" y="0" type="line"/>
      <point x="429" y="-171" type="line"/>
      <point x="531" y="-184"/>
      <point x="607" y="-211"/>
      <point x="607" y="-282" type="curve" smooth="yes"/>
      <point x="607" y="-350"/>
      <point x="557" y="-374"/>
      <point x="465" y="-374" type="curve" smooth="yes"/>
      <point x="427" y="-374"/>
      <point x="383" y="-370"/>
      <point x="357" y="-364" type="curve"/>
      <point x="357" y="-469" type="line"/>
      <point x="382" y="-476"/>
      <point x="423" y="-480"/>
      <point x="468" y="-480" type="curve" smooth="yes"/>
      <point x="661" y="-480"/>
      <point x="762" y="-406"/>
    </contour>
  </outline>
</glyph>
<glyph name="tcedilla" format="2">
  <advance width="766"/>
  <unicode hex="0163"/>
  <anchor x="455" y="-480" name="bottom"/>
  <anchor x="325" y="1318" name="top"/>
  <outline>
    <contour>
      <point x="560" y="124" type="curve" smooth="yes"/>
      <point x="453" y="124"/>
      <point x="376" y="186"/>
      <point x="376" y="316" type="curve" smooth="yes"/>
      <point x="376" y="936" type="line"/>
      <point x="710" y="936" type="line"/>
      <point x="710" y="1072" type="line"/>
      <point x="376" y="1072" type="line"/>
      <point x="376" y="1318" type="line"/>
      <point x="273" y="1318" type="line"/>
      <point x="200" y="1090" type="line"/>
      <point x="35" y="1020" type="line"/>
      <point x="35" y="936" type="line"/>
      <point x="200" y="936" type="line"/>
      <point x="200" y="312" type="line" smooth="yes"/>
      <point x="200" y="52"/>
      <point x="356" y="-20"/>
      <point x="533" y="-20" type="curve" smooth="yes"/>
      <point x="597" y="-20"/>
      <point x="680" y="-6"/>
      <point x="718" y="12" type="curve"/>
      <point x="718" y="146" type="line"/>
      <point x="684" y="134"/>
      <point x="614" y="124"/>
    </contour>
    <contour>
      <point x="670" y="-278" type="curve" smooth="yes"/>
      <point x="670" y="-176"/>
      <point x="588" y="-128"/>
      <point x="484" y="-106" type="curve"/>
      <point x="542" y="0" type="line"/>
      <point x="422" y="0" type="line"/>
      <point x="328" y="-172" type="line"/>
      <point x="438" y="-186"/>
      <point x="526" y="-212"/>
      <point x="526" y="-282" type="curve" smooth="yes"/>
      <point x="526" y="-348"/>
      <point x="469" y="-370"/>
      <point x="363" y="-370" type="curve" smooth="yes"/>
      <point x="323" y="-370"/>
      <point x="275" y="-366"/>
      <point x="251" y="-360" type="curve"/>
      <point x="251" y="-470" type="line"/>
      <point x="273" y="-476"/>
      <point x="311" y="-480"/>
      <point x="351" y="-480" type="curve" smooth="yes"/>
      <point x="563" y="-480"/>
      <point x="670" y="-406"/>
    </contour>
  </outline>
</glyph>
<glyph name="tcaron" format="2">
  <advance width="773"/>
  <unicode hex="0165"/>
  <anchor x="355" y="0" name="bottom"/>
  <anchor x="258" y="1520" name="top"/>
  <outline>
    <contour>
      <point x="446" y="124" type="curve" smooth="yes"/>
      <point x="367" y="124"/>
      <point x="312" y="186"/>
      <point x="312" y="316" type="curve" smooth="yes"/>
      <point x="312" y="936" type="line"/>
      <point x="569" y="936" type="line"/>
      <point x="569" y="1072" type="line"/>
      <point x="312" y="1072" type="line"/>
      <point x="312" y="1318" type="line"/>
      <point x="205" y="1318" type="line"/>
      <point x="142" y="1090" type="line"/>
      <point x="11" y="1020" type="line"/>
      <point x="11" y="936" type="line"/>
      <point x="136" y="936" type="line"/>
      <point x="136" y="312" type="line" smooth="yes"/>
      <point x="136" y="52"/>
      <point x="260" y="-20"/>
      <point x="407" y="-20" type="curve" smooth="yes"/>
      <point x="472" y="-20"/>
      <point x="538" y="-6"/>
      <point x="577" y="12" type="curve"/>
      <point x="577" y="146" type="line"/>
      <point x="545" y="134"/>
      <point x="492" y="124"/>
    </contour>
    <contour>
      <point x="817" y="1520" type="line"/>
      <point x="647" y="1520" type="line"/>
      <point x="639" y="1434"/>
      <point x="614" y="1300"/>
      <point x="593" y="1224" type="curve"/>
      <point x="593" y="1200" type="line"/>
      <point x="692" y="1200" type="line"/>
      <point x="744" y="1288"/>
      <point x="797" y="1430"/>
      <point x="817" y="1502" type="curve"/>
    </contour>
  </outline>
</glyph>
<glyph name="Tbar" format="2">
  <advance width="1295"/>
  <unicode hex="0166"/>
  <anchor x="648" y="0" name="bottom"/>
  <anchor x="648" y="1428" name="top"/>
  <outline>
    <contour>
      <point x="736" y="0" type="line"/>
      <point x="736" y="650" type="line"/>
      <point x="1095" y="650" type="line"/>
      <point x="1095" y="798" type="line"/>
      <point x="736" y="798" type="line"/>
      <point x="736" y="1268" type="line"/>
      <point x="1271" y="1268" type="line"/>
      <point x="1271" y="1428" type="line"/>
      <point x="22" y="1428" type="line"/>
      <point x="22" y="1268" type="line"/>
      <point x="555" y="1268" type="line"/>
      <point x="555" y="798" type="line"/>
      <point x="193" y="798" type="line"/>
      <point x="193" y="650" type="line"/>
      <point x="555" y="650" type="line"/>
      <point x="555" y="0" type="line"/>
    </contour>
  </outline>
</glyph>
<glyph name="tbar" format="2">
  <advance width="766"/>
  <unicode hex="0167"/>
  <anchor x="455" y="0" name="bottom"/>
  <anchor x="325" y="1318" name="top"/>
  <outline>
    <contour>
      <point x="692" y="560" type="line"/>
      <point x="692" y="692" type="line"/>
      <point x="52" y="692" type="line"/>
      <point x="52" y="560" type="line"/>
    </contour>
    <contour>
      <point x="560" y="124" type="curve" smooth="yes"/>
      <point x="453" y="124"/>
      <point x="376" y="186"/>
      <point x="376" y="316" type="curve" smooth="yes"/>
      <point x="376" y="936" type="line"/>
      <point x="710" y="936" type="line"/>
      <point x="710" y="1072" type="line"/>
      <point x="376" y="1072" type="line"/>
      <point x="376" y="1318" type="line"/>
      <point x="273" y="1318" type="line"/>
      <point x="200" y="1090" type="line"/>
      <point x="35" y="1020" type="line"/>
      <point x="35" y="936" type="line"/>
      <point x="200" y="936" type="line"/>
      <point x="200" y="312" type="line" smooth="yes"/>
      <point x="200" y="52"/>
      <point x="356" y="-20"/>
      <point x="533" y="-20" type="curve" smooth="yes"/>
      <point x="597" y="-20"/>
      <point x="680" y="-6"/>
      <point x="718" y="12" type="curve"/>
      <point x="718" y="146" type="line"/>
      <point x="684" y="134"/>
      <point x="614" y="124"/>
    </contour>
  </outline>
</glyph>
<glyph name="Uogonek" format="2">
  <advance width="1419"/>
  <unicode hex="0172"/>
  <anchor x="707" y="-440" name="bottom"/>
  <anchor x="711" y="1428" name="top"/>
  <outline>
    <contour>
      <point x="900" y="-214" type="curve" smooth="yes"/>
      <point x="900" y="-120"/>
      <point x="953" y="-36"/>
      <point x="1065" y="102" type="curve"/>
      <point x="943" y="80" type="line"/>
      <point x="863" y="24"/>
      <point x="760" y="-108"/>
      <point x="760" y="-234" type="curve" smooth="yes"/>
      <point x="760" y="-370"/>
      <point x="823" y="-440"/>
      <point x="955" y="-440" type="curve" smooth="yes"/>
      <point x="1004" y="-440"/>
      <point x="1037" y="-432"/>
      <point x="1072" y="-422" type="curve"/>
      <point x="1072" y="-310" type="line"/>
      <point x="1051" y="-314"/>
      <point x="1022" y="-322"/>
      <point x="982" y="-322" type="curve" smooth="yes"/>
      <point x="931" y="-322"/>
      <point x="900" y="-292"/>
    </contour>
    <contour>
      <point x="1219" y="1428" type="line"/>
      <point x="1041" y="1428" type="line"/>
      <point x="1041" y="504" type="line" smooth="yes"/>
      <point x="1041" y="288"/>
      <point x="943" y="136"/>
      <point x="712" y="136" type="curve" smooth="yes"/>
      <point x="489" y="136"/>
      <point x="378" y="270"/>
      <point x="378" y="502" type="curve" smooth="yes"/>
      <point x="378" y="1428" type="line"/>
      <point x="198" y="1428" type="line"/>
      <point x="198" y="508" type="line" smooth="yes"/>
      <point x="198" y="190"/>
      <point x="373" y="-20"/>
      <point x="704" y="-20" type="curve" smooth="yes"/>
      <point x="1054" y="-20"/>
      <point x="1219" y="208"/>
      <point x="1219" y="504" type="curve" smooth="yes"/>
    </contour>
  </outline>
</glyph>
<glyph name="uogonek" format="2">
  <advance width="1271"/>
  <unicode hex="0173"/>
  <anchor x="606" y="-440" name="bottom"/>
  <anchor x="636" y="1072" name="top"/>
  <outline>
    <contour>
      <point x="910" y="1072" type="line"/>
      <point x="910" y="514" type="line" smooth="yes"/>
      <point x="910" y="264"/>
      <point x="832" y="126"/>
      <point x="592" y="126" type="curve" smooth="yes"/>
      <point x="428" y="126"/>
      <point x="352" y="210"/>
      <point x="352" y="382" type="curve" smooth="yes"/>
      <point x="352" y="1072" type="line"/>
      <point x="173" y="1072" type="line"/>
      <point x="173" y="370" type="line" smooth="yes"/>
      <point x="173" y="98"/>
      <point x="306" y="-20"/>
      <point x="566" y="-20" type="curve" smooth="yes"/>
      <point x="705" y="-20"/>
      <point x="838" y="30"/>
      <point x="908" y="142" type="curve"/>
      <point x="916" y="142" type="line"/>
      <point x="942" y="0" type="line" name=".hr01"/>
      <point x="1086" y="0" type="line"/>
      <point x="1086" y="1072" type="line"/>
    </contour>
    <contour>
      <point x="915" y="-232" type="curve" smooth="yes"/>
      <point x="915" y="-150"/>
      <point x="962" y="-86"/>
      <point x="1052" y="0" type="curve"/>
      <point x="956" y="30" type="line"/>
      <point x="876" y="-26"/>
      <point x="771" y="-138"/>
      <point x="771" y="-252" type="curve" smooth="yes"/>
      <point x="771" y="-370"/>
      <point x="835" y="-440"/>
      <point x="978" y="-440" type="curve" smooth="yes"/>
      <point x="1030" y="-440"/>
      <point x="1064" y="-432"/>
      <point x="1102" y="-422" type="curve"/>
      <point x="1102" y="-310" type="line"/>
      <point x="1080" y="-314"/>
      <point x="1050" y="-322"/>
      <point x="1006" y="-322" type="curve" smooth="yes"/>
      <point x="950" y="-322"/>
      <point x="915" y="-292"/>
    </contour>
  </outline>
</glyph>
<glyph name="longs" format="2">
  <advance width="665"/>
  <unicode hex="017F"/>
  <anchor x="344" y="0" name="bottom"/>
  <anchor x="445" y="1530" name="top"/>
  <outline>
    <contour>
      <point x="542" y="1384" type="curve" smooth="yes"/>
      <point x="596" y="1384"/>
      <point x="657" y="1368"/>
      <point x="699" y="1354" type="curve"/>
      <point x="745" y="1492" type="line"/>
      <point x="693" y="1512"/>
      <point x="627" y="1530"/>
      <point x="544" y="1530" type="curve" smooth="yes"/>
      <point x="329" y="1530"/>
      <point x="187" y="1428"/>
      <point x="187" y="1154" type="curve" smooth="yes"/>
      <point x="187" y="0" type="line"/>
      <point x="363" y="0" type="line"/>
      <point x="363" y="1154" type="line" smooth="yes"/>
      <point x="363" y="1322"/>
      <point x="430" y="1384"/>
    </contour>
  </outline>
</glyph>
<glyph name="bstroke" format="2">
  <advance width="1289"/>
  <unicode hex="0180"/>
  <anchor x="643" y="0" name="bottom"/>
  <anchor x="643" y="1520" name="top"/>
  <outline>
    <contour>
      <point x="704" y="-20" type="curve" smooth="yes"/>
      <point x="982" y="-20"/>
      <point x="1168" y="168"/>
      <point x="1168" y="536" type="curve" smooth="yes"/>
      <point x="1168" y="904"/>
      <point x="984" y="1090"/>
      <point x="704" y="1090" type="curve" smooth="yes"/>
      <point x="527" y="1090"/>
      <point x="418" y="1020"/>
      <point x="354" y="930" type="curve"/>
      <point x="344" y="930" type="line"/>
      <point x="348" y="974"/>
      <point x="354" y="1060"/>
      <point x="354" y="1150" type="curve" smooth="yes"/>
      <point x="354" y="1210" type="line"/>
      <point x="808" y="1210" type="line"/>
      <point x="808" y="1342" type="line"/>
      <point x="354" y="1342" type="line"/>
      <point x="354" y="1520" type="line"/>
      <point x="179" y="1520" type="line"/>
      <point x="179" y="1342" type="line"/>
      <point x="19" y="1342" type="line"/>
      <point x="19" y="1210" type="line"/>
      <point x="179" y="1210" type="line"/>
      <point x="179" y="0" type="line" name=".hr01"/>
      <point x="303" y="0" type="line"/>
      <point x="340" y="136" type="line"/>
      <point x="354" y="136" type="line"/>
      <point x="418" y="50"/>
      <point x="528" y="-20" name=".hr02"/>
    </contour>
    <contour>
      <point x="681" y="126" type="curve" smooth="yes"/>
      <point x="429" y="126"/>
      <point x="354" y="270"/>
      <point x="354" y="534" type="curve" smooth="yes"/>
      <point x="354" y="542" type="line" smooth="yes"/>
      <point x="354" y="816"/>
      <point x="432" y="944"/>
      <point x="677" y="944" type="curve" smooth="yes"/>
      <point x="887" y="944"/>
      <point x="986" y="808"/>
      <point x="986" y="538" type="curve" smooth="yes"/>
      <point x="986" y="272"/>
      <point x="887" y="126"/>
    </contour>
  </outline>
</glyph>
<glyph name="Bhook" format="2">
  <advance width="1431"/>
  <unicode hex="0181"/>
  <anchor x="711" y="0" name="bottom"/>
  <anchor x="711" y="1428" name="top"/>
  <outline>
    <contour>
      <point x="834" y="0" type="line" smooth="yes"/>
      <point x="1130" y="0"/>
      <point x="1313" y="146"/>
      <point x="1313" y="406" type="curve" smooth="yes"/>
      <point x="1313" y="628"/>
      <point x="1179" y="718"/>
      <point x="1008" y="748" type="curve"/>
      <point x="1008" y="758" type="line"/>
      <point x="1176" y="790"/>
      <point x="1268" y="906"/>
      <point x="1268" y="1074" type="curve" smooth="yes"/>
      <point x="1268" y="1334"/>
      <point x="1087" y="1428"/>
      <point x="743" y="1428" type="curve" smooth="yes"/>
      <point x="298" y="1428" type="line" smooth="yes"/>
      <point x="109" y="1428"/>
      <point x="22" y="1348"/>
      <point x="22" y="1176" type="curve" smooth="yes"/>
      <point x="22" y="1144"/>
      <point x="32" y="1094"/>
      <point x="44" y="1066" type="curve"/>
      <point x="201" y="1066" type="line"/>
      <point x="193" y="1084"/>
      <point x="181" y="1130"/>
      <point x="181" y="1174" type="curve" smooth="yes"/>
      <point x="181" y="1234"/>
      <point x="218" y="1274" name=".hr01"/>
      <point x="298" y="1274" type="curve" smooth="yes"/>
      <point x="348" y="1274" type="line"/>
      <point x="348" y="0" type="line"/>
    </contour>
    <contour>
      <point x="528" y="152" type="line"/>
      <point x="528" y="670" type="line"/>
      <point x="788" y="670" type="line" smooth="yes"/>
      <point x="1039" y="670"/>
      <point x="1122" y="570"/>
      <point x="1122" y="420" type="curve" smooth="yes"/>
      <point x="1122" y="260"/>
      <point x="1041" y="152"/>
      <point x="801" y="152" type="curve" smooth="yes"/>
    </contour>
    <contour>
      <point x="528" y="820" type="line"/>
      <point x="528" y="1274" type="line"/>
      <point x="752" y="1274" type="line" smooth="yes"/>
      <point x="981" y="1274"/>
      <point x="1082" y="1210"/>
      <point x="1082" y="1054" type="curve" smooth="yes"/>
      <point x="1082" y="900"/>
      <point x="1010" y="820"/>
      <point x="778" y="820" type="curve" smooth="yes"/>
    </contour>
  </outline>
</glyph>
<glyph name="Btopbar" format="2">
  <advance width="1191"/>
  <unicode hex="0182"/>
  <anchor x="623" y="0" name="bottom"/>
  <anchor x="623" y="1428" name="top"/>
  <outline>
    <contour>
      <point x="618" y="0" type="line" smooth="yes"/>
      <point x="989" y="0"/>
      <point x="1140" y="155"/>
      <point x="1140" y="418" type="curve" smooth="yes"/>
      <point x="1140" y="656"/>
      <point x="1021" y="822"/>
      <point x="599" y="822" type="curve" smooth="yes"/>
      <point x="393" y="822" type="line"/>
      <point x="393" y="1278" type="line"/>
      <point x="1050" y="1278" type="line"/>
      <point x="1050" y="1428" type="line"/>
      <point x="194" y="1428" type="line"/>
      <point x="194" y="0" type="line"/>
    </contour>
    <contour>
      <point x="393" y="147" type="line"/>
      <point x="393" y="674" type="line"/>
      <point x="576" y="674" type="line" smooth="yes"/>
      <point x="833" y="674"/>
      <point x="935" y="608"/>
      <point x="935" y="418" type="curve" smooth="yes"/>
      <point x="935" y="234"/>
      <point x="846" y="147"/>
      <point x="602" y="147" type="curve" smooth="yes"/>
    </contour>
  </outline>
</glyph>
<glyph name="btopbar" format="2">
  <advance width="1289"/>
  <unicode hex="0183"/>
  <anchor x="648" y="0" name="bottom"/>
  <anchor x="648" y="1520" name="top"/>
  <outline>
    <contour>
      <point x="709" y="-20" type="curve" smooth="yes"/>
      <point x="984" y="-20"/>
      <point x="1168" y="168"/>
      <point x="1168" y="536" type="curve" smooth="yes"/>
      <point x="1168" y="904"/>
      <point x="986" y="1090"/>
      <point x="709" y="1090" type="curve" smooth="yes"/>
      <point x="534" y="1090"/>
      <point x="426" y="1020"/>
      <point x="363" y="930" type="curve"/>
      <point x="353" y="930" type="line"/>
      <point x="357" y="974"/>
      <point x="363" y="1060"/>
      <point x="363" y="1150" type="curve" smooth="yes"/>
      <point x="363" y="1372" type="line"/>
      <point x="1056" y="1372" type="line"/>
      <point x="1056" y="1520" type="line"/>
      <point x="187" y="1520" type="line"/>
      <point x="187" y="0" type="line" name=".hr01"/>
      <point x="313" y="0" type="line"/>
      <point x="349" y="136" type="line"/>
      <point x="363" y="136" type="line"/>
      <point x="426" y="50"/>
      <point x="535" y="-20" name=".hr02"/>
    </contour>
    <contour>
      <point x="685" y="126" type="curve" smooth="yes"/>
      <point x="437" y="126"/>
      <point x="363" y="270"/>
      <point x="363" y="534" type="curve" smooth="yes"/>
      <point x="363" y="542" type="line" smooth="yes"/>
      <point x="363" y="816"/>
      <point x="440" y="944"/>
      <point x="681" y="944" type="curve" smooth="yes"/>
      <point x="888" y="944"/>
      <point x="986" y="808"/>
      <point x="986" y="538" type="curve" smooth="yes"/>
      <point x="986" y="272"/>
      <point x="888" y="126"/>
    </contour>
  </outline>
</glyph>
<glyph name="Tonesix" format="2">
  <advance width="1394"/>
  <unicode hex="0184"/>
  <anchor x="643" y="0" name="bottom"/>
  <anchor x="643" y="1428" name="top"/>
  <outline>
    <contour>
      <point x="689" y="-18" type="curve" smooth="yes"/>
      <point x="1023" y="-18"/>
      <point x="1183" y="159"/>
      <point x="1183" y="410" type="curve" smooth="yes"/>
      <point x="1183" y="641"/>
      <point x="1037" y="822"/>
      <point x="635" y="822" type="curve" smooth="yes"/>
      <point x="381" y="822" type="line"/>
      <point x="381" y="1428" type="line"/>
      <point x="180" y="1428" type="line"/>
      <point x="180" y="425" type="line" smooth="yes"/>
      <point x="180" y="161"/>
      <point x="316" y="-18"/>
    </contour>
    <contour>
      <point x="685" y="128" type="curve" smooth="yes"/>
      <point x="471" y="128"/>
      <point x="381" y="211"/>
      <point x="381" y="426" type="curve" smooth="yes"/>
      <point x="381" y="674" type="line"/>
      <point x="610" y="674" type="line" smooth="yes"/>
      <point x="849" y="674"/>
      <point x="977" y="600"/>
      <point x="977" y="410" type="curve" smooth="yes"/>
      <point x="977" y="229"/>
      <point x="888" y="128"/>
    </contour>
  </outline>
</glyph>
<glyph name="tonesix" format="2">
  <advance width="1148"/>
  <unicode hex="0185"/>
  <anchor x="620" y="0" name="bottom"/>
  <anchor x="620" y="1520" name="top"/>
  <outline>
    <contour>
      <point x="653" y="-20" type="curve" smooth="yes"/>
      <point x="943" y="-20"/>
      <point x="1130" y="167"/>
      <point x="1130" y="538" type="curve" smooth="yes"/>
      <point x="1130" y="907"/>
      <point x="955" y="1094"/>
      <point x="694" y="1094" type="curve" smooth="yes"/>
      <point x="527" y="1094"/>
      <point x="424" y="1023"/>
      <point x="365" y="935" type="curve"/>
      <point x="355" y="935" type="line"/>
      <point x="359" y="980"/>
      <point x="365" y="1063"/>
      <point x="365" y="1153" type="curve" smooth="yes"/>
      <point x="365" y="1520" type="line"/>
      <point x="164" y="1520" type="line"/>
      <point x="164" y="535" type="line" smooth="yes"/>
      <point x="164" y="169"/>
      <point x="355" y="-20"/>
    </contour>
    <contour>
      <point x="654" y="141" type="curve" smooth="yes"/>
      <point x="474" y="141"/>
      <point x="365" y="281"/>
      <point x="365" y="531" type="curve" smooth="yes"/>
      <point x="365" y="548" type="line" smooth="yes"/>
      <point x="365" y="810"/>
      <point x="436" y="933"/>
      <point x="651" y="933" type="curve" smooth="yes"/>
      <point x="833" y="933"/>
      <point x="924" y="802"/>
      <point x="924" y="540" type="curve" smooth="yes"/>
      <point x="924" y="279"/>
      <point x="834" y="141"/>
    </contour>
  </outline>
</glyph>
<glyph name="Oopen" format="2">
  <advance width="1417"/>
  <unicode hex="0186"/>
  <anchor x="548" y="0" name="bottom"/>
  <anchor x="548" y="1428" name="top"/>
  <outline>
    <contour>
      <point x="547" y="-20" type="curve" smooth="yes"/>
      <point x="1009" y="-20"/>
      <point x="1283" y="280"/>
      <point x="1283" y="712" type="curve" smooth="yes"/>
      <point x="1283" y="1162"/>
      <point x="1037" y="1448"/>
      <point x="543" y="1448" type="curve" smooth="yes"/>
      <point x="342" y="1448"/>
      <point x="186" y="1418"/>
      <point x="68" y="1364" type="curve"/>
      <point x="147" y="1212" type="line"/>
      <point x="245" y="1252"/>
      <point x="365" y="1290"/>
      <point x="511" y="1290" type="curve" smooth="yes"/>
      <point x="898" y="1290"/>
      <point x="1092" y="1068"/>
      <point x="1092" y="714" type="curve" smooth="yes"/>
      <point x="1092" y="356"/>
      <point x="871" y="138"/>
      <point x="514" y="138" type="curve" smooth="yes"/>
      <point x="375" y="138"/>
      <point x="253" y="162"/>
      <point x="132" y="194" type="curve"/>
      <point x="132" y="38" type="line"/>
      <point x="251" y="-2"/>
      <point x="366" y="-20"/>
    </contour>
  </outline>
</glyph>
<glyph name="Chook" format="2">
  <advance width="1418"/>
  <unicode hex="0187"/>
  <anchor x="832" y="0" name="bottom"/>
  <anchor x="854" y="1688" name="top"/>
  <outline>
    <contour>
      <point x="1428" y="1716" type="curve" smooth="yes"/>
      <point x="1247" y="1716"/>
      <point x="1183" y="1620"/>
      <point x="1183" y="1448" type="curve" smooth="yes"/>
      <point x="1183" y="1420" type="line"/>
      <point x="1096" y="1438"/>
      <point x="1003" y="1448"/>
      <point x="909" y="1448" type="curve" smooth="yes"/>
      <point x="411" y="1448"/>
      <point x="134" y="1148"/>
      <point x="134" y="716" type="curve" smooth="yes"/>
      <point x="134" y="266"/>
      <point x="383" y="-20"/>
      <point x="874" y="-20" type="curve" smooth="yes"/>
      <point x="1052" y="-20"/>
      <point x="1168" y="-2"/>
      <point x="1284" y="38" type="curve"/>
      <point x="1284" y="194" type="line"/>
      <point x="1167" y="162"/>
      <point x="1044" y="138"/>
      <point x="903" y="138" type="curve" smooth="yes"/>
      <point x="520" y="138"/>
      <point x="325" y="360"/>
      <point x="325" y="714" type="curve" smooth="yes"/>
      <point x="325" y="1072"/>
      <point x="547" y="1290"/>
      <point x="906" y="1290" type="curve" smooth="yes"/>
      <point x="1053" y="1290"/>
      <point x="1165" y="1252"/>
      <point x="1262" y="1212" type="curve"/>
      <point x="1337" y="1368" type="line"/>
      <point x="1337" y="1470" type="line" smooth="yes"/>
      <point x="1337" y="1534"/>
      <point x="1376" y="1566"/>
      <point x="1443" y="1566" type="curve" smooth="yes"/>
      <point x="1493" y="1566"/>
      <point x="1540" y="1554"/>
      <point x="1559" y="1546" type="curve"/>
      <point x="1559" y="1690" type="line"/>
      <point x="1527" y="1702"/>
      <point x="1483" y="1716"/>
    </contour>
  </outline>
</glyph>
<glyph name="chook" format="2">
  <advance width="1100"/>
  <unicode hex="0188"/>
  <anchor x="573" y="0" name="bottom"/>
  <anchor x="574" y="1530" name="top"/>
  <outline>
    <contour>
      <point x="603" y="-20" type="curve" smooth="yes"/>
      <point x="731" y="-20"/>
      <point x="814" y="1"/>
      <point x="889" y="42" type="curve"/>
      <point x="889" y="213" type="line"/>
      <point x="813" y="176"/>
      <point x="724" y="147"/>
      <point x="606" y="147" type="curve" smooth="yes"/>
      <point x="416" y="147"/>
      <point x="317" y="282"/>
      <point x="317" y="534" type="curve" smooth="yes"/>
      <point x="317" y="794"/>
      <point x="412" y="928"/>
      <point x="614" y="928" type="curve" smooth="yes"/>
      <point x="689" y="928"/>
      <point x="782" y="901"/>
      <point x="849" y="876" type="curve"/>
      <point x="910" y="1034" type="line"/>
      <point x="910" y="1268" type="line" smooth="yes"/>
      <point x="910" y="1333"/>
      <point x="944" y="1364"/>
      <point x="1004" y="1364" type="curve" smooth="yes"/>
      <point x="1048" y="1364"/>
      <point x="1090" y="1352"/>
      <point x="1109" y="1344" type="curve"/>
      <point x="1109" y="1504" type="line"/>
      <point x="1082" y="1516"/>
      <point x="1037" y="1530"/>
      <point x="986" y="1530" type="curve" smooth="yes"/>
      <point x="816" y="1530"/>
      <point x="740" y="1433"/>
      <point x="740" y="1250" type="curve" smooth="yes"/>
      <point x="740" y="1084" type="line"/>
      <point x="701" y="1090"/>
      <point x="659" y="1096"/>
      <point x="618" y="1096" type="curve" smooth="yes"/>
      <point x="327" y="1096"/>
      <point x="110" y="931"/>
      <point x="110" y="532" type="curve" smooth="yes"/>
      <point x="110" y="149"/>
      <point x="312" y="-20"/>
    </contour>
  </outline>
</glyph>
<glyph name="Dafrican" format="2">
  <advance width="1553"/>
  <unicode hex="0189"/>
  <anchor x="733" y="0" name="bottom"/>
  <anchor x="733" y="1428" name="top"/>
  <outline>
    <contour>
      <point x="205" y="1428" type="line"/>
      <point x="205" y="781" type="line"/>
      <point x="60" y="781" type="line"/>
      <point x="60" y="633" type="line"/>
      <point x="205" y="633" type="line"/>
      <point x="205" y="0" type="line"/>
      <point x="595" y="0" type="line" smooth="yes"/>
      <point x="1065" y="0"/>
      <point x="1343" y="247"/>
      <point x="1343" y="728" type="curve" smooth="yes"/>
      <point x="1343" y="1186"/>
      <point x="1069" y="1428"/>
      <point x="638" y="1428" type="curve" smooth="yes"/>
    </contour>
    <contour>
      <point x="615" y="1282" type="line" smooth="yes"/>
      <point x="944" y="1282"/>
      <point x="1133" y="1106"/>
      <point x="1133" y="723" type="curve" smooth="yes"/>
      <point x="1133" y="341"/>
      <point x="949" y="147"/>
      <point x="576" y="147" type="curve" smooth="yes"/>
      <point x="405" y="147" type="line"/>
      <point x="405" y="633" type="line"/>
      <point x="747" y="633" type="line"/>
      <point x="747" y="781" type="line"/>
      <point x="405" y="781" type="line"/>
      <point x="405" y="1282" type="line"/>
    </contour>
  </outline>
</glyph>
<glyph name="Dhook" format="2">
  <advance width="1787"/>
  <unicode hex="018A"/>
  <anchor x="820" y="0" name="bottom"/>
  <anchor x="820" y="1428" name="top"/>
  <outline>
    <contour>
      <point x="767" y="0" type="line" smooth="yes"/>
      <point x="1239" y="0"/>
      <point x="1517" y="247"/>
      <point x="1517" y="728" type="curve" smooth="yes"/>
      <point x="1517" y="1186"/>
      <point x="1240" y="1428"/>
      <point x="809" y="1428" type="curve" smooth="yes"/>
      <point x="314" y="1428" type="line" smooth="yes"/>
      <point x="111" y="1428"/>
      <point x="20" y="1347"/>
      <point x="20" y="1177" type="curve" smooth="yes"/>
      <point x="20" y="1144"/>
      <point x="31" y="1094"/>
      <point x="43" y="1066" type="curve"/>
      <point x="214" y="1066" type="line"/>
      <point x="206" y="1084"/>
      <point x="194" y="1130"/>
      <point x="194" y="1174" type="curve" smooth="yes"/>
      <point x="194" y="1239"/>
      <point x="231" y="1282"/>
      <point x="313" y="1282" type="curve" smooth="yes"/>
      <point x="365" y="1282" type="line"/>
      <point x="365" y="0" type="line"/>
    </contour>
    <contour>
      <point x="566" y="147" type="line"/>
      <point x="566" y="1282" type="line"/>
      <point x="789" y="1282" type="line" smooth="yes"/>
      <point x="1119" y="1282"/>
      <point x="1307" y="1106"/>
      <point x="1307" y="723" type="curve" smooth="yes"/>
      <point x="1307" y="341"/>
      <point x="1121" y="147"/>
      <point x="749" y="147" type="curve" smooth="yes"/>
    </contour>
  </outline>
</glyph>
<glyph name="Dtopbar" format="2">
  <advance width="1191"/>
  <unicode hex="018B"/>
  <anchor x="622" y="0" name="bottom"/>
  <anchor x="622" y="1428" name="top"/>
  <outline>
    <contour>
      <point x="1049" y="0" type="line"/>
      <point x="1049" y="1428" type="line"/>
      <point x="192" y="1428" type="line"/>
      <point x="192" y="1279" type="line"/>
      <point x="849" y="1279" type="line"/>
      <point x="849" y="824" type="line"/>
      <point x="671" y="824" type="line" smooth="yes"/>
      <point x="249" y="824"/>
      <point x="102" y="626"/>
      <point x="102" y="396" type="curve" smooth="yes"/>
      <point x="102" y="144"/>
      <point x="267" y="0"/>
      <point x="640" y="0" type="curve" smooth="yes"/>
    </contour>
    <contour>
      <point x="656" y="147" type="line" smooth="yes"/>
      <point x="416" y="147"/>
      <point x="308" y="230"/>
      <point x="308" y="404" type="curve" smooth="yes"/>
      <point x="308" y="603"/>
      <point x="434" y="678"/>
      <point x="690" y="678" type="curve" smooth="yes"/>
      <point x="849" y="678" type="line"/>
      <point x="849" y="147" type="line"/>
    </contour>
  </outline>
</glyph>
<glyph name="dtopbar" format="2">
  <advance width="1289"/>
  <unicode hex="018C"/>
  <anchor x="623" y="0" name="bottom"/>
  <anchor x="623" y="1520" name="top"/>
  <outline>
    <contour>
      <point x="544" y="-20" type="curve" smooth="yes"/>
      <point x="711" y="-20"/>
      <point x="812" y="53"/>
      <point x="874" y="143" type="curve"/>
      <point x="882" y="143" type="line"/>
      <point x="914" y="0" type="line" name=".hr01"/>
      <point x="1074" y="0" type="line"/>
      <point x="1074" y="1520" type="line"/>
      <point x="217" y="1520" type="line"/>
      <point x="217" y="1360" type="line"/>
      <point x="874" y="1360" type="line"/>
      <point x="874" y="1098" type="line" smooth="yes"/>
      <point x="874" y="1054"/>
      <point x="884" y="963"/>
      <point x="888" y="936" type="curve"/>
      <point x="876" y="936" type="line"/>
      <point x="812" y="1022"/>
      <point x="713" y="1093"/>
      <point x="548" y="1093" type="curve" smooth="yes"/>
      <point x="286" y="1093"/>
      <point x="110" y="902"/>
      <point x="110" y="536" type="curve" smooth="yes"/>
      <point x="110" y="168"/>
      <point x="284" y="-20" name=".hr02"/>
    </contour>
    <contour>
      <point x="587" y="141" type="curve" smooth="yes"/>
      <point x="407" y="141"/>
      <point x="316" y="284"/>
      <point x="316" y="532" type="curve" smooth="yes"/>
      <point x="316" y="777"/>
      <point x="407" y="932"/>
      <point x="584" y="932" type="curve" smooth="yes"/>
      <point x="810" y="932"/>
      <point x="879" y="789"/>
      <point x="879" y="534" type="curve" smooth="yes"/>
      <point x="879" y="501" type="line" smooth="yes"/>
      <point x="879" y="260"/>
      <point x="800" y="141"/>
    </contour>
  </outline>
</glyph>
<glyph name="deltaturned" format="2">
  <advance width="1209"/>
  <unicode hex="018D"/>
  <anchor x="608" y="-448" name="bottom"/>
  <anchor x="608" y="1072" name="top"/>
  <outline>
    <contour>
      <point x="630" y="1092" type="curve" smooth="yes"/>
      <point x="378" y="1092"/>
      <point x="154" y="942"/>
      <point x="154" y="602" type="curve" smooth="yes"/>
      <point x="154" y="434"/>
      <point x="206" y="256"/>
      <point x="551" y="68" type="curve" smooth="yes"/>
      <point x="741" y="-36"/>
      <point x="771" y="-94"/>
      <point x="771" y="-164" type="curve" smooth="yes"/>
      <point x="771" y="-228"/>
      <point x="727" y="-314"/>
      <point x="565" y="-314" type="curve" smooth="yes"/>
      <point x="450" y="-314"/>
      <point x="355" y="-260"/>
      <point x="273" y="-196" type="curve"/>
      <point x="197" y="-334" type="line"/>
      <point x="247" y="-376"/>
      <point x="371" y="-458"/>
      <point x="563" y="-458" type="curve" smooth="yes"/>
      <point x="831" y="-458"/>
      <point x="943" y="-300"/>
      <point x="943" y="-158" type="curve" smooth="yes"/>
      <point x="943" y="-4"/>
      <point x="850" y="68"/>
      <point x="758" y="126" type="curve"/>
      <point x="983" y="216"/>
      <point x="1110" y="366"/>
      <point x="1110" y="622" type="curve" smooth="yes"/>
      <point x="1110" y="908"/>
      <point x="909" y="1092"/>
    </contour>
    <contour>
      <point x="626" y="948" type="curve" smooth="yes"/>
      <point x="811" y="948"/>
      <point x="931" y="812"/>
      <point x="931" y="606" type="curve" smooth="yes"/>
      <point x="931" y="386"/>
      <point x="809" y="268"/>
      <point x="612" y="198" type="curve"/>
      <point x="439" y="284"/>
      <point x="327" y="410"/>
      <point x="327" y="606" type="curve" smooth="yes"/>
      <point x="327" y="804"/>
      <point x="435" y="948"/>
    </contour>
  </outline>
</glyph>
<glyph name="Ereversed" format="2">
  <advance width="1110"/>
  <unicode hex="018E"/>
  <anchor x="522" y="0" name="bottom"/>
  <anchor x="531" y="1428" name="top"/>
  <anchor x="973" y="1428" name="topright"/>
  <outline>
    <contour>
      <point x="897" y="0" type="line"/>
      <point x="897" y="1428" type="line"/>
      <point x="132" y="1428" type="line"/>
      <point x="132" y="1270" type="line"/>
      <point x="718" y="1270" type="line"/>
      <point x="718" y="824" type="line"/>
      <point x="167" y="824" type="line"/>
      <point x="167" y="668" type="line"/>
      <point x="718" y="668" type="line"/>
      <point x="718" y="158" type="line"/>
      <point x="132" y="158" type="line"/>
      <point x="132" y="0" type="line"/>
    </contour>
  </outline>
</glyph>
<glyph name="Eopen" format="2">
  <advance width="1079"/>
  <unicode hex="0190"/>
  <anchor x="546" y="0" name="bottom"/>
  <anchor x="546" y="1428" name="top"/>
  <outline>
    <contour>
      <point x="579" y="1448" type="curve" smooth="yes"/>
      <point x="315" y="1448"/>
      <point x="175" y="1300"/>
      <point x="175" y="1094" type="curve" smooth="yes"/>
      <point x="175" y="900"/>
      <point x="281" y="786"/>
      <point x="443" y="754" type="curve"/>
      <point x="443" y="746" type="line"/>
      <point x="233" y="714"/>
      <point x="118" y="592"/>
      <point x="118" y="390" type="curve" smooth="yes"/>
      <point x="118" y="152"/>
      <point x="253" y="-20"/>
      <point x="605" y="-20" type="curve" smooth="yes"/>
      <point x="763" y="-20"/>
      <point x="891" y="10"/>
      <point x="995" y="68" type="curve"/>
      <point x="995" y="232" type="line"/>
      <point x="887" y="172"/>
      <point x="749" y="128"/>
      <point x="623" y="128" type="curve" smooth="yes"/>
      <point x="413" y="128"/>
      <point x="305" y="228"/>
      <point x="305" y="404" type="curve" smooth="yes"/>
      <point x="305" y="584"/>
      <point x="446" y="664"/>
      <point x="683" y="664" type="curve" smooth="yes"/>
      <point x="849" y="664" type="line"/>
      <point x="849" y="814" type="line" name=".hr01"/>
      <point x="694" y="814" type="line" smooth="yes"/>
      <point x="465" y="814"/>
      <point x="358" y="916"/>
      <point x="358" y="1076" type="curve" smooth="yes"/>
      <point x="358" y="1220"/>
      <point x="450" y="1300"/>
      <point x="588" y="1300" type="curve" smooth="yes"/>
      <point x="733" y="1300"/>
      <point x="820" y="1250"/>
      <point x="912" y="1178" type="curve"/>
      <point x="994" y="1300" type="line"/>
      <point x="895" y="1382"/>
      <point x="757" y="1448"/>
    </contour>
  </outline>
</glyph>
<glyph name="Fhook" format="2">
  <advance width="1098"/>
  <unicode hex="0191"/>
  <anchor x="245" y="0" name="bottom"/>
  <anchor x="702" y="1428" name="top"/>
  <anchor x="1093" y="1428" name="topright"/>
  <outline>
    <contour>
      <point x="229" y="-484" type="curve" smooth="yes"/>
      <point x="398" y="-484"/>
      <point x="526" y="-380"/>
      <point x="526" y="-130" type="curve" smooth="yes"/>
      <point x="526" y="668" type="line"/>
      <point x="1014" y="668" type="line"/>
      <point x="1014" y="826" type="line"/>
      <point x="526" y="826" type="line"/>
      <point x="526" y="1270" type="line"/>
      <point x="1048" y="1270" type="line"/>
      <point x="1048" y="1428" type="line"/>
      <point x="346" y="1428" type="line"/>
      <point x="346" y="-112" type="line" smooth="yes"/>
      <point x="346" y="-272"/>
      <point x="292" y="-326"/>
      <point x="226" y="-326" type="curve" smooth="yes"/>
      <point x="168" y="-326"/>
      <point x="130" y="-280"/>
      <point x="130" y="-204" type="curve" smooth="yes"/>
      <point x="130" y="-182"/>
      <point x="133" y="-164"/>
      <point x="137" y="-146" type="curve"/>
      <point x="-16" y="-98" type="line"/>
      <point x="-30" y="-140"/>
      <point x="-38" y="-180"/>
      <point x="-38" y="-216" type="curve" smooth="yes"/>
      <point x="-38" y="-380"/>
      <point x="57" y="-484"/>
    </contour>
  </outline>
</glyph>
<glyph name="florin" format="2">
  <advance width="1295"/>
  <unicode hex="0192"/>
  <anchor x="365" y="0" name="bottom"/>
  <anchor x="958" y="1530" name="top"/>
  <anchor x="1318" y="1530" name="topright"/>
  <outline>
    <contour>
      <point x="399" y="-484" type="curve" smooth="yes"/>
      <point x="653" y="-484"/>
      <point x="738" y="-362"/>
      <point x="738" y="-158" type="curve" smooth="yes"/>
      <point x="738" y="936" type="line"/>
      <point x="1157" y="936" type="line"/>
      <point x="1157" y="1072" type="line"/>
      <point x="738" y="1072" type="line"/>
      <point x="738" y="1142" type="line" smooth="yes"/>
      <point x="738" y="1310"/>
      <point x="834" y="1386"/>
      <point x="1037" y="1386" type="curve" smooth="yes"/>
      <point x="1126" y="1386"/>
      <point x="1218" y="1370"/>
      <point x="1286" y="1356" type="curve"/>
      <point x="1340" y="1494" type="line"/>
      <point x="1283" y="1512"/>
      <point x="1181" y="1530"/>
      <point x="1068" y="1530" type="curve" smooth="yes"/>
      <point x="759" y="1530"/>
      <point x="558" y="1416"/>
      <point x="558" y="1140" type="curve" smooth="yes"/>
      <point x="558" y="1078" type="line"/>
      <point x="262" y="1018" type="line"/>
      <point x="262" y="936" type="line"/>
      <point x="562" y="936" type="line"/>
      <point x="562" y="-164" type="line" smooth="yes"/>
      <point x="562" y="-294"/>
      <point x="491" y="-338"/>
      <point x="374" y="-338" type="curve" smooth="yes"/>
      <point x="281" y="-338"/>
      <point x="196" y="-298"/>
      <point x="196" y="-214" type="curve" smooth="yes"/>
      <point x="196" y="-198"/>
      <point x="196" y="-184"/>
      <point x="192" y="-172" type="curve"/>
      <point x="23" y="-140" type="line"/>
      <point x="19" y="-170"/>
      <point x="27" y="-200"/>
      <point x="27" y="-226" type="curve" smooth="yes"/>
      <point x="27" y="-384"/>
      <point x="188" y="-484"/>
    </contour>
  </outline>
</glyph>
<glyph name="Ghook" format="2">
  <advance width="1474"/>
  <unicode hex="0193"/>
  <anchor x="825" y="0" name="bottom"/>
  <anchor x="882" y="1548" name="top"/>
  <outline>
    <contour>
      <point x="1387" y="1716" type="curve" smooth="yes"/>
      <point x="1222" y="1716"/>
      <point x="1156" y="1620"/>
      <point x="1156" y="1448" type="curve" smooth="yes"/>
      <point x="1156" y="1414" type="line"/>
      <point x="1071" y="1436"/>
      <point x="978" y="1448"/>
      <point x="879" y="1448" type="curve" smooth="yes"/>
      <point x="408" y="1448"/>
      <point x="134" y="1160"/>
      <point x="134" y="714" type="curve" smooth="yes"/>
      <point x="134" y="262"/>
      <point x="376" y="-20"/>
      <point x="823" y="-20" type="curve" smooth="yes"/>
      <point x="1025" y="-20"/>
      <point x="1173" y="4"/>
      <point x="1328" y="54" type="curve"/>
      <point x="1328" y="754" type="line"/>
      <point x="832" y="754" type="line"/>
      <point x="832" y="594" type="line"/>
      <point x="1148" y="594" type="line"/>
      <point x="1148" y="170" type="line"/>
      <point x="1076" y="152"/>
      <point x="993" y="136"/>
      <point x="866" y="136" type="curve" smooth="yes"/>
      <point x="478" y="136"/>
      <point x="322" y="372"/>
      <point x="322" y="714" type="curve" smooth="yes"/>
      <point x="322" y="1070"/>
      <point x="524" y="1290"/>
      <point x="869" y="1290" type="curve" smooth="yes"/>
      <point x="1006" y="1290"/>
      <point x="1137" y="1252"/>
      <point x="1240" y="1208" type="curve"/>
      <point x="1308" y="1364" type="line"/>
      <point x="1308" y="1470" type="line" smooth="yes"/>
      <point x="1308" y="1534"/>
      <point x="1342" y="1566"/>
      <point x="1403" y="1566" type="curve" smooth="yes"/>
      <point x="1447" y="1566"/>
      <point x="1489" y="1554"/>
      <point x="1507" y="1546" type="curve"/>
      <point x="1507" y="1690" type="line"/>
      <point x="1479" y="1702"/>
      <point x="1437" y="1716"/>
    </contour>
  </outline>
</glyph>
<glyph name="Gammaafrican" format="2">
  <advance width="1346"/>
  <unicode hex="0194"/>
  <anchor x="580" y="-480" name="bottom"/>
  <anchor x="580" y="1428" name="top"/>
  <outline>
    <contour>
      <point x="580" y="-480" type="curve" smooth="yes"/>
      <point x="731" y="-480"/>
      <point x="823" y="-365"/>
      <point x="823" y="-217" type="curve" smooth="yes"/>
      <point x="823" y="-112"/>
      <point x="773" y="42"/>
      <point x="686" y="217" type="curve"/>
      <point x="1163" y="1428" type="line"/>
      <point x="951" y="1428" type="line"/>
      <point x="678" y="674" type="line" smooth="yes"/>
      <point x="635" y="556"/>
      <point x="598" y="454"/>
      <point x="580" y="363" type="curve"/>
      <point x="560" y="454"/>
      <point x="525" y="553"/>
      <point x="483" y="670" type="curve" smooth="yes"/>
      <point x="210" y="1428" type="line"/>
      <point x="0" y="1428" type="line"/>
      <point x="473" y="215" type="line"/>
      <point x="401" y="68"/>
      <point x="337" y="-97"/>
      <point x="337" y="-217" type="curve" smooth="yes"/>
      <point x="337" y="-367"/>
      <point x="428" y="-480"/>
    </contour>
    <contour>
      <point x="580" y="-331" type="curve" smooth="yes"/>
      <point x="540" y="-331"/>
      <point x="513" y="-294"/>
      <point x="513" y="-209" type="curve" smooth="yes"/>
      <point x="513" y="-146"/>
      <point x="531" y="-44"/>
      <point x="580" y="59" type="curve"/>
      <point x="627" y="-37"/>
      <point x="647" y="-147"/>
      <point x="647" y="-213" type="curve" smooth="yes"/>
      <point x="647" y="-295"/>
      <point x="622" y="-331"/>
    </contour>
  </outline>
</glyph>
<glyph name="hv" format="2">
  <advance width="1863"/>
  <unicode hex="0195"/>
  <anchor x="933" y="0" name="bottom"/>
  <anchor x="933" y="1072" name="top"/>
  <outline>
    <contour>
      <point x="1267" y="-20" type="curve" smooth="yes"/>
      <point x="1545" y="-20"/>
      <point x="1685" y="98"/>
      <point x="1685" y="418" type="curve" smooth="yes"/>
      <point x="1685" y="1072" type="line"/>
      <point x="1509" y="1072" type="line"/>
      <point x="1509" y="424" type="line" smooth="yes"/>
      <point x="1509" y="212"/>
      <point x="1434" y="126"/>
      <point x="1267" y="126" type="curve" smooth="yes"/>
      <point x="1102" y="126"/>
      <point x="1025" y="212"/>
      <point x="1025" y="384" type="curve" smooth="yes"/>
      <point x="1025" y="698" type="line" smooth="yes"/>
      <point x="1025" y="972"/>
      <point x="903" y="1090"/>
      <point x="668" y="1090" type="curve" smooth="yes"/>
      <point x="544" y="1090"/>
      <point x="428" y="1034"/>
      <point x="366" y="924" type="curve"/>
      <point x="354" y="924" type="line"/>
      <point x="360" y="966"/>
      <point x="364" y="1022"/>
      <point x="364" y="1074" type="curve" smooth="yes"/>
      <point x="364" y="1520" type="line"/>
      <point x="187" y="1520" type="line"/>
      <point x="187" y="0" type="line" name=".hr01"/>
      <point x="364" y="0" type="line"/>
      <point x="364" y="554" type="line" smooth="yes"/>
      <point x="364" y="804"/>
      <point x="429" y="944"/>
      <point x="639" y="944" type="curve" smooth="yes"/>
      <point x="783" y="944"/>
      <point x="848" y="858"/>
      <point x="848" y="686" type="curve" smooth="yes"/>
      <point x="848" y="372" type="line" smooth="yes"/>
      <point x="848" y="98"/>
      <point x="990" y="-20" name=".hr02"/>
    </contour>
  </outline>
</glyph>
<glyph name="Iotaafrican" format="2">
  <advance width="802"/>
  <unicode hex="0196"/>
  <anchor x="467" y="0" name="bottom"/>
  <anchor x="294" y="1428" name="top"/>
  <outline>
    <contour>
      <point x="564" y="-20" type="curve" smooth="yes"/>
      <point x="642" y="-20"/>
      <point x="740" y="-6"/>
      <point x="780" y="12" type="curve"/>
      <point x="780" y="160" type="line"/>
      <point x="744" y="150"/>
      <point x="646" y="138"/>
      <point x="576" y="138" type="curve" smooth="yes"/>
      <point x="427" y="138"/>
      <point x="369" y="202"/>
      <point x="369" y="330" type="curve" smooth="yes"/>
      <point x="369" y="1428" type="line"/>
      <point x="198" y="1428" type="line"/>
      <point x="198" y="314" type="line" smooth="yes"/>
      <point x="198" y="52"/>
      <point x="351" y="-20"/>
    </contour>
  </outline>
</glyph>
<glyph name="Istroke" format="2">
  <advance width="802"/>
  <unicode hex="0197"/>
  <anchor x="351" y="0" name="bottom"/>
  <anchor x="351" y="1428" name="top"/>
  <outline>
    <contour>
      <point x="79" y="1428" type="line"/>
      <point x="79" y="1329" type="line"/>
      <point x="249" y="1292" type="line"/>
      <point x="249" y="808" type="line"/>
      <point x="68" y="808" type="line"/>
      <point x="68" y="660" type="line"/>
      <point x="249" y="660" type="line"/>
      <point x="249" y="135" type="line"/>
      <point x="79" y="100" type="line"/>
      <point x="79" y="0" type="line"/>
      <point x="619" y="0" type="line"/>
      <point x="619" y="100" type="line"/>
      <point x="449" y="135" type="line"/>
      <point x="449" y="660" type="line"/>
      <point x="630" y="660" type="line"/>
      <point x="630" y="808" type="line"/>
      <point x="449" y="808" type="line"/>
      <point x="449" y="1292" type="line"/>
      <point x="619" y="1329" type="line"/>
      <point x="619" y="1428" type="line"/>
    </contour>
  </outline>
</glyph>
<glyph name="Khook" format="2">
  <advance width="1360"/>
  <unicode hex="0198"/>
  <anchor x="630" y="0" name="bottom"/>
  <anchor x="630" y="1428" name="top"/>
  <outline>
    <contour>
      <point x="1115" y="1440" type="curve" smooth="yes"/>
      <point x="1016" y="1440"/>
      <point x="956" y="1422"/>
      <point x="854" y="1301" type="curve"/>
      <point x="628" y="984" type="line"/>
      <point x="554" y="892"/>
      <point x="461" y="788"/>
      <point x="395" y="704" type="curve"/>
      <point x="395" y="1428" type="line" name=".hr01"/>
      <point x="194" y="1428" type="line"/>
      <point x="194" y="0" type="line"/>
      <point x="395" y="0" type="line"/>
      <point x="395" y="535" type="line"/>
      <point x="547" y="693" type="line"/>
      <point x="1022" y="0" type="line"/>
      <point x="1256" y="0" type="line"/>
      <point x="684" y="812" type="line"/>
      <point x="997" y="1204" type="line" smooth="yes"/>
      <point x="1061" y="1285"/>
      <point x="1097" y="1298"/>
      <point x="1133" y="1298" type="curve" smooth="yes"/>
      <point x="1159" y="1298"/>
      <point x="1204" y="1296"/>
      <point x="1223" y="1291" type="curve"/>
      <point x="1223" y="1425" type="line"/>
      <point x="1198" y="1434"/>
      <point x="1164" y="1440" name=".hr02"/>
    </contour>
  </outline>
</glyph>
<glyph name="khook" format="2">
  <advance width="1197"/>
  <unicode hex="0199"/>
  <anchor x="592" y="0" name="bottom"/>
  <anchor x="592" y="1530" name="top"/>
  <outline>
    <contour>
      <point x="449" y="1530" type="curve" smooth="yes"/>
      <point x="266" y="1530"/>
      <point x="187" y="1434"/>
      <point x="187" y="1250" type="curve" smooth="yes"/>
      <point x="187" y="0" type="line"/>
      <point x="360" y="0" type="line"/>
      <point x="360" y="394" type="line"/>
      <point x="507" y="500" type="line"/>
      <point x="964" y="0" type="line"/>
      <point x="1178" y="0" type="line"/>
      <point x="627" y="614" type="line"/>
      <point x="1142" y="1072" type="line"/>
      <point x="933" y="1072" type="line"/>
      <point x="513" y="710" type="line"/>
      <point x="472" y="670"/>
      <point x="389" y="586"/>
      <point x="362" y="552" type="curve"/>
      <point x="352" y="552" type="line"/>
      <point x="356" y="602"/>
      <point x="360" y="684"/>
      <point x="360" y="726" type="curve" smooth="yes"/>
      <point x="360" y="1262" type="line" smooth="yes"/>
      <point x="360" y="1346"/>
      <point x="400" y="1378"/>
      <point x="473" y="1378" type="curve" smooth="yes"/>
      <point x="525" y="1378"/>
      <point x="575" y="1366"/>
      <point x="596" y="1358" type="curve"/>
      <point x="596" y="1504" type="line"/>
      <point x="563" y="1516"/>
      <point x="505" y="1530"/>
    </contour>
  </outline>
</glyph>
<glyph name="lbar" format="2">
  <advance width="789"/>
  <unicode hex="019A"/>
  <anchor x="395" y="0" name="bottom"/>
  <anchor x="395" y="1520" name="top"/>
  <outline>
    <contour>
      <point x="484" y="0" type="line"/>
      <point x="484" y="708" type="line"/>
      <point x="702" y="708" type="line"/>
      <point x="702" y="840" type="line"/>
      <point x="484" y="840" type="line"/>
      <point x="484" y="1520" type="line"/>
      <point x="308" y="1520" type="line"/>
      <point x="308" y="840" type="line"/>
      <point x="88" y="840" type="line"/>
      <point x="88" y="708" type="line"/>
      <point x="308" y="708" type="line"/>
      <point x="308" y="0" type="line"/>
    </contour>
  </outline>
</glyph>
<glyph name="lambdastroke" format="2">
  <advance width="1217"/>
  <unicode hex="019B"/>
  <anchor x="609" y="0" name="bottom"/>
  <anchor x="609" y="1532" name="top"/>
  <outline>
    <contour>
      <point x="168" y="0" type="line"/>
      <point x="457" y="562" type="line"/>
      <point x="511" y="668"/>
      <point x="562" y="776"/>
      <point x="590" y="870" type="curve"/>
      <point x="599" y="870" type="line"/>
      <point x="619" y="792"/>
      <point x="680" y="648"/>
      <point x="720" y="552" type="curve" smooth="yes"/>
      <point x="898" y="142" type="line"/>
      <point x="944" y="24"/>
      <point x="997" y="-20" name=".hr01"/>
      <point x="1096" y="-20" type="curve" smooth="yes"/>
      <point x="1142" y="-20"/>
      <point x="1184" y="-10"/>
      <point x="1217" y="4" type="curve"/>
      <point x="1217" y="134" type="line"/>
      <point x="1203" y="130"/>
      <point x="1173" y="124"/>
      <point x="1151" y="124" type="curve" smooth="yes"/>
      <point x="1102" y="124"/>
      <point x="1072" y="158"/>
      <point x="1044" y="232" type="curve"/>
      <point x="620" y="1228" type="line"/>
      <point x="862" y="1292" type="line"/>
      <point x="821" y="1418" type="line"/>
      <point x="566" y="1352" type="line"/>
      <point x="495" y="1474"/>
      <point x="414" y="1532"/>
      <point x="244" y="1532" type="curve" smooth="yes"/>
      <point x="189" y="1532"/>
      <point x="141" y="1524"/>
      <point x="100" y="1516" type="curve"/>
      <point x="100" y="1374" type="line"/>
      <point x="130" y="1380"/>
      <point x="171" y="1386"/>
      <point x="227" y="1386" type="curve" smooth="yes"/>
      <point x="313" y="1386"/>
      <point x="358" y="1366"/>
      <point x="404" y="1302" type="curve"/>
      <point x="171" y="1242" type="line"/>
      <point x="212" y="1116" type="line"/>
      <point x="457" y="1180" type="line"/>
      <point x="515" y="1052" type="line"/>
      <point x="-14" y="0" type="line" name=".hr02"/>
    </contour>
  </outline>
</glyph>
<glyph name="Mturned" format="2">
  <advance width="2184"/>
  <unicode hex="019C"/>
  <anchor x="1092" y="0" name="bottom"/>
  <anchor x="1092" y="1428" name="top"/>
  <outline>
    <contour>
      <point x="613" y="-20" type="curve" smooth="yes"/>
      <point x="777" y="-20"/>
      <point x="939" y="44"/>
      <point x="1023" y="180" type="curve"/>
      <point x="1033" y="180" type="line"/>
      <point x="1094" y="44"/>
      <point x="1212" y="-20"/>
      <point x="1404" y="-20" type="curve" smooth="yes"/>
      <point x="1554" y="-20"/>
      <point x="1709" y="40"/>
      <point x="1787" y="164" type="curve"/>
      <point x="1796" y="164" type="line"/>
      <point x="1827" y="0" type="line" name=".hr01"/>
      <point x="1969" y="0" type="line"/>
      <point x="1969" y="1428" type="line"/>
      <point x="1790" y="1428" type="line"/>
      <point x="1790" y="564" type="line" smooth="yes"/>
      <point x="1790" y="288"/>
      <point x="1704" y="136" name=".hr02"/>
      <point x="1439" y="136" type="curve" smooth="yes"/>
      <point x="1254" y="136"/>
      <point x="1174" y="230"/>
      <point x="1174" y="416" type="curve" smooth="yes"/>
      <point x="1174" y="1428" type="line"/>
      <point x="994" y="1428" type="line"/>
      <point x="994" y="524" type="line" smooth="yes"/>
      <point x="994" y="272"/>
      <point x="895" y="136"/>
      <point x="639" y="136" type="curve" smooth="yes"/>
      <point x="458" y="136"/>
      <point x="378" y="230"/>
      <point x="378" y="416" type="curve" smooth="yes"/>
      <point x="378" y="1428" type="line"/>
      <point x="198" y="1428" type="line"/>
      <point x="198" y="416" type="line" smooth="yes"/>
      <point x="198" y="110"/>
      <point x="329" y="-20"/>
    </contour>
  </outline>
</glyph>
<glyph name="Nhookleft" format="2">
  <advance width="1513"/>
  <unicode hex="019D"/>
  <anchor x="744" y="-480" name="bottom"/>
  <anchor x="744" y="1428" name="top"/>
  <outline>
    <contour>
      <point x="86" y="-480" type="curve" smooth="yes"/>
      <point x="263" y="-480"/>
      <point x="353" y="-386"/>
      <point x="353" y="-166" type="curve" smooth="yes"/>
      <point x="353" y="798" type="line" smooth="yes"/>
      <point x="353" y="944"/>
      <point x="343" y="1092"/>
      <point x="337" y="1186" type="curve"/>
      <point x="345" y="1186" type="line"/>
      <point x="1089" y="0" type="line"/>
      <point x="1300" y="0" type="line"/>
      <point x="1300" y="1428" type="line"/>
      <point x="1133" y="1428" type="line"/>
      <point x="1133" y="622" type="line" smooth="yes"/>
      <point x="1133" y="492"/>
      <point x="1143" y="310"/>
      <point x="1146" y="246" type="curve"/>
      <point x="1139" y="246" type="line"/>
      <point x="396" y="1428" type="line"/>
      <point x="187" y="1428" type="line"/>
      <point x="187" y="-158" type="line" smooth="yes"/>
      <point x="187" y="-284"/>
      <point x="144" y="-322"/>
      <point x="64" y="-322" type="curve" smooth="yes"/>
      <point x="31" y="-322"/>
      <point x="1" y="-314"/>
      <point x="-25" y="-302" type="curve"/>
      <point x="-25" y="-454" type="line"/>
      <point x="3" y="-470"/>
      <point x="39" y="-480"/>
    </contour>
  </outline>
</glyph>
<glyph name="nlegrightlong" format="2">
  <advance width="1271"/>
  <unicode hex="019E"/>
  <anchor x="635" y="-480" name="bottom"/>
  <anchor x="669" y="1072" name="top"/>
  <outline>
    <contour>
      <point x="1071" y="-480" type="line"/>
      <point x="1071" y="698" type="line" smooth="yes"/>
      <point x="1071" y="974"/>
      <point x="939" y="1092"/>
      <point x="693" y="1092" type="curve" smooth="yes"/>
      <point x="557" y="1092"/>
      <point x="435" y="1038"/>
      <point x="365" y="926" type="curve"/>
      <point x="355" y="926" type="line"/>
      <point x="329" y="1072" type="line"/>
      <point x="187" y="1072" type="line"/>
      <point x="187" y="0" type="line"/>
      <point x="363" y="0" type="line"/>
      <point x="363" y="556" type="line" smooth="yes"/>
      <point x="363" y="806"/>
      <point x="441" y="944"/>
      <point x="667" y="944" type="curve" smooth="yes"/>
      <point x="823" y="944"/>
      <point x="897" y="856"/>
      <point x="897" y="686" type="curve" smooth="yes"/>
      <point x="897" y="-480" type="line"/>
    </contour>
  </outline>
</glyph>
<glyph name="Ocenteredtilde" format="2">
  <advance width="1592"/>
  <unicode hex="019F"/>
  <anchor x="797" y="0" name="bottom"/>
  <anchor x="797" y="1428" name="top"/>
  <outline>
    <contour>
      <point x="1456" y="716" type="curve" smooth="yes"/>
      <point x="1456" y="1160"/>
      <point x="1228" y="1450"/>
      <point x="799" y="1450" type="curve" smooth="yes"/>
      <point x="349" y="1450"/>
      <point x="134" y="1156"/>
      <point x="134" y="718" type="curve" smooth="yes"/>
      <point x="134" y="276"/>
      <point x="349" y="-20"/>
      <point x="797" y="-20" type="curve" smooth="yes"/>
      <point x="1228" y="-20"/>
      <point x="1456" y="274"/>
    </contour>
    <contour>
      <point x="797" y="136" type="curve" smooth="yes"/>
      <point x="489" y="136"/>
      <point x="343" y="328"/>
      <point x="327" y="650" type="curve"/>
      <point x="1264" y="650" type="line"/>
      <point x="1248" y="328"/>
      <point x="1102" y="136"/>
    </contour>
    <contour>
      <point x="799" y="1292" type="curve" smooth="yes"/>
      <point x="1096" y="1292"/>
      <point x="1238" y="1110"/>
      <point x="1262" y="806" type="curve"/>
      <point x="327" y="806" type="line"/>
      <point x="351" y="1110"/>
      <point x="497" y="1292"/>
    </contour>
  </outline>
</glyph>
<glyph name="Ohorn" format="2">
  <advance width="1647"/>
  <unicode hex="01A0"/>
  <anchor x="829" y="0" name="bottom"/>
  <anchor x="828" y="1428" name="top"/>
  <outline>
    <contour>
      <point x="1518" y="716" type="curve" smooth="yes"/>
      <point x="1518" y="878"/>
      <point x="1486" y="1020"/>
      <point x="1421" y="1134" type="curve"/>
      <point x="1598" y="1196"/>
      <point x="1664" y="1340"/>
      <point x="1694" y="1498" type="curve"/>
      <point x="1680" y="1520" type="line"/>
      <point x="1488" y="1520" type="line"/>
      <point x="1488" y="1382"/>
      <point x="1471" y="1272"/>
      <point x="1350" y="1242" type="curve"/>
      <point x="1234" y="1372"/>
      <point x="1059" y="1450"/>
      <point x="831" y="1450" type="curve" smooth="yes"/>
      <point x="358" y="1450"/>
      <point x="134" y="1156"/>
      <point x="134" y="718" type="curve" smooth="yes"/>
      <point x="134" y="276"/>
      <point x="358" y="-20"/>
      <point x="829" y="-20" type="curve" smooth="yes"/>
      <point x="1279" y="-20"/>
      <point x="1518" y="274"/>
    </contour>
    <contour>
      <point x="325" y="716" type="curve" smooth="yes"/>
      <point x="325" y="1074"/>
      <point x="479" y="1292"/>
      <point x="831" y="1292" type="curve" smooth="yes"/>
      <point x="1178" y="1292"/>
      <point x="1328" y="1074"/>
      <point x="1328" y="716" type="curve" smooth="yes"/>
      <point x="1328" y="356"/>
      <point x="1178" y="136"/>
      <point x="829" y="136" type="curve" smooth="yes"/>
      <point x="479" y="136"/>
      <point x="325" y="356"/>
    </contour>
  </outline>
</glyph>
